<?xml version="1.0" standalone="no"?>
<!DOCTYPE svg PUBLIC "-//W3C//DTD SVG 20010904//EN"
 "http://www.w3.org/TR/2001/REC-SVG-20010904/DTD/svg10.dtd">
<svg version="1.0" xmlns="http://www.w3.org/2000/svg"
 width="960.000000pt" height="1280.000000pt" viewBox="0 0 960.000000 1280.000000"
 preserveAspectRatio="xMidYMid meet">
<metadata>
Created by potrace 1.15, written by Peter Selinger 2001-2017
</metadata>
<g transform="translate(0.000000,1280.000000) scale(0.100000,-0.100000)"
fill="#000000" stroke="none">
<path d="M4607 12613 c-4 -3 -7 -18 -7 -33 0 -50 -22 -91 -117 -217 -91 -121
-153 -229 -186 -323 -8 -25 -39 -109 -68 -187 -29 -79 -49 -146 -46 -150 4 -4
19 -3 33 3 22 7 29 20 44 79 59 231 207 523 328 648 l47 47 178 -355 c97 -196
175 -360 172 -364 -2 -5 -20 -12 -39 -15 -19 -4 -45 -15 -57 -25 -20 -15 -51
-19 -189 -24 -115 -5 -205 -14 -295 -32 -235 -46 -205 -50 -416 48 -101 47
-213 97 -249 112 -127 53 -186 88 -250 151 -36 35 -87 73 -113 84 -52 23 -294
73 -314 65 -17 -6 -16 -45 2 -88 22 -53 0 -120 -109 -338 -57 -113 -99 -209
-106 -245 -25 -119 6 -228 100 -354 27 -37 38 -59 33 -70 -4 -8 -8 -41 -7 -72
l0 -58 -31 0 c-76 0 -298 -89 -311 -125 -8 -20 38 -97 77 -129 17 -15 30 -28
28 -30 -2 -2 -42 -13 -89 -26 -47 -12 -106 -34 -133 -48 -51 -27 -153 -119
-144 -129 4 -3 66 0 139 7 153 15 283 18 294 8 4 -5 -20 -36 -53 -71 -84 -87
-137 -200 -117 -251 8 -20 59 -21 129 -2 70 18 111 41 166 93 l48 45 6 -29
c11 -48 25 -82 112 -271 47 -101 82 -189 79 -197 -3 -9 -19 -15 -40 -15 -58 0
-313 -39 -430 -66 -124 -28 -278 -83 -283 -101 -2 -6 30 2 72 18 135 53 375
101 652 132 l41 5 26 -84 c15 -46 51 -132 80 -191 30 -59 54 -108 53 -109 -1
0 -56 -18 -122 -39 -172 -55 -406 -177 -383 -200 3 -3 28 10 56 29 27 20 87
54 133 75 89 42 288 111 317 111 10 0 39 -35 76 -91 l59 -90 -12 -177 c-7 -97
-16 -217 -21 -267 -12 -128 -12 -345 1 -450 17 -138 51 -257 117 -405 200
-451 248 -867 157 -1361 -39 -216 -125 -384 -301 -589 -159 -187 -256 -337
-379 -592 -119 -248 -191 -460 -250 -738 -39 -178 -37 -175 -143 -301 -136
-164 -461 -352 -723 -418 -56 -14 -114 -21 -179 -21 -93 0 -99 1 -141 31 -24
18 -111 98 -194 179 -126 123 -158 150 -200 163 -111 37 -203 30 -251 -18 -45
-45 -26 -187 47 -341 38 -81 169 -277 256 -384 79 -98 132 -137 225 -168 321
-105 758 17 1200 334 65 47 124 87 132 90 9 4 24 -8 40 -33 14 -21 54 -73 89
-115 100 -123 163 -236 177 -321 18 -105 7 -330 -26 -532 -20 -128 -27 -207
-28 -320 l-1 -150 43 -100 c48 -111 155 -433 208 -624 18 -68 43 -185 54 -260
31 -216 60 -285 149 -360 65 -55 86 -89 122 -207 25 -79 38 -105 75 -144 59
-63 201 -164 294 -209 66 -31 84 -36 145 -35 39 1 85 5 102 9 24 5 52 0 108
-20 90 -33 142 -31 232 9 58 26 64 27 116 16 113 -26 182 8 207 101 23 84 -27
225 -109 307 -52 52 -119 88 -308 162 -125 50 -205 93 -236 128 -19 21 -58
196 -89 392 -30 200 -33 612 -4 735 33 143 70 198 203 302 101 78 141 127 207
250 28 51 53 90 57 87 4 -2 12 -34 18 -71 7 -38 30 -127 51 -199 72 -240 82
-307 59 -399 -15 -60 -6 -88 45 -143 49 -53 125 -165 246 -362 45 -74 115
-182 154 -240 129 -186 123 -170 129 -365 8 -252 30 -329 129 -439 61 -69 96
-86 178 -86 41 0 74 -7 99 -20 61 -30 112 -35 175 -15 48 15 62 16 101 5 73
-21 182 -9 251 27 33 17 71 31 86 31 37 -1 94 37 123 80 31 45 33 118 6 178
-19 42 -33 55 -181 169 -186 144 -241 215 -326 421 -121 292 -199 598 -235
920 -24 220 14 345 221 714 170 304 200 384 246 645 37 214 38 406 5 578 -35
177 -29 226 47 410 34 81 91 224 126 317 75 196 78 202 123 255 97 113 221
464 292 825 43 219 53 330 58 635 2 165 5 301 6 302 2 1 38 -16 81 -38 43 -21
92 -39 109 -39 44 0 238 132 315 215 59 63 147 185 207 289 25 42 30 46 40 32
15 -20 121 -49 151 -42 11 3 26 17 34 31 15 29 23 31 40 10 17 -20 43 -19 71
4 23 18 23 20 11 103 -20 139 -22 133 60 174 133 67 464 296 596 413 294 259
313 501 58 755 -157 158 -297 262 -451 336 -44 21 -172 68 -285 105 -194 63
-212 67 -335 75 -77 5 -148 15 -175 24 -183 68 -512 92 -805 61 -120 -13 -169
-15 -177 -7 -8 8 -5 37 10 104 12 51 22 102 24 112 3 17 11 19 76 17 40 -1 98
3 130 9 68 14 171 61 197 90 25 28 10 39 -18 13 -61 -56 -179 -93 -298 -93
-78 0 -75 -3 -82 86 l-5 61 52 12 c116 26 249 115 299 200 27 47 3 37 -33 -12
-58 -81 -183 -156 -289 -173 -36 -6 -41 -4 -41 12 0 48 -119 244 -147 244 -31
0 -24 -34 20 -99 41 -59 77 -136 77 -162 0 -5 -11 -9 -25 -9 -14 0 -25 -4 -25
-10 0 -5 14 -10 30 -10 l30 0 0 -61 c0 -60 0 -61 -25 -55 -14 4 -25 2 -25 -4
0 -5 11 -12 25 -16 30 -7 30 -15 6 -118 -24 -101 -38 -114 -126 -121 -118 -10
-162 26 -196 160 -17 71 -18 80 -4 99 52 70 96 145 101 174 12 64 -44 86 -114
45 -43 -25 -44 -25 -94 -9 -42 13 -55 14 -77 3 -43 -20 -39 -57 13 -133 93
-133 96 -156 31 -241 -25 -32 -56 -74 -70 -94 -62 -95 -189 -149 -349 -149
-110 0 -222 21 -277 52 -32 17 -41 19 -54 8 -8 -7 -15 -18 -15 -25 0 -18 72
-50 160 -70 41 -10 88 -20 104 -24 32 -7 42 -1 -129 -76 -48 -21 -83 -50 -187
-155 -178 -180 -188 -184 -398 -161 -58 6 -169 18 -248 26 -294 32 -456 97
-512 205 -10 19 -27 43 -37 52 -17 16 -22 16 -39 4 -19 -14 -19 -15 0 -50 29
-55 99 -122 158 -152 82 -42 241 -92 326 -103 42 -6 142 -15 222 -21 80 -5
161 -14 180 -20 19 -5 48 -10 64 -10 35 0 37 4 -65 -168 -72 -120 -133 -235
-180 -339 l-14 -31 -102 67 c-132 88 -245 146 -311 160 -142 30 -352 -5 -352
-58 0 -18 4 -17 78 7 109 36 190 36 265 -1 67 -34 67 -33 30 -166 -23 -80 -28
-116 -28 -216 0 -104 3 -125 22 -160 15 -28 23 -35 27 -25 3 8 26 80 52 160
51 159 106 276 134 285 13 4 54 -18 130 -71 61 -43 109 -80 107 -83 -50 -90
-74 -231 -58 -343 10 -73 26 -114 34 -88 52 169 88 241 146 293 66 59 89 57
242 -21 74 -38 180 -83 236 -101 57 -18 105 -36 108 -41 3 -4 0 -31 -7 -59
-13 -59 -2 -85 29 -65 22 14 31 48 44 167 17 166 70 279 191 412 69 76 70 78
94 220 13 73 69 108 142 89 20 -6 22 -11 16 -43 l-7 -36 34 42 c49 60 97 93
137 93 32 0 112 -36 112 -50 0 -4 -9 -33 -20 -65 -11 -32 -18 -60 -16 -62 2
-2 20 21 41 52 21 30 43 55 49 55 19 -1 53 -34 70 -67 21 -42 20 -95 -4 -163
l-19 -55 34 37 c23 25 37 33 42 25 14 -23 5 -107 -18 -154 -26 -54 -125 -156
-188 -193 -101 -59 -93 -39 -107 -291 -18 -323 -47 -469 -122 -613 -64 -122
-129 -149 -362 -150 l-135 -1 -148 68 c-269 123 -655 270 -697 265 -45 -5 -28
-30 30 -45 93 -23 187 -62 414 -170 373 -178 341 -168 546 -168 159 1 180 3
233 24 32 13 74 37 93 53 68 60 138 221 173 393 l17 90 100 -3 c54 -1 214 -14
354 -28 313 -31 552 -40 685 -25 90 9 111 16 214 66 63 31 133 58 156 62 l41
5 22 -52 c18 -43 20 -56 10 -69 -7 -9 -77 -92 -154 -186 -190 -228 -262 -296
-337 -316 -37 -10 -49 -7 -135 27 l-94 39 6 55 c13 107 13 115 -10 118 -39 6
-46 -35 -55 -323 -10 -323 -24 -507 -49 -675 -52 -344 -136 -623 -285 -940
-40 -85 -114 -261 -164 -390 -50 -129 -112 -275 -137 -323 -50 -98 -50 -102
-18 -296 18 -109 18 -302 -1 -417 -20 -122 -81 -405 -104 -479 -29 -91 -54
-151 -141 -336 -155 -327 -197 -462 -207 -664 -5 -102 -1 -144 22 -280 54
-324 136 -589 256 -835 57 -117 79 -152 127 -199 66 -64 185 -162 255 -210 67
-46 87 -82 87 -157 0 -59 -2 -63 -36 -89 -40 -30 -53 -24 -54 25 -1 63 -108
220 -151 220 -33 0 -30 -18 11 -65 78 -90 107 -190 64 -223 -42 -31 -91 -45
-164 -45 -94 -1 -116 10 -122 61 -7 51 -87 232 -103 232 -7 0 -18 -6 -24 -14
-9 -10 -3 -31 26 -92 30 -62 37 -88 35 -128 -1 -27 -8 -54 -15 -58 -6 -5 -41
-7 -76 -5 -67 3 -62 0 -124 76 -20 25 -34 20 -47 -15 -18 -45 -102 -23 -159
42 -81 93 -105 182 -117 439 -7 158 -7 160 -41 218 -19 32 -54 80 -78 107 -70
78 -103 133 -182 297 -90 190 -116 229 -207 315 l-70 67 3 109 c3 131 -23 301
-76 490 -19 70 -36 132 -36 138 -1 6 43 62 98 124 55 61 108 124 117 139 10
15 29 70 42 122 13 52 52 173 88 269 100 270 121 370 89 429 -13 23 -14 23
-27 7 -19 -27 -77 -215 -145 -476 -34 -129 -64 -245 -66 -257 -3 -12 -31 -42
-63 -67 -66 -52 -142 -141 -289 -339 -56 -77 -132 -167 -169 -200 -224 -209
-233 -224 -256 -437 -30 -286 -39 -434 -33 -585 12 -304 67 -473 182 -561 20
-15 113 -60 207 -100 194 -83 247 -115 311 -183 70 -75 102 -218 59 -270 -15
-19 -25 -22 -87 -19 l-69 3 -1 60 c-1 45 -8 76 -32 128 -32 67 -55 89 -75 69
-7 -7 -2 -27 17 -66 15 -31 30 -77 33 -102 4 -41 2 -48 -29 -80 -62 -65 -126
-81 -192 -49 -69 34 -72 39 -53 89 30 79 18 172 -22 164 -14 -3 -17 -15 -17
-69 0 -45 -6 -74 -18 -92 -20 -31 -96 -67 -141 -67 -109 0 -360 131 -420 218
-13 21 -34 69 -46 107 -45 146 -52 157 -133 240 -91 91 -112 130 -127 235 -13
86 -84 394 -141 615 -24 91 -65 209 -105 302 -52 124 -67 169 -76 240 -14 116
-5 257 32 488 37 232 46 350 31 430 -20 109 -99 248 -225 400 -67 80 -73 95
-132 320 -26 97 -41 236 -30 279 10 40 62 93 111 112 78 29 161 17 291 -44
116 -54 157 -63 172 -36 8 15 22 13 138 -19 163 -46 246 -62 269 -53 16 6 15
9 -11 37 -83 88 -335 266 -422 299 -26 10 -76 21 -111 25 -36 4 -103 21 -149
37 -47 16 -114 32 -149 35 l-64 6 6 31 c35 174 84 336 101 336 3 0 20 -14 37
-32 52 -52 208 -147 267 -164 92 -25 136 -43 375 -149 390 -174 430 -179 254
-34 -162 134 -326 247 -439 303 -58 29 -141 73 -185 98 -44 25 -111 62 -148
82 -38 21 -71 44 -74 51 -2 8 16 56 42 107 96 190 105 198 182 183 79 -14 146
-66 222 -169 44 -59 121 -112 320 -220 137 -75 211 -109 219 -101 6 6 4 8
-163 185 -65 69 -133 148 -152 176 -55 82 -188 171 -361 239 -51 21 -92 41
-90 46 10 28 176 240 196 248 69 32 216 -14 324 -101 19 -15 110 -68 203 -118
94 -51 209 -118 258 -150 82 -56 87 -58 87 -35 0 13 -22 56 -49 97 -93 136
-248 278 -306 278 -12 0 -97 52 -189 117 l-167 116 20 21 c23 25 54 86 71 141
16 52 59 138 74 148 20 14 91 -2 192 -43 284 -119 376 -143 391 -104 10 28
-65 91 -292 244 -121 81 -228 156 -236 167 -14 15 -17 48 -20 178 l-4 160 46
-2 c26 0 156 -30 290 -66 274 -73 306 -80 314 -67 8 13 -80 70 -370 236 -143
82 -272 160 -286 174 -17 16 -33 49 -43 90 -10 36 -32 99 -50 140 -18 41 -43
106 -56 143 -20 63 -21 70 -7 85 15 14 26 12 119 -23 167 -62 218 -50 196 48
-15 68 -47 98 -168 161 -130 68 -180 113 -221 199 -40 88 -101 303 -103 364
-1 45 3 56 29 83 16 17 51 45 77 61 52 34 201 95 254 105 68 13 39 19 -95 21
-162 1 -211 14 -223 59 -5 16 -6 115 -2 221 l6 192 -66 77 c-36 43 -63 81 -59
85 9 8 236 58 373 83 363 64 819 110 1213 122 133 5 217 11 217 17 0 13 -369
2 -610 -18 -427 -35 -806 -90 -1108 -161 -57 -13 -108 -24 -113 -24 -21 0
-161 351 -145 367 27 28 1184 39 1566 15 340 -21 504 -26 497 -15 -3 5 -77 13
-164 17 -87 4 -228 11 -313 16 -425 26 -1407 21 -1569 -7 -31 -5 -33 -4 -26
18 13 45 56 100 90 116 33 16 40 15 129 -5 110 -26 230 -28 326 -7 93 21 190
18 309 -7 l104 -22 18 23 c11 13 19 29 19 36 0 38 -85 71 -151 60 -48 -8 -49
0 -6 56 57 75 154 108 319 109 52 0 77 -5 114 -25 26 -14 53 -25 61 -25 8 0
45 -18 81 -40 85 -50 162 -77 268 -92 135 -19 251 13 365 103 27 22 69 48 92
58 l41 18 -46 49 c-49 52 -109 174 -129 262 -11 45 -10 53 10 85 27 44 28 67
1 42 -25 -23 -74 -16 -160 21 -51 21 -85 29 -156 32 -84 4 -96 2 -145 -23
-105 -52 -145 -105 -219 -290 -55 -138 -69 -165 -86 -165 -6 0 -33 10 -60 22
-41 19 -67 22 -159 22 -129 0 -137 -3 -252 -100 -129 -109 -126 -108 -338 -99
-147 5 -196 4 -267 -10 -104 -19 -252 -25 -267 -9 -17 16 -68 173 -76 231 -6
48 -5 53 28 90 19 21 55 75 81 120 26 46 51 85 54 87 4 2 32 -25 62 -60 30
-35 65 -66 78 -70 13 -4 72 -7 130 -8 94 -1 111 -4 139 -24 l32 -23 16 24 c16
24 65 204 65 238 0 27 16 32 52 13 18 -10 60 -23 93 -30 116 -25 196 -14 239
35 11 11 24 21 30 21 6 0 40 -26 76 -58 94 -85 102 -88 141 -55 41 35 79 116
79 171 l0 43 44 -6 43 -7 18 49 c10 28 19 84 20 136 3 98 8 106 74 149 57 36
73 35 91 -5 14 -30 18 -32 60 -29 59 3 135 21 185 42 l41 18 56 -47 c31 -25
90 -76 130 -113 45 -41 94 -75 126 -87 64 -25 69 -26 76 -3 9 26 -10 79 -49
143 -19 31 -35 67 -35 80 0 13 16 38 40 60 22 21 40 43 40 49 0 13 48 32 62
24 17 -11 52 -99 107 -269 28 -88 62 -178 74 -200 27 -48 57 -53 68 -12 10 37
-12 182 -50 330 -41 157 -40 272 2 299 30 19 131 2 149 -25 5 -7 7 -48 6 -92
-2 -85 7 -111 49 -156 34 -37 42 -83 43 -236 0 -122 1 -133 18 -133 11 0 24
12 31 26 15 34 30 149 31 237 0 37 4 67 8 67 5 0 30 -7 56 -16 40 -14 50 -23
71 -64 13 -27 32 -75 41 -108 l16 -59 -55 -54 c-59 -57 -78 -99 -57 -124 19
-23 28 -18 51 29 25 54 45 74 61 58 7 -7 -9 -33 -56 -88 -73 -85 -96 -141 -96
-229 0 -41 6 -60 28 -91 40 -55 108 -114 132 -114 25 0 25 13 -1 68 -24 48
-25 38 24 189 11 34 17 74 14 89 -4 23 5 36 64 93 38 36 69 74 69 84 0 10 -3
17 -7 15 -5 -2 -25 -12 -46 -23 -26 -13 -40 -16 -48 -8 -6 6 -21 59 -35 119
-13 60 -34 137 -46 172 -11 34 -19 65 -16 68 3 2 24 -11 47 -30 23 -19 67 -47
98 -62 52 -26 64 -28 167 -26 61 1 140 4 174 8 l64 7 -8 31 c-6 26 -12 112
-14 194 0 31 -71 106 -134 141 -28 16 -94 44 -146 62 l-95 33 41 12 c62 18 98
39 132 79 63 71 49 112 -50 155 -56 24 -204 44 -260 36 l-38 -6 0 108 c0 112
-19 198 -46 209 -16 6 -138 -57 -187 -98 -21 -17 -45 -49 -54 -70 -12 -32 -20
-39 -42 -39 -61 0 -104 -51 -125 -151 l-6 -27 -58 24 c-59 24 -208 54 -267 54
-27 0 -36 7 -60 44 -52 82 -161 149 -244 150 l-55 1 -146 300 c-189 387 -253
499 -273 478z m-1358 -573 c130 -28 188 -56 241 -119 51 -60 72 -73 226 -141
66 -28 197 -88 292 -133 l173 -81 117 23 c64 12 135 23 158 24 55 2 186 -43
192 -65 3 -15 16 -18 66 -18 65 0 101 -12 72 -23 -9 -4 -55 -12 -102 -19 l-86
-12 -127 44 c-91 31 -134 41 -154 36 -15 -3 -27 -10 -27 -15 0 -12 113 -116
185 -169 40 -30 52 -43 35 -39 -14 4 -51 7 -84 7 -50 0 -57 2 -52 16 13 35
-84 156 -149 186 -19 8 -32 5 -75 -18 -28 -15 -65 -44 -82 -63 -30 -34 -31
-35 -24 -118 6 -78 5 -83 -11 -74 -32 17 -70 65 -104 131 -47 92 -177 220
-309 305 -176 113 -212 138 -272 188 -64 53 -78 57 -78 24 0 -32 66 -93 175
-162 121 -78 186 -135 280 -250 114 -137 132 -182 99 -248 -35 -69 -64 -95
-149 -136 -93 -45 -116 -73 -108 -128 l5 -32 -33 9 c-19 6 -64 10 -101 10
l-68 0 -31 43 c-17 23 -46 72 -65 109 -18 36 -38 70 -44 73 -20 12 -56 -4
-116 -50 -32 -25 -65 -44 -74 -43 -23 5 -68 97 -76 155 -8 69 13 171 66 308
23 61 55 144 71 185 46 119 53 178 31 244 l-19 56 21 0 c12 0 63 -9 115 -20z
m2869 -142 c5 -7 13 -53 16 -103 l7 -90 -46 -94 c-31 -64 -45 -104 -43 -125
l3 -31 50 62 c63 79 99 97 190 98 63 0 77 -4 145 -41 61 -33 76 -45 78 -67 4
-36 -35 -71 -96 -87 -71 -18 -200 -24 -266 -11 -33 6 -61 10 -63 8 -1 -2 45
-36 103 -76 58 -41 121 -87 140 -103 32 -29 34 -33 34 -99 0 -68 0 -69 -27
-69 -36 0 -105 34 -121 60 -7 11 -19 53 -27 92 -27 125 -76 178 -166 178 -27
0 -49 2 -49 4 0 2 9 23 20 47 37 83 27 137 -42 217 -35 41 -36 81 -3 138 47
80 133 129 163 92z m-900 -196 c60 -56 72 -73 72 -99 0 -49 -17 -84 -68 -138
-113 -119 -102 -127 33 -29 105 75 143 94 195 94 46 0 85 -29 129 -99 31 -47
31 -49 16 -90 -8 -24 -25 -60 -37 -82 -19 -34 -28 -40 -75 -50 -66 -13 -91 -8
-163 36 -66 40 -110 58 -110 45 0 -5 36 -42 80 -82 55 -50 80 -80 80 -96 0
-14 -18 -40 -47 -68 -45 -42 -50 -45 -88 -38 -128 21 -179 100 -140 215 l15
44 -21 -25 c-12 -14 -34 -48 -50 -76 -47 -82 -79 -103 -186 -119 -39 -6 -43
-5 -43 13 0 12 5 33 10 48 6 14 14 44 19 66 l9 39 -119 94 c-65 53 -119 100
-119 106 0 19 69 39 138 39 84 0 165 -26 233 -75 27 -19 49 -31 49 -27 0 5
-36 42 -80 83 -93 87 -98 107 -52 199 24 48 33 57 77 73 28 10 61 29 75 43 17
16 36 24 60 24 29 0 47 -11 108 -68z m687 -53 c85 -92 92 -128 50 -229 -14
-33 -25 -64 -25 -69 0 -5 21 -3 46 5 60 18 86 11 128 -36 37 -41 39 -52 51
-238 l6 -94 -33 7 c-83 18 -144 49 -190 96 -58 59 -66 86 -44 154 21 66 21 62
-17 79 -36 14 -95 94 -115 155 -18 51 -15 132 6 162 17 27 62 68 73 69 4 0 32
-28 64 -61z m-259 -118 c62 -45 85 -76 91 -120 5 -38 4 -41 -19 -41 -34 0
-102 61 -128 115 -37 76 -12 96 56 46z m-1345 -125 c15 -24 19 -51 19 -119 0
-49 -5 -97 -10 -108 -7 -13 -7 -19 0 -19 5 0 24 25 41 55 17 31 40 62 52 70
25 17 36 15 188 -36 63 -21 134 -39 157 -39 69 0 69 -36 -1 -88 -23 -17 -54
-41 -68 -52 -48 -40 -91 -42 -213 -10 -61 16 -112 28 -113 26 -8 -8 58 -61
115 -93 84 -47 97 -69 96 -160 -2 -116 -25 -127 -134 -61 -76 44 -111 89 -151
188 -12 30 -26 59 -30 64 -9 10 -23 -40 -39 -141 -19 -119 -61 -163 -155 -163
-48 0 -54 3 -102 53 -75 76 -87 122 -44 171 22 25 94 61 164 81 31 9 57 18 57
20 0 2 -32 3 -71 4 -95 1 -211 32 -251 68 -35 32 28 119 95 130 46 7 126 -18
184 -58 48 -33 49 -32 28 56 -19 77 -19 158 -1 193 13 26 39 44 76 55 19 5 87
-48 111 -87z m2269 -176 c68 -35 105 -107 117 -232 6 -56 5 -57 -23 -65 -49
-14 -225 -7 -284 10 -30 9 -71 30 -90 46 l-35 30 72 1 c105 0 103 -1 103 91 0
48 -6 94 -15 116 l-15 36 66 -7 c37 -4 83 -15 104 -26z m-3326 -123 c43 -86
44 -128 7 -236 -27 -76 -30 -95 -20 -113 l12 -23 10 25 c64 163 99 196 205
187 85 -6 137 -30 202 -90 l51 -49 -18 -30 c-38 -66 -58 -72 -231 -78 -143 -5
-153 -6 -117 -17 22 -7 75 -15 117 -18 96 -8 130 -29 172 -106 28 -52 29 -59
20 -115 l-9 -59 -89 -3 c-156 -5 -234 37 -297 159 l-22 44 -12 -42 c-7 -23
-25 -64 -40 -90 -34 -59 -125 -183 -133 -183 -4 0 -26 30 -50 68 -99 155 -88
250 31 283 20 5 37 16 37 24 0 23 -64 29 -119 11 -92 -30 -175 -15 -233 41
-35 33 -35 63 -2 102 32 39 104 61 196 61 84 0 112 -13 172 -82 25 -29 46 -50
46 -46 0 3 -18 33 -40 66 -43 64 -70 129 -70 169 0 16 27 51 87 114 47 49 91
88 97 86 6 -1 24 -28 40 -60z m566 -45 c61 -31 59 -26 44 -140 -16 -123 91
-262 201 -262 50 0 151 53 170 90 8 16 20 53 26 82 l12 53 54 -60 c29 -33 65
-77 80 -98 25 -37 26 -41 14 -85 -14 -54 -36 -82 -63 -82 -24 0 -80 29 -141
73 l-49 35 -60 -31 c-70 -36 -170 -47 -243 -27 -43 12 -44 13 -50 64 -4 28 -5
86 -3 129 l3 77 -40 0 c-22 0 -51 6 -65 13 -28 14 -93 115 -83 129 11 19 97
68 117 67 12 0 46 -13 76 -27z m-69 -438 c-7 -30 -16 -54 -19 -54 -4 0 -31 21
-60 46 -61 53 -60 55 24 104 l49 28 9 -35 c6 -23 4 -55 -3 -89z m-903 -45 c49
-10 50 -11 56 -53 4 -24 22 -69 41 -101 40 -66 40 -66 19 -127 -32 -95 -124
-169 -213 -172 l-46 -1 -3 48 c-4 66 42 151 122 224 l61 55 -223 -4 c-122 -1
-222 -1 -222 3 0 3 35 26 78 52 135 82 217 101 330 76z m2082 -129 c0 -11 -4
-20 -10 -20 -5 0 -10 9 -10 20 0 11 5 20 10 20 6 0 10 -9 10 -20z m120 0 c13
-25 -3 -85 -24 -93 -35 -14 -50 61 -19 95 21 23 30 23 43 -2z m-259 -13 c0 -1
4 -54 8 -117 9 -128 24 -170 88 -241 45 -50 81 -69 129 -69 71 0 127 91 163
269 l18 83 27 -32 c15 -18 40 -58 57 -89 16 -31 34 -63 41 -73 23 -33 -85
-125 -191 -163 -84 -29 -261 -13 -368 35 -26 11 -71 39 -100 62 -64 49 -67 69
-28 185 40 119 95 184 137 162 10 -5 18 -11 19 -12z m1405 13 c17 0 18 -20 2
-55 -16 -36 -52 -31 -56 8 -5 39 5 60 24 53 9 -3 22 -6 30 -6z m-1081 -140 c8
-26 -3 -62 -18 -57 -7 2 -13 14 -15 26 -7 45 20 71 33 31z m-76 -117 c16 -35
-1 -52 -23 -22 -9 13 -16 29 -16 36 0 23 26 14 39 -14z m1033 -730 c12 -23 20
-44 17 -47 -5 -5 -194 -35 -222 -36 -5 0 27 38 69 86 l78 85 18 -23 c9 -13 28
-42 40 -65z m923 -32 c40 -5 46 -8 28 -14 -12 -5 -34 -22 -48 -38 -21 -25 -25
-41 -25 -90 0 -71 7 -77 128 -109 70 -19 101 -22 195 -18 171 8 224 34 242
120 19 94 219 71 528 -61 156 -67 243 -112 304 -158 87 -65 247 -214 262 -243
27 -55 -10 -114 -113 -175 -77 -45 -130 -65 -358 -130 -103 -30 -200 -61 -216
-69 -42 -22 -83 -67 -89 -99 -4 -21 -10 -26 -22 -21 -9 4 -39 9 -68 12 -41 3
-60 0 -88 -16 -34 -21 -38 -21 -161 -7 -69 8 -204 26 -301 40 -367 54 -542 65
-712 45 -84 -9 -84 -9 -120 19 -25 20 -40 43 -48 72 -15 53 -76 136 -118 161
-84 48 -212 58 -294 21 -20 -9 -64 -17 -98 -17 -54 -1 -66 -5 -94 -31 -34 -33
-83 -129 -94 -187 -5 -26 -28 -59 -83 -118 l-77 -82 -140 16 c-298 35 -464 31
-592 -14 -72 -25 -83 -25 -83 2 0 28 95 234 168 363 88 158 287 353 502 495
185 121 386 203 665 271 92 22 314 33 331 16 5 -4 0 -38 -9 -75 -25 -96 -23
-118 16 -154 l32 -30 -38 5 c-97 15 -347 -38 -399 -84 -20 -18 -20 -20 -3 -13
230 82 610 82 770 -2 67 -35 95 -45 95 -35 0 4 -18 16 -40 26 -67 30 -68 41
-5 64 143 54 431 43 699 -25 96 -25 74 -9 -26 19 -252 70 -492 93 -565 55 -32
-16 -33 -16 -23 3 6 10 29 28 52 40 30 15 37 24 29 32 -6 6 -11 25 -11 43 0
39 -30 73 -94 104 -42 20 -70 24 -190 29 l-141 6 72 14 c145 26 366 37 468 22z
m330 -46 c59 -16 135 -53 135 -66 0 -4 -28 7 -62 24 -59 31 -65 32 -187 32
-69 0 -146 -3 -169 -8 -34 -6 -43 -5 -40 5 6 19 49 25 163 27 62 1 123 -5 160
-14z m-673 -15 c150 -15 211 -58 172 -118 -17 -27 -17 -27 3 -9 26 23 33 22
33 -7 0 -30 -56 -81 -119 -109 -38 -17 -68 -21 -166 -21 -109 -1 -125 1 -169
24 -60 30 -84 61 -92 116 -5 39 -3 44 28 67 42 32 79 47 143 57 70 11 70 11
167 0z m673 -21 c58 -11 115 -42 115 -63 0 -21 -76 -48 -165 -56 l-80 -8 95 2
c83 1 102 5 143 29 l48 26 -3 -27 c-8 -74 -231 -105 -395 -54 -68 22 -123 56
-123 78 0 19 7 18 84 -11 83 -31 95 -31 34 0 -55 29 -75 57 -54 74 34 28 179
33 301 10z m1435 -657 c31 -25 40 -89 29 -206 -7 -68 -17 -115 -32 -146 -48
-99 -304 -321 -582 -507 -100 -67 -223 -143 -230 -143 -3 0 -5 35 -5 78 0 132
-37 285 -85 357 l-24 35 17 67 c13 53 25 76 56 105 47 47 133 88 249 122 64
19 117 44 190 90 124 77 214 123 287 147 71 23 103 23 130 1z m-1870 -332
c251 -16 648 -67 712 -91 14 -6 36 -21 47 -33 l21 -23 -30 -124 c-28 -113 -69
-334 -85 -450 l-6 -47 -47 -4 c-27 -3 -89 -24 -139 -47 -51 -23 -118 -46 -150
-52 -86 -15 -396 -12 -573 5 -85 9 -236 23 -335 31 -99 9 -198 18 -221 21
l-41 5 -7 112 c-4 62 -4 145 0 184 l7 72 55 38 c126 86 232 220 261 329 9 32
18 45 42 54 68 29 237 35 489 20z m880 -65 c16 -19 23 -86 12 -104 -7 -9 -20
-12 -44 -7 -32 6 -36 11 -50 61 -8 30 -13 57 -10 60 11 11 80 4 92 -10z
m-2518 -87 l166 -12 -14 -27 c-7 -15 -18 -60 -24 -101 -6 -40 -13 -88 -16
-107 l-5 -34 -67 5 c-87 7 -199 45 -347 118 -123 61 -195 111 -195 135 0 9 17
16 48 20 26 4 52 8 57 10 24 8 243 4 397 -7z m2463 -75 c-16 -66 -35 -269 -40
-436 -3 -100 -8 -198 -11 -217 l-6 -35 -18 23 c-30 36 -45 153 -31 247 6 44
16 123 22 175 18 167 49 270 80 270 7 0 9 -10 4 -27z m79 -143 c52 -318 57
-450 23 -533 -15 -35 -41 -56 -53 -44 -3 3 2 31 12 63 19 67 21 213 4 319 -21
131 -30 240 -24 298 4 32 8 56 10 55 1 -2 14 -73 28 -158z m59 76 c47 -116 60
-219 54 -426 -5 -187 -14 -251 -28 -200 -4 14 -7 69 -8 122 -2 168 -34 487
-57 562 -14 44 16 1 39 -58z m-103 -506 c2 -62 -15 -150 -30 -150 -29 0 -25
381 7 620 5 40 9 -10 14 -175 4 -126 8 -259 9 -295z m-4965 -3625 c20 -82 35
-157 35 -167 0 -25 -111 -98 -348 -231 -301 -167 -417 -217 -584 -251 -149
-31 -324 -14 -417 41 -116 68 -290 284 -382 475 -40 84 -41 89 -25 113 15 23
40 33 125 50 30 7 33 5 26 -11 -14 -36 -25 -89 -25 -129 0 -45 9 -85 19 -85 3
0 46 32 95 71 127 100 120 98 152 39 30 -56 56 -70 84 -45 18 16 18 11 17
-157 -2 -171 5 -218 34 -218 23 0 58 52 85 126 16 43 40 101 54 129 27 54 23
52 148 68 l43 5 53 -112 c48 -102 89 -156 118 -156 5 0 20 12 34 28 23 23 25
33 20 72 -17 130 -19 205 -5 217 8 6 62 33 122 61 l107 51 35 -74 c31 -65 81
-125 105 -125 5 0 22 11 37 24 l28 24 -3 147 -4 146 49 52 c27 29 64 72 83 96
l35 43 8 -83 c4 -46 23 -151 42 -234z"/>
<path d="M6465 9326 c-23 -7 -50 -18 -60 -25 -18 -11 -18 -12 5 -6 14 4 70 9
126 12 107 6 198 -11 224 -42 16 -19 40 -19 40 0 0 8 -17 23 -37 34 -80 40
-218 52 -298 27z"/>
<path d="M6320 9261 c0 -25 68 -78 114 -90 25 -6 85 -11 134 -11 94 0 159 16
202 51 l25 20 -40 -19 c-135 -65 -320 -49 -407 35 -17 16 -28 21 -28 14z"/>
</g>
</svg>
