<?xml version="1.0" standalone="no"?>
<!DOCTYPE svg PUBLIC "-//W3C//DTD SVG 20010904//EN"
 "http://www.w3.org/TR/2001/REC-SVG-20010904/DTD/svg10.dtd">
<svg version="1.0" xmlns="http://www.w3.org/2000/svg"
 width="1066.000000pt" height="1280.000000pt" viewBox="0 0 1066.000000 1280.000000"
 preserveAspectRatio="xMidYMid meet">
<metadata>
Created by potrace 1.15, written by Peter Selinger 2001-2017
</metadata>
<g transform="translate(0.000000,1280.000000) scale(0.100000,-0.100000)"
fill="#000000" stroke="none">
<path d="M3192 12452 c-22 -50 -62 -230 -62 -279 0 -54 -5 -54 -184 -2 -179
52 -200 56 -194 38 2 -7 85 -35 183 -63 l180 -52 -3 -49 c-4 -80 -32 -269 -42
-278 -4 -5 -40 -4 -78 2 -100 16 -240 14 -330 -5 -94 -19 -210 -70 -195 -85 7
-7 23 -4 51 10 82 42 180 62 307 62 106 0 220 -13 233 -26 13 -13 -28 -73 -90
-130 -77 -71 -115 -88 -360 -166 -76 -24 -136 -48 -134 -54 2 -9 29 -29 82
-61 15 -9 7 -10 -31 -2 -74 15 -282 14 -335 -1 -79 -23 -142 -53 -131 -64 6
-6 34 1 78 19 62 26 79 28 198 29 119 0 280 -19 290 -34 2 -4 -33 -13 -78 -20
-188 -29 -317 -68 -317 -95 0 -27 77 -68 209 -114 73 -25 109 -41 86 -38 -22
3 -85 8 -140 11 -78 5 -112 12 -152 32 -63 30 -89 28 -86 -9 1 -24 -2 -27 -50
-33 -115 -16 -295 -101 -269 -127 7 -7 22 -1 46 17 19 14 59 36 88 47 61 23
200 50 209 40 21 -26 178 -251 188 -270 10 -18 9 -23 -3 -28 -18 -7 -61 15
-152 77 -39 27 -73 49 -77 49 -4 0 -2 -12 4 -27 19 -51 78 -302 85 -363 8 -71
-3 -80 -61 -56 -21 9 -38 16 -39 16 0 0 -2 -26 -2 -58 -1 -40 -11 -79 -34
-132 -18 -41 -33 -76 -35 -78 -1 -1 -60 5 -131 13 -361 42 -646 -12 -795 -152
-27 -25 -60 -69 -74 -97 -33 -69 -42 -186 -22 -282 33 -154 103 -247 341 -453
181 -156 286 -264 286 -293 0 -18 -38 -49 -112 -92 -98 -56 -82 -91 90 -198
75 -46 82 -53 66 -65 -19 -14 -34 -12 -147 23 -80 24 -127 30 -127 16 0 -19
66 -110 122 -168 l59 -62 -107 -34 -108 -33 110 -100 c60 -54 110 -102 112
-105 1 -4 -28 -12 -65 -20 -117 -22 -115 -17 -38 -101 l68 -74 -29 -6 c-16 -4
-50 -7 -76 -8 -52 -1 -56 -4 -33 -28 9 -8 34 -43 57 -77 22 -33 55 -76 72 -95
32 -35 117 -81 150 -81 39 0 8 -9 -84 -24 -52 -9 -105 -19 -118 -22 l-24 -5
22 -37 c12 -20 57 -84 100 -142 111 -150 114 -157 116 -275 3 -145 112 -782
169 -990 24 -88 74 -272 110 -410 180 -680 290 -986 411 -1143 l44 -57 -167
-162 -168 -162 43 -19 43 -19 -155 -128 -155 -127 -57 -156 c-31 -87 -74 -201
-96 -256 -44 -114 -47 -158 -18 -263 40 -146 88 -240 398 -794 45 -81 93 -174
107 -207 l25 -61 -26 -87 c-71 -245 -304 -717 -443 -898 -38 -48 -46 -54 -120
-75 -109 -32 -160 -69 -231 -171 -76 -107 -79 -140 -21 -203 21 -23 42 -53 46
-67 8 -28 49 -86 80 -113 32 -29 85 -49 150 -57 33 -4 88 -20 122 -34 234 -99
360 -34 552 286 41 67 120 191 177 273 175 258 301 497 417 790 84 214 98 269
102 409 5 155 26 304 71 486 127 516 375 883 661 979 78 26 87 26 105 -2 8
-12 113 -215 233 -452 120 -236 224 -437 231 -445 12 -12 14 -6 14 45 0 47 3
57 13 47 6 -7 50 -88 97 -180 47 -91 91 -168 98 -170 15 -5 17 45 1 50 -6 2
-52 87 -103 188 -50 101 -96 186 -102 187 -6 2 -14 -14 -18 -37 -3 -22 -10
-40 -16 -40 -13 0 -58 98 -198 430 -157 371 -166 392 -188 411 -30 25 -82 39
-149 39 -197 0 -440 -266 -590 -645 -15 -38 -40 -95 -55 -125 -43 -85 -89
-224 -105 -315 -8 -46 -19 -161 -25 -257 -21 -356 -58 -484 -213 -745 -72
-122 -121 -216 -285 -553 -127 -259 -186 -353 -291 -463 -96 -100 -151 -140
-230 -166 -131 -43 -211 -22 -211 55 0 48 46 130 90 160 19 13 29 24 22 24
-31 0 -88 -34 -142 -86 -72 -69 -122 -85 -178 -57 -48 24 -90 102 -76 141 11
31 62 68 116 82 41 12 46 21 23 40 -27 22 -132 -16 -177 -63 -47 -52 -68 -46
-68 21 0 92 77 198 185 255 31 17 58 22 119 22 l78 0 45 49 c176 195 411 675
478 977 l16 77 -36 88 c-48 117 -103 217 -230 420 -187 297 -227 411 -229 654
-1 139 0 147 26 196 15 28 49 77 77 110 l49 60 -20 33 -21 32 21 22 c12 12 71
58 131 102 61 44 111 83 111 87 0 4 -28 8 -62 10 l-63 3 173 119 c95 65 175
123 178 127 8 14 -16 11 -111 -12 -136 -32 -132 -25 75 125 64 46 122 91 129
100 12 14 4 35 -57 154 -114 223 -247 569 -442 1147 l-97 290 -58 535 c-51
464 -61 537 -77 548 -14 10 -18 27 -18 76 0 85 -34 150 -133 253 l-78 82 105
34 c97 31 122 47 74 47 -40 0 -107 46 -190 133 -49 49 -88 93 -88 98 0 4 34
15 77 25 l76 18 -82 77 -83 76 78 12 c128 21 127 12 13 139 -56 62 -100 114
-98 116 2 2 49 14 104 26 55 12 101 24 103 25 1 1 -28 32 -66 69 -38 36 -83
86 -101 111 l-32 44 72 -25 c84 -28 175 -32 219 -9 17 9 30 17 30 20 0 2 -37
28 -83 58 -88 57 -157 113 -157 128 0 4 55 50 122 100 l122 92 -24 16 c-135
88 -334 255 -455 383 -188 195 -276 348 -276 477 -1 70 10 99 57 151 93 103
254 146 626 170 150 9 180 8 295 -10 70 -11 263 -38 428 -60 472 -63 693 -108
935 -190 171 -57 219 -81 311 -158 167 -140 289 -313 289 -411 0 -16 -9 -39
-19 -52 l-19 -24 -24 55 c-25 56 -52 88 -61 73 -3 -5 1 -38 8 -73 8 -36 14
-71 15 -77 0 -24 -39 -53 -73 -53 -40 0 -50 7 -71 47 -23 45 -73 101 -106 118
-27 14 -27 13 16 -71 24 -47 44 -92 44 -100 0 -25 -27 -27 -67 -4 -30 16 -43
32 -56 70 -25 70 -96 161 -159 203 -72 48 -137 73 -242 92 -77 15 -97 15 -213
1 -70 -9 -146 -18 -168 -21 -103 -11 -247 31 -328 97 l-39 31 -21 -22 c-20
-20 -21 -23 -7 -49 18 -31 100 -75 185 -98 96 -26 336 -30 467 -7 108 19 108
19 170 -2 35 -12 82 -32 106 -44 82 -42 36 -66 -188 -98 -91 -13 -174 -27
-185 -32 -18 -7 -17 -10 15 -30 86 -53 244 -88 340 -75 79 10 150 27 150 36 0
4 4 8 10 8 5 0 7 -6 4 -14 -7 -18 72 -97 120 -120 30 -14 54 -17 105 -14 69 5
126 29 291 123 50 29 105 50 166 64 96 22 189 27 199 11 3 -5 15 -79 26 -165
26 -203 55 -295 116 -370 42 -51 61 -64 178 -120 94 -46 141 -75 167 -103 19
-21 37 -45 40 -52 3 -10 18 -4 53 20 112 77 243 101 359 66 79 -24 83 -33 39
-78 -21 -22 -65 -52 -99 -68 -71 -32 -74 -39 -74 -181 0 -82 8 -106 26 -78 14
23 94 -1 211 -63 65 -34 156 -76 203 -93 76 -27 85 -33 90 -60 22 -104 136
-196 280 -226 31 -6 101 -9 162 -7 l108 4 6 -35 c14 -80 23 -62 24 48 0 95 4
122 21 158 25 53 68 85 115 86 45 1 53 -13 55 -88 0 -33 2 -55 4 -50 2 6 11
36 19 67 32 112 96 149 156 90 36 -36 49 -86 43 -159 -2 -32 -1 -76 4 -98 9
-40 9 -39 22 43 11 66 17 82 31 82 53 0 102 -135 80 -221 -16 -61 -155 -195
-309 -298 -202 -136 -247 -150 -491 -158 -402 -13 -707 79 -925 279 -67 62
-70 63 -125 63 -158 -1 -329 -175 -384 -390 -34 -133 -46 -374 -25 -477 14
-70 86 -219 138 -288 61 -81 201 -221 318 -316 142 -117 232 -245 352 -495
164 -343 231 -738 188 -1114 -18 -157 -6 -807 18 -960 39 -256 111 -472 245
-735 42 -83 49 -105 54 -175 17 -238 170 -773 366 -1274 85 -219 111 -311 113
-408 2 -80 -14 -120 -50 -129 -42 -11 -79 38 -97 126 -3 14 -3 -29 -1 -95 2
-66 6 -127 10 -136 8 -20 -32 -78 -74 -106 -42 -28 -76 -29 -119 -3 -68 42
-78 140 -27 256 14 32 23 60 20 63 -13 13 -62 -27 -82 -69 -18 -35 -23 -61
-23 -123 0 -43 5 -87 10 -97 9 -17 5 -22 -29 -39 -21 -11 -57 -23 -80 -27 -39
-6 -40 -5 -70 41 -53 83 -50 179 6 246 l27 32 -31 -16 c-28 -15 -59 -54 -88
-112 -6 -11 -22 -21 -36 -23 -59 -7 -77 65 -37 147 12 25 58 83 103 130 l80
83 -1 102 c-1 81 -6 117 -28 186 -36 110 -126 283 -256 490 -94 150 -198 346
-188 355 2 2 24 -3 48 -11 29 -11 64 -14 101 -11 68 6 142 41 137 65 -3 15
-22 18 -133 24 -71 3 -145 9 -164 13 -82 16 -225 106 -372 236 -37 33 -72 59
-78 59 -6 0 -14 -13 -17 -30 -4 -16 -10 -30 -13 -30 -14 0 -59 57 -111 138
-29 46 -58 81 -64 79 -6 -2 -12 -21 -14 -41 -2 -23 1 -36 7 -32 12 8 34 -23
101 -142 28 -51 63 -105 76 -120 l23 -27 1 68 c0 37 4 67 9 67 5 0 34 -28 63
-61 65 -75 120 -114 212 -150 l71 -27 113 -189 c197 -328 275 -487 387 -784
l48 -127 -30 -63 c-16 -35 -55 -103 -85 -150 -77 -119 -98 -162 -98 -206 0
-64 52 -113 120 -113 26 0 30 -4 30 -25 0 -42 28 -83 70 -105 65 -33 129 -22
204 35 30 23 35 24 46 9 33 -39 101 -55 153 -35 43 17 92 68 122 128 15 32 45
76 66 98 21 22 45 57 54 79 50 119 17 361 -66 485 -40 60 -110 205 -153 318
-102 268 -169 612 -183 937 l-6 149 -49 65 c-62 81 -107 170 -153 302 -96 277
-161 655 -180 1045 -6 112 -3 152 19 285 35 218 48 362 41 455 -8 92 -38 252
-59 313 -20 56 -10 55 110 -8 127 -67 145 -66 103 5 -57 95 82 81 236 -25 54
-37 58 -23 10 32 -19 23 -32 45 -29 49 17 28 124 -17 194 -81 24 -22 45 -38
48 -36 2 3 -1 21 -8 41 -7 20 -10 39 -7 42 11 11 107 -91 131 -139 19 -38 27
-47 32 -34 3 9 4 25 1 36 -3 11 -1 20 4 20 5 0 9 -5 9 -11 0 -23 113 -296 162
-391 89 -175 200 -304 337 -397 101 -68 572 -301 633 -314 32 -6 60 -8 64 -5
3 4 -4 20 -16 36 -13 17 -20 37 -17 45 5 13 15 11 68 -10 57 -23 71 -25 148
-18 47 3 88 8 90 11 9 8 -31 42 -44 38 -19 -8 -158 22 -260 55 l-87 29 7 -44
c3 -24 3 -44 -2 -44 -4 0 -73 32 -153 71 -80 39 -208 101 -285 136 -150 71
-226 123 -321 225 -118 126 -173 232 -253 486 -49 152 -61 177 -76 152 -13
-22 -41 -7 -106 56 -62 59 -100 76 -85 38 3 -8 3 -20 0 -28 -4 -11 -16 -8 -53
15 -50 31 -136 59 -183 59 -33 0 -34 -3 -7 -41 25 -35 20 -36 -26 -5 -41 28
-96 39 -170 34 -52 -3 -54 -6 -39 -56 11 -38 -20 -26 -97 38 -39 33 -77 60
-83 60 -6 0 -22 28 -35 63 -64 166 -157 373 -188 419 l-35 50 70 68 c123 121
337 247 492 289 79 22 145 27 154 12 4 -5 -11 -31 -32 -58 -21 -26 -51 -66
-67 -87 l-30 -40 61 45 c120 89 289 157 410 166 73 6 164 -3 164 -15 0 -4 -49
-35 -110 -68 l-109 -60 90 4 c202 10 367 -65 459 -208 34 -53 80 -183 80 -227
0 -15 6 -34 14 -42 8 -9 30 -60 50 -114 54 -153 107 -207 200 -207 54 0 89 22
330 204 204 153 328 213 273 131 -7 -11 -24 -37 -37 -59 l-23 -38 23 12 c13 7
78 49 144 93 117 77 311 178 369 193 l29 7 -21 -41 c-20 -39 -20 -40 -1 -35
11 3 17 9 15 14 -3 4 16 30 42 56 l47 48 -27 3 c-15 2 -51 -4 -80 -13 -83 -27
-339 -163 -416 -221 -39 -29 -71 -51 -71 -48 0 3 21 27 47 55 25 27 43 52 39
56 -21 21 -268 -94 -390 -182 -89 -63 -284 -175 -307 -175 -8 0 -27 12 -41 28
-38 40 -135 251 -143 313 -34 246 -225 419 -483 438 l-83 6 92 49 c86 46 91
50 68 59 -13 6 -78 10 -144 11 -139 0 -224 -19 -365 -85 l-85 -40 70 72 c42
42 62 69 50 66 -11 -3 -69 -17 -130 -32 -264 -62 -449 -151 -634 -304 l-63
-53 -77 74 c-42 41 -121 113 -177 161 -267 229 -418 438 -445 617 -21 136 8
383 60 520 25 67 70 124 119 151 21 11 55 31 77 44 27 17 55 25 86 25 40 0 53
-6 108 -50 133 -107 311 -193 501 -242 95 -25 142 -31 268 -35 176 -7 256 4
415 52 120 37 195 76 407 209 l146 92 -58 -86 c-38 -57 -70 -92 -95 -106 -50
-28 -91 -104 -75 -140 24 -52 112 -23 230 76 39 33 75 60 81 60 16 0 28 -30
34 -87 l6 -51 -53 0 c-29 0 -66 -6 -83 -15 -40 -21 -88 -77 -103 -121 -34
-104 83 -101 252 7 l54 34 23 -47 c61 -129 237 -261 378 -285 150 -25 304 132
322 326 13 146 -20 283 -93 392 -74 110 -161 148 -262 113 -89 -30 -174 -15
-174 32 0 22 41 41 67 31 62 -23 103 4 103 69 0 34 -36 82 -63 82 -7 0 -42
-16 -77 -35 -36 -19 -79 -35 -95 -35 -34 0 -106 45 -171 106 -54 50 -444 481
-444 489 0 4 11 21 25 37 56 66 68 106 68 213 0 150 -32 263 -135 484 -27 58
-48 118 -48 137 0 18 -4 36 -10 39 -5 3 -34 -2 -65 -10 -76 -23 -156 -23 -188
-2 -34 22 -49 78 -45 170 l3 72 75 12 c107 17 632 78 925 108 399 40 640 55
945 62 157 3 295 10 308 14 12 5 22 17 22 28 0 29 -54 69 -175 127 l-110 54
-410 -40 c-225 -21 -653 -61 -950 -89 -297 -28 -566 -53 -597 -57 -58 -6 -58
-6 -58 21 0 19 -16 43 -58 85 -141 140 -473 309 -651 329 l-56 7 58 29 c31 16
57 33 57 37 0 4 -25 35 -55 69 -30 34 -55 64 -55 68 0 3 9 12 20 19 16 10 32
7 95 -18 104 -41 321 -151 439 -222 65 -40 102 -56 108 -50 18 18 -342 218
-524 292 -32 13 -58 27 -58 30 0 4 11 13 25 20 14 7 25 16 25 19 0 3 -27 26
-60 51 -33 24 -60 47 -60 50 0 4 29 2 65 -4 36 -5 68 -6 71 -3 4 4 -1 18 -10
31 -9 14 -16 29 -16 34 0 11 117 -15 300 -68 167 -48 210 -56 210 -41 0 6 -6
13 -12 15 -106 31 -359 99 -413 111 -38 8 -79 17 -91 20 -12 3 -31 25 -46 52
-21 39 -30 81 -47 221 l-22 173 40 82 c22 45 63 113 91 151 l52 68 201 -5
c164 -3 217 -8 281 -26 97 -26 210 -80 265 -127 22 -20 46 -32 51 -29 16 10
-4 30 -73 77 -132 90 -280 128 -523 137 l-171 6 94 110 95 110 66 -4 c79 -4
194 -32 251 -60 48 -25 51 -25 51 -7 0 31 -208 95 -308 96 l-43 0 31 45 c39
56 76 140 86 190 l7 38 -129 -7 c-324 -17 -470 -45 -663 -129 l-93 -40 -242
97 c-391 156 -515 192 -646 184 l-68 -4 -58 101 c-115 197 -149 241 -248 315
-50 38 -133 90 -184 115 -99 49 -262 115 -285 115 -8 0 -24 -22 -35 -48z m187
-52 c173 -87 450 -357 514 -500 11 -25 23 -52 27 -60 4 -8 22 -16 41 -18 329
-26 653 -126 855 -264 l81 -56 119 50 c270 113 377 138 585 138 l129 0 0 -25
c0 -34 -22 -84 -59 -139 -28 -40 -35 -45 -83 -51 -96 -12 -235 -45 -340 -80
-56 -19 -108 -35 -113 -35 -6 0 -23 21 -39 47 l-28 47 34 28 c62 53 122 92
178 115 58 24 45 29 -30 12 -69 -16 -167 -68 -201 -107 -26 -29 -30 -41 -26
-69 3 -18 16 -47 27 -64 12 -16 20 -32 18 -34 -2 -3 -60 -27 -129 -55 -126
-52 -148 -64 -136 -76 3 -4 68 19 144 50 l138 57 20 -25 c27 -34 59 -95 53
-101 -2 -2 -39 -10 -81 -16 -53 -8 -77 -16 -77 -25 0 -17 4 -17 100 1 47 8 79
10 85 4 5 -5 10 -30 10 -54 0 -39 2 -43 13 -28 7 10 11 36 10 58 l-3 40 90 12
c50 7 93 11 98 10 4 -1 -9 -27 -29 -56 -69 -102 -118 -219 -122 -293 -5 -77
18 -200 54 -296 13 -36 23 -67 21 -69 -2 -1 -51 4 -108 12 -57 8 -176 21 -264
30 -88 8 -177 17 -197 19 -28 3 -38 0 -38 -10 0 -8 6 -14 13 -14 25 0 316 -30
432 -45 158 -20 185 -26 185 -36 0 -5 -29 -24 -65 -41 -36 -18 -65 -35 -65
-39 0 -4 22 -24 50 -45 49 -37 56 -60 16 -51 -11 2 -76 21 -143 41 -213 62
-503 113 -503 88 0 -6 15 -13 33 -16 255 -42 359 -65 509 -112 63 -20 77 -28
69 -38 -9 -10 -1 -30 29 -80 22 -36 40 -69 40 -73 0 -5 -52 -53 -116 -107 -63
-55 -129 -120 -146 -145 -74 -110 -180 -187 -440 -317 -223 -112 -310 -137
-513 -149 l-110 -7 -18 32 c-40 67 -143 184 -221 249 -207 175 -428 278 -746
351 -215 49 -319 69 -488 90 -268 33 -387 51 -395 60 -5 4 -1 23 9 41 11 21
18 56 18 92 1 45 4 56 15 52 41 -16 201 -37 227 -30 l29 8 -28 8 c-50 14 -116
71 -142 124 -21 44 -45 147 -58 253 -4 32 -3 33 27 26 17 -3 89 -28 159 -55
223 -86 313 -97 403 -51 l39 20 -125 3 c-118 4 -129 6 -192 37 -86 42 -142
105 -251 279 -33 52 -20 64 26 23 19 -16 51 -37 71 -45 56 -24 162 -19 257 11
81 25 81 25 158 9 284 -61 716 -201 881 -285 35 -18 50 -18 50 1 0 8 -151 74
-280 122 -145 54 -370 122 -520 157 -74 18 -142 34 -150 37 -10 3 2 14 33 30
27 13 47 26 45 28 -1 2 -28 -1 -58 -7 -30 -5 -91 -8 -135 -6 -72 4 -92 10
-207 64 -70 32 -127 62 -128 65 0 4 8 9 18 12 9 2 57 17 107 31 49 15 137 35
195 46 l105 19 104 -35 c267 -89 636 -270 868 -426 40 -26 77 -48 83 -48 26 0
3 23 -72 73 -203 134 -519 295 -748 382 -69 26 -134 50 -145 54 -16 7 -9 11
37 25 51 14 98 51 98 76 0 4 -24 3 -52 -1 -47 -8 -264 4 -275 15 -2 2 29 14
69 26 103 31 243 101 312 157 51 42 92 90 131 158 10 17 17 16 118 -15 58 -18
104 -36 102 -40 -3 -4 13 -10 34 -13 21 -2 104 -32 185 -66 154 -64 170 -69
164 -48 -3 6 -66 37 -141 67 -75 30 -137 57 -137 60 0 4 15 11 34 18 19 7 46
25 61 40 27 26 27 29 21 105 -6 76 -6 78 14 67 70 -37 250 -252 250 -298 0 -7
6 -12 13 -9 17 6 11 30 -25 90 -46 79 -105 144 -188 210 l-75 60 -16 91 c-16
89 -17 90 -18 36 -3 -107 3 -105 -124 -45 -62 29 -142 63 -179 76 -47 16 -68
29 -68 40 0 49 42 255 60 288 19 39 20 39 60 30 23 -5 67 -23 99 -39z m-66
-381 c92 -36 207 -101 207 -116 0 -80 -71 -243 -106 -243 -9 0 -75 19 -146 41
l-131 42 7 154 c4 85 10 161 13 168 4 11 14 10 54 -5 27 -11 73 -29 102 -41z
m2291 -581 c-6 -9 -137 -177 -168 -215 -3 -4 -229 -33 -232 -30 -1 1 -16 33
-32 70 l-31 68 24 9 c65 25 236 74 313 90 107 23 136 24 126 8z m-3054 -477
l35 -8 -48 -8 c-58 -9 -120 -2 -167 20 -34 15 -33 16 55 10 50 -4 106 -10 125
-14z m2892 -1085 c191 -37 401 -143 497 -252 82 -94 53 -121 -150 -137 l-142
-10 -24 27 c-31 37 -29 55 7 63 36 7 37 14 8 47 -35 38 -63 42 -93 12 -28 -28
-32 -64 -10 -106 14 -28 14 -28 -17 -39 -17 -6 -38 -11 -47 -11 -9 0 -59 38
-111 84 -86 77 -97 84 -115 72 -69 -45 -60 -46 -120 14 l-55 56 30 56 c37 68
88 115 132 122 112 18 123 19 210 2z m-337 -256 c41 -42 47 -52 35 -60 -11 -7
-27 2 -64 39 -27 27 -46 54 -42 60 11 18 19 14 71 -39z m2830 14 c16 -6 45
-54 45 -74 0 -5 -13 -10 -30 -10 -32 0 -1777 -166 -1847 -175 l-43 -6 0 36 c0
19 6 38 13 40 62 22 1399 167 1732 188 103 7 114 7 130 1z m-2880 -54 c27 -27
43 -50 35 -50 -15 0 -100 78 -100 92 0 17 18 6 65 -42z m-45 -26 c43 -44 44
-46 25 -60 -18 -13 -23 -10 -67 33 -44 43 -47 49 -31 60 24 18 24 18 73 -33z
m390 -85 c0 -4 -19 -9 -42 -13 -40 -6 -44 -5 -90 41 -26 26 -48 50 -48 53 0 4
15 14 33 22 l32 16 57 -56 c32 -31 57 -60 58 -63z m-456 42 l48 -49 -43 -25
c-35 -21 -84 -32 -246 -57 -111 -17 -217 -30 -235 -28 l-33 4 55 25 c30 14 93
38 140 53 47 15 126 49 175 76 50 27 90 49 90 49 1 1 22 -21 49 -48z m291 -21
c46 -47 48 -50 24 -50 -16 0 -40 15 -68 44 -39 40 -42 51 -11 55 3 1 28 -21
55 -49z m-70 -20 c22 -22 33 -40 25 -40 -15 0 -80 58 -80 72 0 17 17 7 55 -32z
m-58 -12 c30 -28 29 -38 -5 -38 -36 0 -67 31 -50 48 17 17 29 15 55 -10z m-82
-28 c3 -5 1 -10 -4 -10 -6 0 -11 5 -11 10 0 6 2 10 4 10 3 0 8 -4 11 -10z
m935 -32 c0 -50 -10 -57 -90 -63 -41 -3 -87 -8 -102 -10 -23 -4 -32 2 -58 40
-16 24 -30 46 -30 49 0 5 51 8 223 14 l57 2 0 -32z m-331 -24 c26 -44 27 -44
-7 -44 -16 0 -47 14 -72 32 -42 32 -43 33 -19 39 56 16 76 10 98 -27z m-116
-56 c-37 -14 -60 -7 -97 31 l-39 40 39 3 c33 3 45 -2 77 -32 32 -30 35 -35 20
-42z m-124 -6 c-14 -3 -33 8 -55 29 -30 29 -32 34 -17 40 13 5 29 -4 56 -30
35 -33 37 -36 16 -39z m-94 28 c24 -25 33 -40 24 -40 -8 0 -33 18 -54 40 -24
25 -33 40 -24 40 8 0 33 -18 54 -40z m-66 -4 l32 -33 -27 -7 c-22 -6 -33 -1
-60 25 -41 40 -42 49 -6 49 19 0 39 -11 61 -34z m-100 -10 l32 -33 -52 -6
c-51 -6 -54 -5 -81 26 -15 17 -27 35 -28 40 0 4 22 7 48 7 41 0 53 -5 81 -34z
m-160 -10 l33 -34 -43 -6 c-68 -9 -490 -38 -493 -34 -5 5 -17 58 -14 59 4 1
439 46 464 48 11 0 35 -14 53 -33z m1071 -52 c23 -53 24 -69 9 -113 -14 -41
-26 -39 -38 7 -14 48 -14 152 -1 152 6 0 20 -21 30 -46z m-1690 1 c0 -34 -1
-35 -37 -35 -21 0 -82 -3 -135 -7 l-98 -6 0 26 c0 23 4 26 53 32 28 3 81 10
117 14 106 14 100 15 100 -24z m1575 29 c15 -4 24 -19 33 -57 27 -115 117
-216 212 -236 49 -11 131 -1 171 20 14 7 16 2 15 -30 0 -28 9 -52 35 -93 100
-150 108 -215 42 -355 -35 -73 -121 -160 -140 -141 -7 7 -116 154 -242 327
-229 312 -230 314 -215 342 7 15 14 36 14 46 0 22 -52 114 -74 132 -21 18 -20
38 2 44 25 7 124 8 147 1z m-218 -56 c35 -38 53 -69 53 -94 0 -12 -6 -15 -27
-11 -16 3 -37 -2 -51 -11 -23 -15 -25 -13 -98 59 -41 40 -74 77 -74 81 0 5 37
8 83 8 81 0 84 -1 114 -32z m-87 -158 c-12 -7 -34 10 -100 75 -69 69 -82 87
-70 95 12 7 34 -10 100 -75 69 -69 82 -87 70 -95z m-340 160 c0 -5 -4 -10 -10
-10 -5 0 -10 5 -10 10 0 6 5 10 10 10 6 0 10 -4 10 -10z m-195 -32 c15 -18 41
-48 57 -67 l30 -34 59 29 60 28 93 -93 94 -94 -14 -41 -15 -40 326 -326 c179
-179 325 -329 325 -334 0 -14 -30 -35 -89 -62 -63 -29 -221 -55 -336 -55 -119
-1 -175 21 -302 117 -23 18 -58 38 -78 44 l-37 12 29 18 c45 28 102 89 109
116 4 14 4 48 2 75 -13 131 -180 214 -362 180 -41 -8 -69 -20 -88 -38 -26 -25
-28 -25 -28 -7 0 27 -35 58 -160 141 -203 136 -256 189 -285 288 -18 65 -20
125 -2 126 6 0 131 11 277 23 146 13 275 24 287 25 13 1 32 -12 48 -31z m144
18 c18 -22 -4 -29 -44 -15 -19 7 -35 17 -35 21 0 14 67 9 79 -6z m270 -90 c46
-46 79 -86 74 -89 -5 -3 -50 34 -99 84 -48 49 -82 89 -74 89 9 0 53 -38 99
-84z m-45 -25 c86 -86 88 -89 66 -101 -21 -11 -29 -5 -111 76 -80 80 -88 90
-72 101 9 7 19 13 23 13 3 0 45 -40 94 -89z m-2028 52 c7 -10 14 -21 14 -25 0
-10 -142 -10 -167 -1 -13 5 2 12 52 24 89 22 85 22 101 2z m1268 -414 c38 -27
87 -55 109 -61 21 -6 52 -24 67 -38 28 -26 28 -28 23 -111 -6 -114 -9 -120
-36 -76 -27 45 -51 62 -97 72 -94 20 -222 119 -265 205 -14 28 -25 74 -30 124
l-7 79 84 -73 c45 -40 114 -94 152 -121z m573 -112 c39 -20 60 -50 69 -96 l7
-33 -34 8 c-19 5 -86 9 -149 8 -89 0 -128 -5 -173 -21 l-59 -20 6 21 c3 11 6
33 6 48 0 35 48 83 97 96 56 16 191 9 230 -11z m1268 -144 c9 -126 -3 -177
-54 -235 l-37 -41 -52 62 -52 63 39 46 c51 61 105 147 122 194 18 53 26 32 34
-89z m-1245 -243 c20 -6 56 -25 80 -42 122 -94 125 -95 217 -108 104 -15 273
-8 358 15 33 9 91 32 129 50 l69 34 21 -27 c11 -15 42 -50 69 -79 41 -44 47
-54 38 -71 -31 -57 -252 -121 -446 -129 -162 -7 -202 5 -395 116 -154 88 -182
101 -214 101 -22 0 -24 5 -29 73 -2 39 -3 76 0 81 5 8 36 4 103 -14z m1060
-290 l32 -40 -44 -19 c-55 -23 -100 -75 -123 -137 -25 -71 -28 -76 -73 -108
-27 -19 -57 -30 -90 -34 -44 -4 -59 1 -131 38 -107 56 -171 117 -171 163 l0
34 108 6 c125 6 244 38 360 95 42 22 82 39 89 40 6 1 26 -16 43 -38z m719
-610 c5 -19 12 -93 15 -165 7 -156 27 -256 60 -306 23 -34 60 -58 72 -46 3 2
-4 36 -15 75 -31 111 -36 175 -16 192 14 11 24 11 71 -4 67 -21 90 -45 110
-113 35 -119 -18 -221 -124 -244 -20 -4 -46 -10 -57 -14 -57 -18 -144 105
-145 205 0 68 -17 130 -65 245 -35 81 -38 98 -38 175 0 47 6 98 12 113 l11 28
50 -53 c27 -29 54 -69 59 -88z m470 -35 c35 -30 73 -106 92 -185 21 -88 16
-244 -10 -312 -19 -50 -67 -108 -90 -108 -4 0 8 30 26 68 58 120 70 246 32
347 -22 58 -105 159 -153 184 -35 19 -24 31 29 31 32 0 51 -7 74 -25z m-163
-86 c52 -32 111 -106 130 -161 30 -91 5 -211 -60 -293 -16 -19 -16 -19 -9 10
5 17 8 77 8 135 0 95 -3 111 -28 162 -34 70 -86 118 -127 118 -33 0 -35 3 -20
31 14 26 63 25 106 -2z"/>
<path d="M3705 11359 c-55 -4 -112 -12 -126 -17 -25 -10 -25 -11 -18 -86 10
-101 43 -161 136 -242 86 -75 103 -79 257 -70 88 5 121 3 155 -9 24 -8 45 -15
47 -15 18 0 -51 306 -78 349 -21 35 -79 69 -143 86 -63 16 -76 16 -230 4z
m188 -58 c4 -4 -6 -14 -23 -21 -67 -28 -112 -119 -93 -191 12 -45 4 -49 -39
-21 -56 37 -98 114 -98 180 0 42 -3 41 105 66 29 7 138 -3 148 -13z m104 -122
c-7 -57 -24 -92 -39 -83 -12 7 -5 74 12 118 16 43 33 21 27 -35z m81 -138 c-2
-20 -12 -27 -50 -37 -27 -7 -48 -10 -48 -8 0 3 9 15 20 27 12 12 28 43 38 69
l17 48 13 -37 c7 -21 11 -49 10 -62z"/>
<path d="M4825 11095 c-113 -31 -133 -40 -178 -84 -57 -54 -81 -95 -73 -125 7
-27 89 -77 176 -107 49 -18 88 -23 160 -24 94 0 97 1 138 33 59 47 67 65 52
119 -16 55 -83 124 -154 157 -50 23 -101 36 -121 31z m-50 -102 c-13 -36 -27
-114 -21 -128 15 -41 -49 -18 -99 35 l-30 32 30 24 c26 21 93 51 119 53 4 1 5
-7 1 -16z m153 -13 c7 -42 -8 -90 -26 -90 -45 0 -57 65 -20 100 27 24 42 21
46 -10z m112 -79 c0 -84 -67 -146 -120 -111 -12 8 -10 14 17 35 26 21 34 36
39 75 4 33 12 50 23 53 32 7 41 -5 41 -52z"/>
<path d="M4279 10871 c-25 -26 -29 -37 -29 -86 0 -42 5 -64 20 -82 24 -31 26
-92 5 -132 -27 -54 -143 -148 -238 -195 -90 -45 -223 -86 -277 -86 -15 0 -33
-7 -40 -15 -18 -22 30 -37 94 -29 161 19 320 83 408 166 l57 53 17 -45 c52
-139 212 -330 276 -330 15 0 4 17 -46 71 -109 120 -156 234 -156 377 0 88 7
102 66 143 27 18 52 46 60 66 13 31 13 38 -3 71 -22 44 -89 82 -146 82 -29 0
-46 -7 -68 -29z"/>
<path d="M4895 9176 c-49 -21 -59 -39 -41 -75 18 -34 50 -55 71 -47 8 3 19 23
26 45 22 73 55 54 168 -92 166 -215 225 -248 276 -154 18 33 18 36 2 61 -10
14 -24 26 -32 26 -17 0 -35 -30 -35 -60 0 -29 -13 -18 -57 47 -51 77 -189 220
-234 244 -44 22 -101 24 -144 5z"/>
<path d="M8524 5755 c-66 -14 -152 -54 -173 -79 -9 -11 3 -8 42 9 162 75 415
73 456 -3 10 -18 7 -20 -26 -20 -38 0 -78 -32 -70 -56 2 -6 59 -36 128 -66 93
-41 136 -66 173 -102 63 -61 58 -74 -27 -69 -62 3 -67 1 -67 -17 0 -28 10 -33
115 -59 214 -55 300 -136 481 -459 76 -138 80 -127 -60 -206 -131 -74 -213
-134 -247 -180 -37 -52 -37 -63 4 -78 25 -8 29 -13 17 -19 -26 -15 -340 -82
-350 -76 -19 12 -10 -8 20 -42 17 -18 30 -38 30 -43 0 -4 -51 -6 -115 -3 -125
6 -127 6 -105 -51 6 -16 6 -27 0 -31 -5 -3 -49 8 -97 24 -49 17 -114 33 -146
37 l-57 7 0 -32 c0 -28 -3 -31 -32 -31 -18 1 -60 7 -93 15 -81 20 -128 19
-147 -2 -9 -10 -30 -46 -47 -80 -36 -73 -36 -73 -166 -43 -47 11 -91 20 -97
20 -6 0 1 -15 16 -34 14 -19 26 -37 26 -40 0 -7 -125 69 -154 93 -36 30 -9
-40 29 -76 41 -39 62 -43 39 -8 -30 46 -9 36 77 -35 46 -39 87 -70 92 -70 13
0 7 15 -18 50 -28 37 -32 60 -12 60 8 0 39 -5 70 -11 l57 -12 58 59 c31 33 63
71 69 87 13 27 27 34 37 18 4 -5 41 -12 84 -15 42 -4 102 -9 132 -12 l55 -6
-19 21 c-33 37 -33 36 209 -18 139 -32 166 -27 100 18 -19 13 -35 29 -35 36 0
17 131 29 223 20 l72 -7 -28 30 -28 29 165 69 166 68 -35 36 -35 36 117 68
c65 37 132 77 149 89 18 12 46 30 63 39 17 10 34 25 38 34 12 31 -18 138 -67
242 -112 236 -207 355 -355 447 -86 54 -86 58 17 75 38 7 68 15 68 18 0 7
-357 135 -470 170 l-55 16 63 10 c47 7 62 13 62 25 0 48 -70 94 -179 117 -80
17 -127 17 -207 -1z"/>
</g>
</svg>
