<?xml version="1.0" standalone="no"?>
<!DOCTYPE svg PUBLIC "-//W3C//DTD SVG 20010904//EN"
 "http://www.w3.org/TR/2001/REC-SVG-20010904/DTD/svg10.dtd">
<svg version="1.0" xmlns="http://www.w3.org/2000/svg"
 width="1105.000000pt" height="1280.000000pt" viewBox="0 0 1105.000000 1280.000000"
 preserveAspectRatio="xMidYMid meet">
<metadata>
Created by potrace 1.15, written by Peter Selinger 2001-2017
</metadata>
<g transform="translate(0.000000,1280.000000) scale(0.100000,-0.100000)"
fill="#000000" stroke="none">
<path d="M9230 10739 c-11 -26 -11 -33 3 -46 18 -18 47 -11 47 13 0 9 -8 27
-19 40 l-19 24 -12 -31z"/>
<path d="M6783 10605 c-32 -33 -90 -89 -128 -125 -37 -36 -76 -84 -87 -107
-10 -23 -32 -52 -48 -63 -17 -12 -39 -39 -50 -61 -11 -21 -30 -45 -41 -52 -11
-6 -29 -29 -40 -50 -11 -20 -29 -43 -40 -50 -11 -6 -30 -28 -42 -47 -12 -19
-38 -51 -59 -71 -21 -19 -38 -38 -38 -42 0 -8 -180 -187 -188 -187 -2 0 -17
-12 -32 -27 -58 -57 -87 -74 -112 -64 -13 5 -43 15 -68 22 -25 7 -49 16 -54
21 -6 4 -23 8 -38 8 -15 0 -51 9 -80 20 -29 11 -66 20 -82 20 -16 0 -45 4 -65
9 -126 33 -239 52 -336 56 -287 12 -416 13 -465 4 -30 -6 -75 -12 -100 -15
-121 -11 -320 -36 -365 -44 -27 -5 -84 -15 -125 -20 -41 -6 -86 -15 -100 -20
-14 -5 -38 -11 -55 -14 -35 -5 -133 -39 -161 -55 -10 -6 -57 -29 -104 -51 -47
-23 -116 -58 -155 -80 -94 -52 -126 -58 -164 -31 -16 12 -34 21 -41 21 -11 0
-160 109 -230 169 -64 55 -142 116 -171 134 -16 11 -29 22 -29 27 0 4 -19 20
-42 35 -24 16 -55 41 -71 56 -78 78 -383 269 -407 254 -11 -7 -50 -88 -50
-103 0 -7 -11 -17 -25 -22 -38 -14 -38 -14 5 -330 6 -41 12 -102 15 -135 3
-33 9 -76 15 -95 5 -19 10 -57 10 -85 0 -27 5 -68 11 -90 5 -22 11 -58 13 -80
5 -52 45 -278 57 -330 24 -95 35 -131 47 -152 6 -12 9 -28 6 -36 -3 -8 7 -63
21 -123 68 -282 111 -410 193 -566 26 -51 54 -109 62 -128 8 -19 29 -58 47
-87 37 -59 42 -79 15 -68 -20 9 -80 23 -135 32 -21 3 -40 10 -43 14 -3 5 -16
9 -29 9 -13 0 -39 6 -57 14 -18 8 -53 20 -78 27 -25 7 -54 18 -65 25 -11 6
-33 15 -50 18 -16 4 -52 16 -80 26 -75 29 -211 75 -294 101 l-74 23 -18 -23
c-26 -31 -24 -48 9 -80 28 -28 163 -86 196 -83 10 0 34 -10 55 -23 20 -13 59
-28 86 -34 97 -20 110 -24 129 -40 14 -12 20 -13 23 -3 6 16 23 15 23 -2 0
-18 -27 -24 -86 -19 -77 6 -269 -65 -282 -104 -6 -21 44 -15 96 11 44 22 56
23 182 20 176 -4 229 -9 265 -22 17 -6 66 -18 110 -27 44 -10 108 -30 141 -46
34 -16 73 -29 88 -29 16 0 41 -13 62 -33 l36 -33 -116 -57 c-64 -31 -122 -57
-130 -57 -8 0 -18 -5 -22 -11 -3 -6 -21 -18 -38 -26 -60 -28 -87 -44 -111 -69
-13 -13 -33 -24 -44 -24 -10 0 -56 -30 -102 -66 -45 -36 -103 -78 -128 -92
-25 -14 -59 -35 -76 -47 -16 -13 -58 -37 -92 -55 -43 -21 -60 -36 -56 -46 7
-18 17 -18 33 1 7 8 19 15 26 15 17 0 89 44 121 72 12 11 28 18 35 15 7 -2 22
3 33 13 11 10 36 26 55 37 19 10 53 30 75 44 59 37 206 101 237 104 15 1 33 7
40 12 7 6 22 13 33 16 42 12 91 34 125 55 19 12 46 22 60 22 14 1 36 7 50 15
49 28 63 20 206 -123 78 -77 171 -159 212 -186 82 -54 84 -61 38 -135 -74
-116 -155 -303 -169 -387 -3 -16 -20 -76 -37 -134 -19 -60 -32 -123 -31 -147
1 -23 -5 -57 -13 -77 -27 -66 -63 -408 -71 -686 -1 -30 -7 -65 -13 -77 -9 -16
-9 -28 -1 -46 9 -20 7 -38 -10 -90 -11 -36 -18 -72 -15 -81 3 -8 -3 -48 -14
-88 -11 -40 -25 -122 -31 -183 -18 -168 -29 -255 -41 -310 -11 -52 -6 -739 6
-840 3 -27 6 -64 5 -81 0 -19 10 -47 26 -70 14 -22 27 -50 28 -64 6 -69 71
-125 192 -165 92 -30 239 -47 338 -38 111 9 217 73 329 197 65 72 90 130 106
243 4 35 15 86 23 115 41 138 49 201 45 351 -3 169 -15 151 102 162 36 3 110
10 165 15 91 9 282 -1 307 -16 4 -3 83 -7 175 -9 92 -2 190 -9 218 -15 54 -12
360 -6 479 9 37 5 82 7 100 5 17 -3 66 1 108 9 43 8 83 10 90 6 7 -5 33 -9 57
-9 l43 0 -32 -30 c-27 -25 -31 -35 -25 -58 9 -33 15 -117 19 -292 3 -124 18
-214 45 -275 5 -11 17 -38 27 -60 28 -66 128 -155 224 -201 76 -37 123 -52
295 -94 69 -18 225 -21 315 -8 92 14 152 54 211 142 37 56 39 62 34 120 -14
175 -15 215 -6 261 26 138 33 472 14 655 -25 231 -34 307 -42 355 -5 28 -9 59
-10 70 0 11 -5 47 -10 80 -5 33 -14 97 -20 143 -6 46 -17 107 -25 135 -8 29
-22 90 -31 137 -24 120 -24 121 -53 230 -31 115 -163 473 -217 585 -13 28 -33
73 -45 100 -39 90 -71 160 -81 177 -5 10 -9 24 -9 32 0 12 -41 76 -164 255
-28 40 -58 84 -67 97 -23 36 -109 124 -120 124 -18 0 -9 22 24 58 146 161 165
189 232 327 47 100 58 123 69 159 6 17 8 17 31 -8 21 -23 29 -25 72 -19 26 3
50 9 53 13 3 4 28 10 55 13 90 10 239 40 272 53 17 8 44 14 60 14 15 0 44 5
63 10 42 13 130 30 185 36 21 2 66 13 100 24 33 10 69 18 80 17 12 -1 21 5 23
17 4 18 -1 19 -59 13 -34 -4 -70 -14 -79 -22 -9 -8 -20 -11 -26 -6 -5 5 -34 5
-64 1 -30 -5 -78 -9 -107 -9 -28 -1 -55 -6 -59 -12 -3 -6 -18 -9 -33 -6 -14 3
-66 1 -116 -3 -49 -5 -133 -12 -185 -15 l-95 -7 20 22 c11 12 28 26 37 31 28
15 207 79 268 96 30 8 59 19 65 24 5 5 24 9 43 9 18 0 42 5 53 11 37 20 274
80 393 101 57 10 106 32 106 48 0 18 -53 21 -77 4 -17 -10 -36 -14 -55 -10
-32 6 -187 -18 -218 -34 -10 -5 -37 -10 -59 -10 -22 0 -43 -4 -46 -10 -3 -5
-22 -10 -41 -10 -51 0 -258 -54 -283 -74 -8 -6 -22 -10 -32 -8 -10 2 -30 -5
-44 -14 -18 -12 -29 -14 -36 -7 -13 13 99 132 146 156 17 9 46 31 65 50 19 18
54 48 78 65 24 17 60 44 80 62 20 17 64 54 97 82 33 27 97 75 143 105 46 30
82 59 79 66 -12 38 -109 27 -122 -14 -4 -11 -24 -28 -46 -39 -21 -11 -39 -25
-39 -30 0 -5 -8 -11 -17 -14 -10 -3 -42 -29 -71 -56 -30 -28 -58 -50 -64 -50
-10 0 -99 -66 -155 -116 -88 -78 -126 -108 -161 -127 -20 -11 -43 -28 -50 -38
-7 -11 -19 -19 -27 -19 -8 0 -19 -9 -25 -20 -6 -11 -25 -27 -42 -36 -29 -15
-31 -15 -23 2 4 11 11 35 15 54 5 19 13 49 18 65 11 32 52 238 83 418 10 59
21 111 24 117 5 8 22 88 44 210 4 25 16 77 25 115 17 73 43 186 70 315 9 41
18 100 21 130 7 89 22 202 35 250 12 45 25 141 35 255 3 33 10 72 16 87 9 22
6 41 -16 103 -31 85 -30 106 6 330 10 66 19 129 19 141 0 37 -23 56 -68 56
-41 -1 -42 0 -42 31 0 44 -9 54 -51 59 -33 3 -41 -2 -96 -57z m123 -172 c-3
-38 -8 -95 -11 -128 -3 -33 -6 -71 -6 -85 -1 -43 -2 -194 -2 -225 0 -16 1 -43
3 -60 6 -76 -14 -271 -44 -440 -8 -44 -20 -120 -26 -170 -7 -49 -19 -115 -27
-145 -9 -30 -17 -66 -18 -80 -1 -14 -8 -46 -14 -72 -6 -27 -16 -69 -22 -95 -6
-27 -22 -93 -35 -148 -23 -94 -44 -206 -65 -354 -5 -36 -13 -78 -19 -95 -5
-17 -17 -65 -25 -106 -9 -41 -19 -84 -21 -95 -3 -11 -9 -49 -14 -85 -4 -36
-15 -85 -24 -110 -9 -25 -23 -67 -31 -95 -17 -63 -40 -127 -54 -151 -5 -11
-31 -62 -56 -114 -56 -115 -64 -130 -156 -260 -35 -49 -177 -211 -218 -248
-14 -13 -50 -39 -79 -58 -30 -19 -66 -46 -80 -59 -15 -14 -31 -25 -36 -25 -4
0 -40 -20 -80 -44 -79 -49 -163 -86 -276 -122 -41 -14 -84 -29 -95 -34 -11 -5
-33 -11 -50 -13 -16 -3 -48 -10 -70 -17 -22 -6 -66 -13 -98 -16 -32 -2 -77
-11 -100 -19 -24 -9 -101 -18 -177 -21 -178 -9 -298 7 -515 69 -58 17 -215 76
-230 87 -5 4 -50 25 -100 46 -49 20 -94 40 -100 44 -5 4 -58 33 -118 64 -174
92 -350 216 -443 314 -17 17 -40 32 -53 32 -27 0 -131 95 -131 120 0 9 -9 25
-19 34 -11 10 -39 49 -63 88 -23 39 -58 84 -76 101 -18 17 -50 67 -71 112 -21
44 -59 113 -84 152 -26 40 -58 96 -72 125 -15 29 -35 69 -45 89 -36 69 -99
255 -110 324 -5 39 -16 88 -24 110 -7 22 -19 67 -26 100 -6 33 -16 78 -20 100
-5 22 -17 76 -25 120 -9 44 -23 100 -30 125 -17 53 -43 180 -49 236 -3 21 -12
80 -21 129 -30 169 -35 210 -35 297 0 48 -9 151 -20 229 -11 77 -18 145 -15
150 4 5 17 2 30 -7 13 -9 26 -15 29 -15 17 3 26 -1 52 -24 16 -14 41 -31 55
-38 15 -7 49 -33 77 -57 68 -60 110 -95 149 -122 45 -33 121 -96 178 -150 28
-25 73 -63 101 -85 66 -48 122 -96 185 -155 69 -64 101 -76 145 -55 19 10 42
17 52 17 9 0 28 6 42 14 14 7 54 30 90 50 114 63 249 125 300 138 62 16 95 25
113 33 18 8 24 -9 7 -20 -17 -11 -11 -51 11 -71 34 -31 68 -108 79 -181 10
-68 8 -218 -5 -303 -7 -50 9 -85 36 -75 14 5 35 65 44 127 2 13 9 57 15 98 7
41 10 105 7 142 -7 82 -57 207 -105 260 -24 27 -30 39 -21 43 8 2 64 11 126
19 62 8 117 18 124 21 6 4 28 -9 48 -29 29 -29 41 -50 50 -94 7 -31 16 -70 21
-87 11 -39 15 -235 5 -258 -4 -11 -2 -28 5 -42 10 -18 17 -22 34 -16 24 9 33
41 35 123 0 31 5 68 11 83 21 54 6 236 -25 294 -23 46 -5 59 94 66 94 6 390 9
396 4 4 -5 24 -135 32 -207 6 -54 -8 -164 -33 -259 -15 -58 -6 -103 20 -103
27 0 65 98 98 250 17 82 18 104 9 165 -17 105 -20 145 -11 150 8 5 165 -14
295 -36 33 -5 83 -11 111 -13 27 -2 59 -8 70 -13 10 -6 36 -13 57 -17 58 -11
158 -61 200 -100 43 -41 74 -46 86 -15 5 15 18 23 42 25 19 2 38 12 44 21 6
10 62 72 126 138 64 66 132 142 152 168 20 27 76 92 126 145 50 53 99 113 109
133 21 41 19 39 111 143 38 44 69 83 68 86 -1 4 36 39 82 79 63 52 92 71 114
71 l29 0 -6 -67z m-745 -3480 c30 -32 66 -74 79 -93 13 -19 40 -55 61 -80 20
-25 49 -67 64 -95 15 -27 38 -65 52 -83 13 -17 31 -47 39 -65 8 -17 19 -39 24
-47 26 -42 76 -169 84 -216 2 -17 21 -65 40 -106 20 -41 36 -80 36 -87 0 -7 6
-25 14 -39 18 -32 64 -163 77 -213 5 -20 19 -67 33 -105 13 -38 38 -130 56
-204 18 -74 36 -144 40 -155 15 -39 49 -231 55 -315 3 -47 10 -101 15 -120 4
-19 11 -62 14 -95 3 -33 10 -87 16 -120 33 -185 38 -671 9 -762 -12 -37 -9
-323 3 -323 21 0 3 -34 -39 -74 -63 -61 -114 -72 -249 -58 -107 12 -160 20
-184 29 -8 3 -19 7 -25 7 -37 4 -127 32 -160 49 -22 12 -71 46 -109 76 -103
83 -136 165 -151 381 -12 165 -12 194 2 227 7 17 16 63 19 102 7 69 6 70 -25
101 -17 17 -31 39 -31 49 0 32 -46 44 -104 27 -28 -8 -94 -18 -146 -22 -52 -4
-109 -13 -126 -20 -33 -14 -186 -25 -374 -27 -148 -2 -525 20 -548 31 -18 10
-140 21 -283 27 -48 2 -129 -3 -180 -11 -52 -8 -107 -15 -122 -15 -48 0 -75
-16 -82 -48 -3 -17 -16 -42 -27 -56 -18 -24 -20 -34 -13 -93 17 -139 11 -231
-24 -383 -6 -24 -17 -82 -26 -128 -14 -72 -37 -129 -80 -200 -5 -9 -31 -37
-57 -62 -70 -69 -162 -99 -288 -95 -105 3 -252 37 -288 66 -26 21 -67 154 -82
263 -24 182 -27 754 -4 904 7 53 14 121 14 152 0 31 5 74 10 96 11 52 37 225
50 345 6 52 15 109 20 125 10 32 27 167 41 335 5 58 11 123 14 145 3 22 10 85
15 140 6 55 15 115 21 133 6 18 8 40 5 48 -3 8 3 34 13 57 17 41 31 88 72 257
28 110 74 211 144 310 31 44 59 80 61 80 3 0 24 -13 47 -29 23 -15 53 -32 67
-36 14 -4 72 -30 129 -57 137 -65 320 -141 401 -167 36 -12 92 -30 125 -41
197 -63 597 -58 840 12 39 10 110 30 159 44 48 13 100 30 115 38 14 8 46 20
71 27 25 7 59 21 75 31 17 10 36 18 43 18 7 0 28 11 46 25 18 14 36 25 40 25
16 0 177 114 231 164 33 30 63 55 66 56 3 0 30 -26 60 -57z"/>
<path d="M6573 9939 c-86 -133 -168 -225 -309 -346 l-49 -43 17 -27 c9 -16 28
-32 42 -37 22 -8 33 -2 96 50 39 32 80 63 90 69 11 5 23 17 25 25 3 8 24 35
45 59 32 35 41 40 46 27 3 -9 1 -23 -5 -30 -8 -10 -12 -57 -11 -138 1 -116 3
-127 32 -186 41 -82 67 -91 115 -39 39 43 40 54 13 133 -14 39 -20 81 -19 124
5 217 2 371 -8 381 -6 6 -29 13 -51 16 -39 5 -41 4 -69 -38z"/>
<path d="M2619 9599 c-19 -19 -21 -28 -14 -73 5 -28 9 -120 11 -205 2 -128 6
-156 20 -172 26 -29 58 -24 87 15 30 38 34 76 24 181 -4 39 -4 76 2 84 15 22
104 -34 200 -126 94 -91 116 -99 163 -60 15 12 29 34 33 48 5 22 0 29 -37 54
-43 29 -99 73 -128 99 -29 27 -117 84 -171 111 -30 15 -65 36 -78 46 -32 26
-86 24 -112 -2z"/>
<path d="M6080 9164 c-19 -13 -51 -35 -70 -48 -35 -23 -100 -133 -100 -169 0
-9 -5 -36 -12 -61 -10 -37 -9 -49 5 -78 24 -50 34 -55 105 -56 95 -1 103 -6
96 -52 -8 -49 13 -124 42 -151 34 -32 90 -40 159 -25 136 31 171 56 220 157
29 60 31 72 25 125 -8 62 -53 144 -91 164 -10 6 -19 16 -19 23 0 7 -12 20 -28
29 -62 40 -118 77 -130 88 -7 6 -30 17 -53 25 -22 8 -53 24 -69 35 -35 25 -37
25 -80 -6z m85 -124 c3 -5 13 -10 20 -10 20 0 151 -91 211 -147 41 -39 52 -56
58 -92 6 -37 3 -48 -18 -76 -40 -52 -128 -105 -174 -105 -34 0 -41 4 -52 30
-14 33 -8 80 15 124 19 35 19 76 2 100 -15 21 -43 23 -136 11 l-64 -8 6 31 c4
17 18 49 32 72 14 22 25 44 25 49 0 23 63 41 75 21z"/>
<path d="M5372 8441 c-29 -42 -54 -119 -58 -178 -5 -71 15 -105 84 -145 l53
-30 53 22 c90 36 124 84 126 176 1 81 -8 121 -37 152 -22 24 -31 26 -113 28
-87 2 -91 1 -108 -25z"/>
<path d="M3593 8413 c-59 -56 -81 -161 -54 -260 20 -72 120 -111 185 -70 11 7
40 19 63 25 53 16 129 91 136 135 2 18 -2 44 -9 59 -30 58 -142 120 -240 133
-46 6 -52 5 -81 -22z"/>
<path d="M4597 7875 c-15 -14 -38 -25 -51 -25 -41 0 -65 -39 -72 -115 -6 -79
12 -149 47 -175 19 -15 19 -18 4 -60 -8 -25 -19 -54 -24 -65 -13 -28 -51 -143
-51 -155 0 -5 14 -13 32 -18 37 -9 78 5 78 28 0 8 11 34 25 58 13 24 29 61 35
82 12 46 48 72 93 67 24 -2 47 -17 84 -54 28 -28 54 -62 58 -75 11 -36 36 -58
65 -58 41 0 56 54 23 81 -9 8 -26 37 -39 64 -13 28 -31 62 -42 78 -19 27 -18
28 4 75 29 60 30 66 15 134 -16 74 -77 141 -137 151 -76 13 -117 8 -147 -18z
m142 -114 c18 -13 25 -31 28 -67 4 -42 2 -53 -21 -76 -31 -35 -40 -35 -98 2
-42 26 -48 35 -48 63 0 23 8 41 28 59 45 42 74 47 111 19z"/>
<path d="M6035 6594 c-27 -19 -58 -50 -67 -69 -10 -19 -22 -35 -26 -35 -35 0
-44 -180 -12 -255 22 -52 66 -109 84 -110 11 -1 21 -5 96 -37 67 -29 137 -30
181 -2 47 29 72 65 96 139 61 181 61 184 -19 267 -60 62 -69 67 -163 98 -55
18 -104 34 -110 35 -5 2 -32 -12 -60 -31z m137 -97 c21 -7 41 -16 44 -20 4 -4
15 -7 25 -7 18 0 78 -62 80 -83 5 -71 -24 -190 -52 -208 -27 -17 -115 -10
-142 11 -14 11 -35 20 -46 20 -12 0 -21 6 -21 14 0 7 -6 19 -14 25 -7 6 -16
34 -20 61 -6 42 -2 59 20 107 25 55 57 92 79 93 6 0 27 -6 47 -13z"/>
<path d="M3865 6174 c-79 -17 -144 -40 -173 -62 -39 -30 -76 -96 -69 -124 6
-23 -12 -159 -22 -173 -5 -5 -11 -23 -15 -40 -7 -28 -16 -51 -53 -135 -22 -49
-28 -160 -13 -217 20 -76 75 -148 139 -184 109 -62 171 -79 285 -79 118 0 153
11 231 71 135 105 204 199 212 286 l5 58 -49 50 c-27 28 -70 69 -96 93 -57 51
-60 79 -16 130 23 26 30 42 26 61 -3 14 -1 35 3 46 15 39 -38 102 -110 131
-14 6 -64 29 -111 52 -81 40 -118 47 -174 36z m123 -143 c21 -10 50 -21 66
-25 63 -15 111 -79 76 -101 -19 -12 -60 -104 -60 -136 0 -27 14 -45 88 -118
49 -47 97 -98 106 -113 16 -25 16 -28 -1 -62 -26 -51 -152 -176 -198 -197 -63
-29 -157 -23 -240 16 -16 8 -56 25 -87 39 -111 48 -146 155 -97 298 20 57 39
90 83 139 17 21 30 109 17 128 -11 17 12 109 33 129 34 34 149 36 214 3z"/>
<path d="M5615 5750 c-26 -10 -185 -177 -185 -193 0 -7 -9 -30 -19 -52 -49
-102 -59 -182 -37 -289 13 -60 15 -108 11 -205 -6 -125 -6 -127 22 -176 21
-37 39 -55 73 -72 66 -31 117 -45 141 -38 11 4 48 2 82 -5 51 -10 72 -9 122 4
126 32 178 48 199 61 23 14 84 30 102 27 7 -1 17 19 23 45 9 39 8 59 -5 103
-55 194 -56 250 -9 316 18 27 45 66 59 86 14 20 35 42 46 48 13 7 20 21 20 43
0 18 1 46 2 64 2 59 -131 189 -219 212 -22 6 -117 16 -209 21 -196 11 -193 11
-219 0z m285 -120 c47 -6 103 -16 125 -24 42 -15 115 -89 115 -116 0 -9 -22
-40 -50 -69 -27 -29 -64 -82 -81 -117 -29 -59 -31 -70 -26 -137 3 -39 17 -112
32 -162 l26 -90 -22 -17 c-61 -50 -305 -84 -414 -58 -79 19 -104 50 -116 140
-7 58 -6 76 6 93 18 25 20 122 4 164 -6 15 -11 58 -11 96 0 89 26 142 116 235
l69 72 71 0 c39 0 109 -5 156 -10z"/>
<path d="M3554 4665 c-10 -8 -26 -15 -35 -15 -18 0 -65 -48 -107 -111 -17 -26
-45 -58 -62 -72 -22 -19 -33 -39 -40 -77 -5 -28 -15 -60 -21 -72 -16 -29 -5
-84 25 -123 l26 -34 -20 -46 c-54 -126 10 -345 110 -381 48 -17 126 -17 158 0
15 8 43 17 62 21 26 4 56 25 115 83 109 104 118 121 119 207 0 38 -6 86 -13
105 -29 73 -74 160 -92 176 -16 15 -19 32 -19 118 0 127 -11 147 -108 199 -39
20 -72 37 -74 37 -2 0 -13 -7 -24 -15z m61 -147 c32 -14 41 -48 26 -99 -6 -21
-9 -50 -6 -64 3 -14 7 -36 10 -49 3 -13 24 -43 48 -67 53 -54 94 -164 83 -221
-8 -45 -57 -107 -102 -131 -19 -9 -34 -21 -34 -26 0 -14 -88 -34 -125 -28 -39
6 -67 33 -90 86 -12 26 -14 59 -11 133 3 54 9 106 15 115 6 11 4 30 -6 57 -15
44 -11 114 10 153 16 28 135 153 147 153 5 0 21 -5 35 -12z"/>
<path d="M284 9706 c-8 -22 3 -33 18 -18 9 9 9 15 0 24 -9 9 -13 7 -18 -6z"/>
<path d="M9785 4857 c-11 -6 -51 -15 -90 -19 -38 -4 -99 -10 -135 -14 -36 -4
-71 -11 -77 -16 -7 -6 -24 -8 -37 -4 -16 4 -32 -1 -50 -15 -20 -16 -30 -18
-40 -10 -10 8 -39 8 -112 -3 -55 -8 -139 -17 -189 -21 -49 -3 -124 -10 -165
-15 -41 -6 -105 -11 -142 -13 -37 -2 -74 -9 -83 -17 -8 -7 -25 -14 -38 -16
-12 -2 -47 -9 -77 -15 -30 -6 -67 -8 -82 -5 -15 3 -30 0 -34 -6 -4 -7 -31 -8
-78 -4 -57 5 -82 2 -128 -14 -32 -11 -75 -20 -96 -20 -21 0 -42 -4 -48 -10 -9
-9 -129 -34 -224 -46 -25 -3 -55 -11 -68 -17 -17 -8 -31 -8 -54 1 -27 10 -39
8 -99 -19 -58 -25 -77 -29 -117 -23 -39 5 -58 1 -106 -21 -32 -14 -60 -24 -63
-21 -3 3 -14 1 -24 -5 -12 -6 -25 -6 -37 0 -14 8 -32 1 -80 -29 -51 -32 -60
-43 -57 -62 7 -36 34 -50 85 -44 44 6 93 20 140 39 26 11 95 25 275 57 61 11
139 28 175 39 36 11 88 23 115 27 28 3 57 10 66 15 9 5 57 13 105 19 49 6 121
15 159 20 39 5 99 15 135 23 36 8 151 20 255 26 260 16 312 19 370 26 28 3 79
7 115 9 73 5 207 26 320 50 51 11 128 16 242 16 191 0 188 -2 188 89 0 38 -4
53 -17 59 -32 17 -78 21 -98 9z"/>
<path d="M2770 4253 c-52 -8 -124 -18 -160 -23 -66 -9 -215 -24 -370 -35 -47
-4 -98 -13 -114 -21 -17 -8 -34 -10 -45 -5 -22 11 -179 -3 -214 -19 -20 -10
-31 -10 -39 -2 -8 8 -83 9 -259 5 -222 -6 -250 -4 -274 11 -24 16 -54 19 -320
27 -11 1 -42 -3 -70 -8 -36 -6 -61 -5 -90 5 -26 10 -100 16 -215 18 -96 2
-185 6 -197 9 -22 5 -61 -26 -84 -67 -13 -24 41 -52 106 -55 28 -1 194 -6 370
-12 176 -5 354 -12 395 -14 458 -30 609 -34 750 -18 52 6 172 13 265 16 94 3
185 11 202 16 35 11 148 19 340 23 78 1 127 7 136 15 25 20 48 78 42 104 -10
37 -47 44 -155 30z"/>
<path d="M1900 1590 c0 -5 9 -10 20 -10 11 0 20 5 20 10 0 6 -9 10 -20 10 -11
0 -20 -4 -20 -10z"/>
</g>
</svg>
