<?xml version="1.0" standalone="no"?>
<!DOCTYPE svg PUBLIC "-//W3C//DTD SVG 20010904//EN"
 "http://www.w3.org/TR/2001/REC-SVG-20010904/DTD/svg10.dtd">
<svg version="1.0" xmlns="http://www.w3.org/2000/svg"
 width="1280.000000pt" height="1013.000000pt" viewBox="0 0 1280.000000 1013.000000"
 preserveAspectRatio="xMidYMid meet">
<metadata>
Created by potrace 1.15, written by Peter Selinger 2001-2017
</metadata>
<g transform="translate(0.000000,1013.000000) scale(0.100000,-0.100000)"
fill="#000000" stroke="none">
<path d="M7255 9409 c-118 -11 -230 -30 -378 -66 l-108 -26 -15 21 c-12 17
-25 22 -58 22 -54 0 -78 -9 -291 -103 l-171 -75 -113 39 c-269 93 -609 156
-990 184 l-84 7 7 -49 c19 -132 72 -273 244 -648 147 -321 219 -520 210 -576
-3 -17 -9 -16 -83 17 -151 67 -242 102 -294 113 -63 13 -161 15 -161 2 0 -11
30 -22 225 -86 152 -50 268 -106 297 -145 16 -23 17 -36 8 -159 -5 -74 -12
-136 -15 -139 -3 -3 -71 5 -152 17 -167 26 -287 31 -304 14 -17 -17 -7 -20
171 -43 124 -15 288 -51 290 -63 1 -1 5 -72 9 -157 7 -118 14 -168 30 -210 46
-121 243 -419 387 -584 74 -85 119 -146 109 -146 -3 0 -103 25 -223 55 -241
61 -399 90 -542 100 -164 12 -317 -22 -390 -85 l-35 -30 46 20 c172 74 509 40
1062 -107 153 -40 161 -47 155 -122 l-3 -36 -125 5 c-250 10 -663 5 -735 -8
-134 -26 -205 -72 -205 -134 l0 -29 31 22 c82 58 279 85 549 75 201 -8 358
-20 366 -29 7 -7 6 -9 -135 -277 -218 -414 -344 -551 -596 -649 -55 -22 -144
-60 -198 -85 -54 -25 -123 -53 -154 -62 -71 -21 -184 -15 -238 12 -37 19 -44
32 -272 524 -216 468 -237 508 -282 553 -60 57 -81 61 -81 14 0 -63 32 -142
251 -623 120 -264 219 -485 219 -491 0 -5 -31 -22 -69 -37 -91 -36 -202 -114
-241 -171 -27 -39 -33 -43 -53 -35 -12 5 -175 57 -362 116 -427 133 -741 250
-832 309 -25 17 -54 102 -143 415 -78 275 -126 379 -219 470 -36 36 -91 78
-122 93 l-56 28 5 54 c9 113 -18 147 -185 227 -71 34 -124 66 -127 76 -2 9 -7
31 -11 48 -3 17 -17 42 -31 55 -22 20 -38 24 -104 27 -74 4 -81 2 -104 -22
-19 -18 -26 -36 -26 -65 0 -68 -13 -88 -62 -96 -92 -15 -198 -57 -243 -97 -57
-50 -73 -98 -56 -166 6 -26 13 -52 14 -58 1 -6 -35 -38 -79 -72 -104 -79 -180
-161 -244 -264 -94 -153 -135 -284 -230 -733 -76 -354 -108 -420 -250 -505
-130 -78 -200 -161 -200 -237 0 -60 9 -76 108 -172 177 -173 292 -224 633
-276 89 -14 164 -27 166 -28 1 -2 9 -37 17 -79 18 -94 37 -139 85 -203 99
-132 100 -181 6 -298 -30 -37 -60 -85 -66 -106 -10 -35 -16 -39 -60 -49 -125
-29 -254 -123 -301 -221 -26 -55 -35 -148 -19 -209 50 -186 484 -342 949 -342
81 0 188 5 237 11 314 38 555 170 649 356 32 63 16 138 -43 206 -31 35 -90 77
-297 210 -154 98 -194 145 -212 245 -12 66 3 101 87 201 83 99 94 122 100 215
l6 79 105 18 c296 51 586 171 728 303 70 66 102 118 102 169 0 44 -48 118
-101 157 -39 27 -60 36 -142 54 -41 10 -113 81 -152 150 -18 34 -54 121 -79
194 l-45 132 27 -6 c197 -45 473 -135 847 -278 138 -52 267 -102 287 -110 l37
-16 -1 -117 c0 -183 26 -242 146 -328 94 -67 186 -106 260 -112 51 -5 84 0
173 26 60 17 115 31 120 31 13 0 56 -98 50 -113 -12 -33 -404 -240 -673 -356
-241 -104 -546 -213 -780 -280 l-98 -28 102 -57 c296 -166 591 -270 1042 -366
516 -111 659 -171 755 -317 21 -32 43 -62 49 -66 19 -14 138 0 218 26 l77 24
5 -66 c3 -36 15 -156 26 -266 11 -110 23 -229 26 -265 l6 -65 -96 -38 c-114
-45 -200 -93 -241 -137 l-30 -31 3 -187 c9 -702 23 -1135 37 -1162 47 -92 247
-176 476 -202 238 -26 550 38 667 137 19 15 45 53 58 83 l24 54 0 634 0 633
-30 34 c-30 35 -117 86 -182 107 -21 6 -38 13 -38 15 0 14 61 167 105 265 73
162 125 303 125 340 0 91 -67 93 -176 4 -64 -51 -113 -135 -175 -296 -32 -81
-70 -171 -86 -200 l-28 -53 -100 3 c-55 2 -101 5 -103 7 -4 4 -90 631 -94 682
-1 22 4 38 17 49 41 33 169 86 405 167 375 130 483 170 693 252 l194 75 104
-21 c156 -32 211 -21 326 67 93 71 196 101 378 110 l120 6 360 -117 c647 -209
2112 -683 3255 -1052 333 -107 608 -197 612 -199 7 -5 52 75 46 81 -2 2 -185
65 -408 140 -722 244 -843 285 -846 287 -1 2 -7 154 -13 338 -13 382 -22 498
-56 695 -13 77 -29 183 -35 235 -36 308 -134 585 -283 801 -82 119 -116 187
-163 326 -36 107 -37 110 -43 318 -7 235 -12 254 -99 382 -58 87 -72 118 -72
165 0 59 26 97 107 154 37 26 72 51 77 55 5 4 -18 54 -51 111 -112 192 -193
369 -193 423 0 18 11 32 39 49 22 14 42 30 46 35 12 20 -27 80 -121 182 -51
57 -94 109 -94 115 0 6 20 17 45 24 24 7 50 19 56 26 15 18 -6 46 -160 212
-138 150 -183 201 -237 267 -87 108 -166 241 -194 330 -7 22 -19 47 -27 56
-12 14 -12 17 2 22 8 4 15 16 15 28 0 38 -60 201 -96 260 -32 53 -185 210
-240 246 -14 9 -32 29 -40 44 -34 67 -12 165 130 576 33 96 56 179 56 204 l0
42 -87 -7 c-131 -11 -269 -39 -558 -116 -363 -96 -470 -118 -498 -100 -218
139 -390 197 -647 220 -129 11 -162 11 -305 -1z m2013 -86 c-1 -5 -22 -46 -46
-93 -32 -64 -45 -105 -53 -165 -5 -44 -26 -140 -45 -212 -21 -81 -41 -189 -50
-274 -37 -350 -110 -584 -208 -664 l-41 -33 -255 -5 c-249 -5 -337 -14 -515
-52 -246 -54 -469 -154 -591 -267 -47 -43 -98 -108 -73 -92 8 5 47 31 87 58
294 194 880 326 1399 314 147 -3 175 3 83 17 -84 12 -85 13 -58 42 12 14 45
41 71 60 62 46 95 112 141 282 44 161 60 201 81 201 24 0 148 -105 185 -156
61 -85 77 -171 45 -247 -32 -76 -17 -123 65 -202 65 -62 147 -169 236 -305
101 -156 170 -247 241 -322 63 -67 64 -67 49 -96 -8 -16 -22 -34 -30 -41 -9
-8 -16 -17 -16 -22 0 -4 36 -49 81 -100 45 -50 87 -107 95 -125 15 -37 11 -53
-27 -103 -11 -13 -19 -32 -19 -43 0 -20 137 -372 171 -440 l19 -37 -47 -43
c-83 -75 -94 -87 -109 -123 -7 -19 -14 -47 -14 -62 0 -42 40 -119 108 -212 88
-117 104 -179 122 -446 12 -176 40 -336 70 -395 11 -21 63 -103 116 -181 174
-256 234 -428 293 -834 11 -77 27 -167 35 -200 21 -82 36 -228 36 -365 0 -63
7 -194 15 -290 31 -369 31 -382 -1 -350 -5 5 -135 46 -289 91 -517 149 -1227
379 -1770 572 -332 118 -705 259 -705 267 0 4 22 10 49 14 77 10 348 81 445
117 52 19 126 57 177 91 142 94 206 182 359 488 112 225 180 336 257 420 96
106 178 274 143 295 -18 11 -46 -13 -107 -92 -91 -119 -146 -205 -313 -488
-167 -285 -245 -405 -326 -506 -42 -54 -66 -72 -126 -102 -130 -64 -239 -94
-384 -107 -148 -12 -226 -29 -293 -65 -25 -13 -122 -42 -216 -64 -262 -62
-296 -75 -412 -160 -45 -33 -147 -54 -230 -48 -101 8 -153 38 -153 89 0 35 32
68 65 68 20 0 25 5 25 25 0 24 -3 25 -53 25 -39 0 -58 -5 -69 -17 -20 -23 -38
-78 -38 -114 0 -16 -3 -29 -6 -29 -3 0 -39 15 -79 34 -82 38 -92 54 -82 128
11 80 69 131 160 138 55 4 62 7 59 25 -12 68 -96 45 -238 -66 -57 -44 -63 -46
-82 -33 -28 19 -55 107 -56 181 -1 52 3 65 24 88 32 34 136 84 180 86 99 4
116 -1 186 -46 63 -42 73 -45 134 -45 95 0 198 38 486 180 278 136 345 177
381 231 27 40 72 182 104 324 26 118 49 166 93 200 l36 27 0 87 c1 115 23 231
56 297 15 30 25 56 23 59 -9 9 -104 -72 -119 -100 -10 -21 -16 -72 -18 -165
l-4 -135 -38 -32 c-45 -38 -62 -78 -95 -220 -44 -186 -75 -273 -113 -315 -42
-47 -240 -160 -387 -223 -60 -25 -149 -64 -198 -86 -113 -52 -166 -54 -332 -8
-159 43 -237 44 -321 5 -50 -22 -66 -26 -82 -17 -12 6 -54 11 -94 11 l-73 0
-43 53 c-55 67 -81 123 -89 184 -5 42 -9 51 -33 60 -49 18 -58 46 -64 188 -2
72 -8 145 -12 163 -6 29 -10 33 -31 27 -35 -9 -55 46 -60 170 -5 107 19 263
51 326 19 38 18 39 -12 28 -61 -23 -89 -194 -71 -434 11 -158 22 -192 53 -165
14 11 16 8 16 -19 0 -17 -6 -33 -12 -35 -7 -2 -38 -9 -68 -16 -30 -7 -100 -32
-155 -55 -143 -60 -223 -85 -302 -94 -37 -5 -93 -15 -125 -22 -48 -11 -69 -10
-150 4 -51 9 -115 20 -143 23 -118 14 -164 155 -83 257 16 21 33 51 37 65 8
30 -2 93 -21 131 -18 33 -90 80 -164 106 -63 22 -134 63 -134 78 0 4 11 7 24
7 33 0 96 24 145 54 22 14 97 49 167 76 149 60 190 80 265 131 191 129 295
262 470 601 111 214 141 263 168 273 19 7 40 -17 91 -100 52 -86 126 -158 180
-175 62 -19 308 -17 346 3 23 12 33 12 73 -1 64 -20 330 -28 429 -12 107 17
217 53 284 94 l57 34 67 -44 c85 -56 145 -108 319 -274 77 -74 156 -148 174
-165 l34 -30 -19 33 c-61 106 -306 363 -417 437 -31 21 -57 41 -57 45 0 4 62
10 138 12 179 7 252 32 305 108 l15 21 153 -41 c284 -77 573 -171 722 -235 28
-12 20 11 -17 42 -48 43 -154 84 -393 153 -266 78 -364 111 -370 126 -13 34
102 190 257 349 112 115 140 158 180 278 29 88 31 155 7 171 -26 16 -42 -9
-81 -135 -19 -59 -42 -122 -51 -140 -10 -19 -63 -79 -119 -134 -56 -55 -131
-138 -166 -185 -107 -143 -150 -190 -173 -190 -12 0 -69 12 -127 27 -140 35
-335 39 -420 8 l-55 -20 175 -6 c185 -7 316 -23 365 -44 l30 -13 -40 -17
c-126 -55 -393 -72 -535 -35 -95 25 -132 25 -161 0 -13 -10 -19 -20 -14 -20
183 -16 208 -26 160 -67 -45 -37 -109 -64 -194 -79 -213 -38 -470 10 -479 89
-4 36 8 51 84 99 42 26 64 47 69 65 9 39 -11 54 -60 43 -22 -5 -84 -6 -138 -3
-81 5 -104 10 -126 28 -58 48 -93 42 -61 -11 11 -20 20 -46 20 -60 0 -24 57
-88 108 -121 34 -23 31 -94 -4 -122 -48 -37 -187 -21 -274 32 -75 46 -150 134
-150 177 0 16 33 12 84 -11 63 -27 100 -23 104 13 4 34 -13 44 -106 56 -87 12
-117 30 -126 73 -14 69 -7 72 78 33 61 -28 86 -26 86 5 0 27 -64 77 -133 104
-63 24 -72 33 -170 174 l-57 82 50 -31 c42 -26 56 -30 95 -26 35 4 51 1 69
-13 13 -11 28 -19 34 -19 23 0 29 148 8 226 -17 64 -70 164 -105 200 -58 57
-292 128 -364 110 -38 -9 -35 -31 23 -162 82 -184 56 -171 -42 21 -28 55 -72
133 -98 173 -59 89 -76 166 -65 295 6 72 10 87 24 87 30 0 154 -66 241 -129
90 -65 100 -69 100 -47 0 40 -132 141 -290 222 l-75 39 -3 123 c-2 95 0 122
10 122 24 0 163 -102 466 -343 27 -22 23 4 -8 43 -39 50 -251 237 -381 337
l-97 74 14 46 c19 64 18 139 -2 155 -86 68 -175 250 -284 579 -60 182 -116
419 -99 419 2 0 42 7 89 15 109 19 313 19 423 0 198 -35 380 -115 492 -217 65
-60 125 -146 125 -180 0 -10 5 -18 10 -18 6 0 10 20 10 44 0 27 9 61 25 90 30
57 31 71 4 89 -20 14 -19 15 20 49 55 47 183 119 217 121 24 2 29 -2 27 -20
-2 -21 -1 -21 30 -8 176 73 680 90 1067 34 212 -30 412 -106 386 -147 -3 -5
-67 -37 -143 -72 -223 -102 -351 -170 -391 -207 -36 -34 -36 -35 -17 -50 31
-23 89 -10 153 35 282 198 836 389 1382 477 175 28 162 27 158 18z m-3349
-2195 l50 -11 -26 -34 c-33 -43 -41 -114 -19 -167 20 -49 15 -56 -13 -17 -45
63 -74 156 -65 209 7 36 5 36 73 20z m186 -152 c25 -51 45 -104 45 -118 0 -35
-22 -51 -61 -43 -27 6 -30 10 -25 34 15 68 16 120 3 169 -8 28 -12 52 -10 52
2 0 23 -42 48 -94z m-4116 -205 c11 -11 24 -44 31 -75 13 -64 20 -70 137 -105
119 -35 173 -100 155 -187 -6 -31 -15 -42 -44 -56 -157 -75 -462 -90 -641 -32
-38 13 -51 23 -67 54 -29 58 -36 115 -16 145 22 33 56 49 146 69 41 9 95 23
120 31 43 14 47 19 65 71 33 98 72 127 114 85z m432 -522 c89 -58 188 -163
231 -245 59 -113 80 -194 123 -454 57 -345 122 -522 268 -727 47 -67 59 -77
127 -109 155 -72 171 -85 186 -148 6 -26 0 -35 -67 -100 -404 -388 -1754 -478
-2373 -158 -50 25 -112 67 -138 92 -47 46 -48 47 -48 110 0 81 26 136 90 193
82 71 131 209 235 657 122 530 148 612 228 732 45 67 112 121 172 138 35 10
50 8 115 -14 210 -70 464 -54 701 42 41 17 77 31 80 31 3 1 35 -18 70 -40z
m2212 -1159 c148 -46 304 -211 323 -342 3 -24 16 -70 29 -103 52 -135 53 -295
3 -295 -12 0 -55 22 -97 49 -85 54 -154 91 -171 91 -8 0 -9 -11 -5 -29 9 -43
-9 -69 -57 -82 -124 -33 -358 71 -384 171 -4 14 -20 57 -35 95 -15 39 -31 98
-35 132 -6 57 -4 66 22 110 62 106 159 185 258 209 70 17 75 17 149 -6z m385
-120 c63 -38 89 -123 62 -195 -18 -48 -42 -26 -98 89 -40 84 -50 111 -40 118
21 12 41 9 76 -12z m1160 -417 c6 -16 20 -66 31 -113 11 -47 27 -107 35 -135
8 -27 14 -51 11 -53 -3 -3 -110 30 -498 155 -27 8 -45 19 -40 23 11 12 201 87
303 121 112 37 144 38 158 2z m-914 -153 c92 -17 192 -30 238 -30 73 0 104 -8
376 -95 431 -138 434 -139 471 -186 36 -44 86 -73 146 -84 72 -13 74 -16 60
-85 -7 -34 -15 -63 -18 -66 -11 -12 -199 29 -309 67 -65 21 -217 84 -338 139
-324 146 -479 200 -613 215 -142 16 -133 12 -153 58 -10 23 -26 54 -37 70 -18
26 -18 27 0 27 10 0 89 -14 177 -30z m156 -210 c47 -15 210 -82 363 -149 398
-174 599 -237 721 -229 37 2 40 1 52 -35 24 -70 67 -137 99 -156 20 -12 45
-42 65 -80 29 -53 40 -64 93 -91 33 -16 68 -30 78 -30 10 0 21 -4 24 -10 3 -5
-1 -10 -9 -10 -30 0 -240 -82 -481 -187 -356 -156 -539 -223 -676 -248 l-36
-7 -5 52 c-6 61 -29 88 -81 97 -29 4 -42 1 -58 -13 -22 -20 -22 -15 -6 -204 3
-30 -23 -44 -122 -65 l-72 -15 -56 45 c-171 140 -365 213 -973 365 -274 69
-495 139 -623 198 -104 49 -233 131 -221 141 5 4 94 36 199 70 283 93 461 168
750 316 294 150 445 220 455 208 3 -4 26 -34 49 -66 66 -87 151 -142 163 -105
2 6 16 -9 30 -34 41 -68 54 -75 67 -37 13 38 14 84 2 107 -5 9 -10 57 -12 106
-4 89 -4 90 21 97 37 11 105 0 200 -31z m-2999 -151 c35 -35 0 -99 -111 -207
-74 -72 -95 -113 -106 -208 -8 -67 1 -102 30 -115 39 -18 76 -87 76 -142 0
-44 -4 -54 -37 -87 -123 -121 -487 -132 -642 -19 -90 65 -104 169 -33 243 102
106 96 187 -25 317 -76 81 -83 95 -83 163 l0 56 163 1 c137 1 503 10 695 17
41 2 56 -2 73 -19z m-904 -839 c81 -86 183 -141 294 -160 200 -34 447 39 583
172 l61 59 40 -11 c67 -20 135 -59 185 -106 116 -109 107 -214 -29 -336 -67
-61 -137 -100 -233 -132 -419 -141 -1012 -70 -1236 147 -60 58 -86 110 -77
155 17 90 116 220 198 261 27 13 62 21 95 21 53 0 54 0 119 -70z m4219 -797
c46 -345 83 -636 84 -645 0 -14 -7 -16 -37 -11 -21 3 -41 8 -45 12 -11 9 -139
1227 -131 1248 11 31 25 45 36 34 5 -5 47 -292 93 -638z m704 311 c0 -3 -7
-32 -15 -65 -24 -91 -73 -199 -176 -384 -52 -94 -125 -239 -163 -323 -38 -84
-70 -151 -72 -149 -2 2 1 19 6 38 101 362 158 535 217 654 44 88 114 185 151
210 36 25 52 30 52 19z m-428 -620 c3 -3 -19 -81 -50 -175 -43 -128 -61 -169
-73 -169 -23 0 -29 32 -36 203 l-6 147 80 0 c44 0 82 -3 85 -6z m-378 -21 c3
-10 10 -63 16 -118 5 -55 13 -119 16 -142 3 -24 5 -43 3 -43 -2 0 -46 11 -97
25 -160 43 -240 92 -230 142 5 25 70 67 173 113 103 45 112 46 119 23z m759
-112 c26 -17 52 -41 58 -52 23 -44 -60 -89 -216 -118 -32 -6 -60 -9 -63 -7 -3
4 64 219 75 238 6 12 95 -25 146 -61z m56 -1321 c-18 -32 -37 -46 -121 -85
-54 -25 -142 -58 -196 -73 -87 -23 -116 -26 -272 -26 -157 -1 -183 1 -250 22
-141 45 -228 99 -260 162 -20 38 -20 58 -20 595 0 305 3 555 7 555 3 0 36 -11
73 -24 132 -48 211 -59 410 -59 199 0 380 22 555 65 l90 23 3 -558 c2 -555 2
-559 -19 -597z"/>
<path d="M5573 9220 c19 -27 84 -78 130 -102 21 -10 78 -28 127 -38 134 -30
161 -45 197 -113 26 -50 22 -166 -7 -249 -26 -72 -21 -96 18 -84 39 13 63 85
69 208 5 106 4 115 -16 140 -67 84 -253 186 -421 232 -114 31 -115 31 -97 6z"/>
<path d="M8803 9195 c-164 -49 -335 -124 -471 -207 -130 -79 -352 -259 -389
-315 -33 -49 -35 -57 -31 -117 3 -54 9 -72 34 -103 32 -39 131 -106 149 -100
5 2 11 15 13 30 4 30 -17 53 -91 104 -56 39 -59 61 -23 138 44 92 136 163 334
257 317 150 432 209 492 255 76 58 100 83 79 82 -8 0 -51 -11 -96 -24z"/>
<path d="M8359 7515 c-200 -28 -391 -86 -519 -156 -30 -17 -46 -27 -35 -24
296 92 559 135 832 135 225 0 408 -32 528 -92 l40 -20 -23 25 c-38 40 -134 86
-239 114 -86 22 -123 26 -293 29 -130 2 -227 -1 -291 -11z"/>
<path d="M7491 7098 c-50 -14 -113 -60 -165 -121 -56 -66 -64 -86 -72 -190 -4
-45 -13 -91 -20 -102 -22 -36 0 -67 77 -109 24 -13 62 -33 84 -45 87 -48 228
-6 392 118 83 63 258 239 283 286 12 23 11 27 -10 50 -44 46 -166 81 -393 110
-133 17 -129 17 -176 3z m401 -128 c21 -6 50 -22 65 -36 l28 -24 -71 -68 c-62
-59 -291 -232 -307 -232 -3 0 1 17 9 37 9 20 17 63 17 96 2 58 1 60 -28 69
-51 16 -105 41 -105 48 0 4 29 13 65 20 35 7 72 18 81 25 16 11 16 14 -4 43
-12 16 -22 33 -22 38 0 10 227 -3 272 -16z m-478 -66 c-23 -99 -22 -212 3
-263 11 -23 19 -41 16 -41 -2 0 -20 9 -41 19 -53 27 -85 65 -84 99 1 58 101
276 118 259 2 -2 -3 -35 -12 -73z"/>
<path d="M4483 3823 c-58 -11 -9 -38 177 -96 63 -20 142 -43 175 -52 33 -9 74
-25 91 -35 25 -14 34 -15 47 -5 16 11 16 13 -1 27 -9 8 -57 38 -107 66 -93 52
-164 77 -250 87 -96 11 -110 12 -132 8z"/>
<path d="M5251 3806 c2 -2 76 -35 164 -73 149 -64 165 -74 225 -134 36 -35 83
-72 105 -82 22 -10 50 -23 62 -29 30 -15 53 -3 53 27 0 21 -8 30 -43 45 -30
13 -48 30 -60 54 -10 22 -31 43 -54 54 -80 41 -478 162 -452 138z"/>
<path d="M3997 3693 c-32 -32 28 -85 183 -163 l120 -60 102 0 c70 -1 111 -5
128 -15 33 -19 50 -19 50 0 0 27 -30 63 -82 101 l-51 36 -71 -21 c-39 -12 -74
-21 -78 -21 -5 0 -8 15 -8 34 l0 34 -59 7 c-33 4 -73 4 -88 1 -24 -6 -35 0
-68 34 -37 38 -63 49 -78 33z"/>
<path d="M5110 3570 c14 -11 65 -41 115 -66 59 -30 96 -56 109 -75 13 -21 25
-29 40 -27 31 4 32 43 1 88 -25 37 -31 39 -138 65 -62 14 -121 28 -132 31 -17
4 -16 2 5 -16z"/>
<path d="M4625 3469 c18 -51 18 -52 0 -45 -32 12 -13 -13 33 -42 67 -44 149
-80 210 -93 50 -12 52 -14 52 -44 0 -52 49 -75 203 -94 50 -6 98 -19 133 -37
58 -29 62 -35 39 -54 -22 -19 -14 -53 15 -66 14 -7 45 -15 70 -19 l45 -7 -36
26 c-57 39 -62 65 -24 120 29 42 27 49 -18 73 -69 35 -126 43 -230 32 -101
-11 -167 -6 -167 13 0 5 11 23 25 40 38 46 40 44 -55 68 -53 14 -211 97 -265
140 -21 16 -39 30 -41 30 -2 0 3 -19 11 -41z"/>
<path d="M5940 3385 c-15 -18 -19 -17 135 -55 127 -31 157 -48 135 -74 -11
-14 -6 -16 41 -16 30 0 60 4 67 8 33 22 -85 105 -168 118 -24 4 -55 13 -69 21
-36 18 -125 17 -141 -2z"/>
<path d="M5548 3324 c-19 -6 -33 -38 -23 -54 3 -5 17 -10 31 -10 27 0 63 -17
120 -55 20 -14 55 -30 78 -36 22 -5 69 -21 104 -35 73 -28 72 -28 72 -10 0 20
-88 95 -119 102 -41 9 -72 23 -129 60 -51 34 -99 48 -134 38z"/>
<path d="M8243 2791 c-81 -64 -220 -216 -387 -421 -98 -121 -223 -258 -326
-360 -92 -91 -171 -176 -175 -189 -10 -34 7 -45 78 -51 l62 -5 6 -75 c8 -87
-2 -139 -32 -166 -35 -31 -81 -103 -73 -115 12 -20 146 -76 279 -117 72 -22
285 -81 475 -132 442 -117 667 -182 771 -221 157 -59 130 -69 399 147 240 193
447 388 532 502 59 79 87 163 97 297 12 146 0 274 -28 313 -38 54 -385 214
-801 369 -332 124 -761 263 -811 263 -9 0 -39 -17 -66 -39z m162 -36 c183 -30
487 -130 800 -261 210 -89 654 -313 671 -340 24 -36 28 -127 10 -261 -31 -238
-93 -318 -490 -637 -93 -74 -197 -162 -231 -196 -35 -33 -65 -60 -68 -60 -3 0
-5 42 -4 94 1 99 -5 118 -60 177 l-23 26 202 190 c191 178 352 326 512 470 64
57 69 65 70 104 1 23 -4 44 -10 46 -19 6 -165 -129 -324 -302 -188 -204 -323
-332 -429 -409 l-80 -57 -253 80 c-508 161 -1228 409 -1228 423 0 4 44 54 98
110 54 57 190 204 302 328 293 322 460 491 479 486 9 -3 34 -8 56 -11z m-505
-1124 c526 -164 672 -218 927 -341 133 -64 166 -84 183 -112 22 -36 26 -103 9
-141 -21 -47 -39 -49 -163 -22 -390 84 -996 266 -1216 366 -107 48 -115 63
-100 182 5 45 10 103 10 129 0 46 0 47 28 38 15 -4 160 -49 322 -99z"/>
</g>
</svg>
