<?xml version="1.0" standalone="no"?>
<!DOCTYPE svg PUBLIC "-//W3C//DTD SVG 20010904//EN"
 "http://www.w3.org/TR/2001/REC-SVG-20010904/DTD/svg10.dtd">
<svg version="1.0" xmlns="http://www.w3.org/2000/svg"
 width="1280.000000pt" height="986.000000pt" viewBox="0 0 1280.000000 986.000000"
 preserveAspectRatio="xMidYMid meet">
<metadata>
Created by potrace 1.15, written by Peter Selinger 2001-2017
</metadata>
<g transform="translate(0.000000,986.000000) scale(0.100000,-0.100000)"
fill="#000000" stroke="none">
<path d="M1965 9844 c-27 -9 -64 -27 -82 -40 -38 -29 -91 -132 -99 -195 -8
-55 17 -156 52 -216 60 -103 254 -272 394 -344 55 -29 75 -34 130 -33 36 0 84
4 106 8 83 16 182 -64 306 -248 93 -140 148 -258 288 -626 171 -448 185 -540
176 -1125 -3 -209 -8 -465 -12 -570 -5 -178 -4 -204 26 -405 37 -253 50 -524
31 -635 -25 -139 -47 -168 -447 -570 -367 -368 -533 -557 -814 -929 -257 -341
-356 -520 -440 -801 -58 -194 -112 -312 -210 -458 -98 -146 -172 -230 -292
-330 -184 -152 -255 -242 -347 -442 -43 -94 -102 -188 -242 -385 -135 -191
-226 -339 -281 -460 -21 -47 -76 -159 -121 -249 -80 -159 -82 -165 -82 -235 0
-103 31 -160 164 -299 59 -62 126 -137 149 -169 66 -87 136 -110 202 -65 19
12 43 37 54 56 34 59 106 319 137 499 16 96 43 215 59 265 16 51 41 139 55
196 41 163 78 225 123 205 9 -4 23 -6 30 -5 6 1 17 -9 23 -23 16 -35 -16 -135
-92 -282 -81 -158 -98 -203 -115 -304 -23 -143 -19 -198 20 -275 70 -133 146
-198 233 -198 85 0 129 55 162 204 26 116 163 464 255 648 155 308 408 679
584 857 123 123 191 157 542 269 236 75 333 149 523 397 107 139 188 220 347
347 224 180 403 278 680 373 173 59 281 71 505 58 353 -22 569 -58 886 -149
215 -62 507 -131 644 -152 117 -18 295 -15 500 9 126 15 272 22 490 26 331 6
458 19 704 71 228 48 324 85 421 161 75 59 118 67 281 54 155 -13 213 -5 331
46 153 65 191 58 275 -54 53 -70 104 -106 173 -121 26 -6 259 -11 550 -12 562
-1 540 -4 706 69 148 65 408 119 625 129 145 7 209 -4 268 -47 42 -31 140
-152 218 -270 63 -95 165 -192 220 -208 89 -27 165 -11 237 48 26 22 58 40 70
40 11 0 53 -11 91 -25 86 -30 116 -31 172 -4 51 25 94 82 119 158 24 75 14
193 -30 351 -48 174 -70 225 -126 302 -91 124 -243 218 -465 289 -71 23 -184
59 -250 79 -66 21 -156 46 -199 55 -79 16 -327 37 -418 35 -26 0 -104 4 -173
10 -105 8 -139 7 -202 -6 -41 -8 -77 -13 -80 -10 -3 2 22 18 56 35 67 34 88
63 98 136 3 25 15 58 26 72 27 34 128 79 197 88 82 10 119 24 133 51 l13 25
33 -46 c18 -25 45 -52 61 -60 68 -35 251 -36 525 -1 98 12 130 20 175 45 30
17 69 31 86 31 17 0 79 14 137 30 l107 30 84 -21 84 -21 70 37 c88 46 184 132
211 188 40 83 24 153 -56 238 -53 57 -96 83 -125 76 -18 -5 -19 -1 -12 62 4
46 -1 126 -15 247 -37 312 -43 331 -137 472 -66 97 -107 134 -214 193 -142 78
-145 80 -129 89 13 9 368 681 363 688 -1 2 -73 -42 -160 -97 -86 -56 -158
-100 -161 -97 -2 2 1 79 7 171 7 92 9 169 6 172 -3 3 -78 -45 -168 -108 -354
-245 -599 -443 -666 -538 -25 -36 -53 -70 -62 -76 -8 -5 -87 -10 -175 -11
-142 0 -185 -5 -380 -41 -374 -70 -410 -74 -865 -98 -157 -8 -317 -17 -356
-19 -85 -5 -126 -21 -196 -77 -112 -89 -182 -106 -488 -119 -297 -13 -352 -18
-450 -41 -47 -11 -128 -29 -181 -40 -54 -10 -141 -35 -195 -55 -277 -100 -760
-165 -1524 -205 -154 -8 -317 -9 -515 -3 -159 4 -560 9 -890 9 l-600 1 -66 32
c-134 64 -228 178 -279 339 -17 52 -46 179 -64 281 -34 185 -42 268 -71 697
-47 702 -70 910 -134 1161 -63 253 -128 428 -231 634 -116 231 -244 422 -373
557 -92 96 -102 102 -397 261 -464 250 -710 332 -855 286z m311 -99 c195 -70
704 -327 820 -415 142 -107 370 -444 499 -738 97 -221 191 -547 225 -786 20
-132 48 -467 75 -871 28 -419 37 -511 66 -675 37 -209 63 -306 105 -398 62
-136 155 -231 288 -293 l68 -32 677 -5 c1168 -8 1368 -6 1621 12 618 44 1020
104 1235 183 82 30 159 51 350 93 118 27 173 33 350 41 413 18 507 34 614 107
154 106 108 95 471 112 488 23 598 35 962 102 201 37 240 41 388 42 192 1 197
3 258 93 47 70 89 109 258 244 131 103 457 339 469 339 13 0 -7 -274 -21 -285
-8 -7 -14 -49 -18 -125 -3 -63 -8 -169 -12 -236 l-6 -120 117 -65 c146 -80
191 -118 265 -230 69 -104 77 -136 110 -417 15 -127 20 -204 15 -253 -6 -57
-4 -74 10 -95 14 -21 23 -25 48 -21 24 3 41 -2 66 -22 46 -35 91 -107 91 -146
0 -65 -73 -145 -200 -218 l-45 -26 -80 20 c-88 23 -93 23 -219 -16 -49 -14
-98 -24 -109 -21 -11 3 -50 -10 -91 -31 -86 -44 -207 -62 -456 -69 -198 -6
-212 -2 -279 94 -50 73 -81 91 -117 67 -26 -16 -30 -44 -14 -75 12 -22 13 -21
-98 -39 -78 -13 -182 -62 -216 -101 -14 -17 -28 -47 -32 -68 -16 -93 -17 -95
-83 -130 -70 -38 -91 -68 -73 -107 19 -42 50 -50 136 -32 67 13 98 13 264 1
l187 -14 258 -86 c230 -77 271 -94 387 -161 124 -72 133 -80 217 -181 48 -58
96 -116 106 -129 10 -13 38 -85 61 -161 l42 -137 -17 -115 c-10 -63 -18 -121
-18 -127 -1 -7 -11 -13 -24 -13 -25 0 -57 -19 -103 -62 -37 -35 -111 -47 -169
-28 -46 15 -150 118 -190 187 -40 69 -144 201 -201 254 -78 72 -121 84 -304
83 -231 -1 -488 -50 -675 -129 -164 -69 -147 -68 -684 -66 -454 2 -557 7 -599
30 -9 5 -44 42 -78 83 -111 134 -165 145 -354 67 l-105 -43 -120 4 c-284 10
-298 7 -408 -78 -76 -58 -186 -97 -401 -141 -231 -48 -366 -61 -691 -67 -205
-4 -357 -12 -480 -26 -206 -23 -377 -26 -485 -9 -143 24 -434 93 -639 152
-319 92 -526 126 -891 149 -253 16 -373 -1 -586 -81 -250 -94 -390 -170 -575
-311 -218 -166 -299 -246 -471 -469 -93 -120 -196 -213 -282 -254 -39 -18
-138 -54 -221 -80 -223 -69 -279 -92 -375 -156 -167 -112 -362 -353 -592 -732
-154 -256 -345 -689 -393 -895 -14 -59 -34 -122 -45 -140 -18 -28 -25 -32 -65
-32 -39 0 -52 6 -89 40 -24 22 -60 71 -80 109 -41 79 -44 114 -21 255 12 78
26 115 105 276 109 224 125 285 92 351 -12 24 -18 46 -14 49 5 3 96 84 203
180 234 212 470 382 774 558 197 114 222 131 395 283 102 88 275 250 385 359
236 233 371 339 650 510 150 92 569 364 593 385 1 1 -6 12 -16 25 l-18 23
-180 -120 c-98 -66 -279 -181 -402 -256 -301 -185 -441 -294 -707 -557 -121
-119 -288 -276 -371 -348 -136 -118 -175 -145 -369 -258 -317 -184 -545 -349
-801 -581 -178 -161 -218 -193 -243 -193 -41 0 -93 -48 -120 -110 -12 -28 -33
-97 -47 -153 -14 -56 -38 -143 -54 -194 -16 -50 -43 -169 -59 -265 -30 -172
-99 -429 -129 -480 -38 -64 -92 -61 -149 10 -21 26 -86 98 -145 159 -75 80
-116 132 -139 178 -49 99 -44 118 107 423 149 301 190 372 314 547 161 225
205 296 284 452 98 195 140 249 285 372 153 129 244 229 336 366 106 160 149
248 201 413 114 367 172 477 442 837 274 365 423 536 802 920 374 379 408 417
441 491 43 94 52 173 46 383 -4 133 -14 248 -37 401 -29 199 -31 228 -26 390
4 96 9 351 12 567 8 527 -5 655 -100 937 -65 193 -209 552 -275 685 -102 202
-243 376 -349 428 -45 22 -60 24 -105 19 -142 -19 -135 -20 -203 14 -147 72
-333 240 -384 345 -39 80 -45 132 -26 197 21 73 66 124 124 143 73 23 151 13
298 -40z m9934 -3222 c-51 -98 -96 -182 -101 -187 -13 -14 -10 73 5 173 7 51
18 86 27 91 8 5 46 29 84 54 39 25 72 46 73 46 2 0 -38 -80 -88 -177z m-610
-2442 c172 -46 470 -141 538 -172 152 -69 275 -177 331 -292 42 -86 101 -305
107 -402 5 -67 3 -89 -15 -137 -23 -59 -64 -103 -106 -114 -22 -5 -120 20
-138 35 -4 4 1 65 12 137 l19 129 -45 152 -46 153 -115 137 -114 138 -133 78
c-105 61 -167 89 -292 132 -171 58 -172 71 -3 26z"/>
</g>
</svg>
