<?xml version="1.0" standalone="no"?>
<!DOCTYPE svg PUBLIC "-//W3C//DTD SVG 20010904//EN"
 "http://www.w3.org/TR/2001/REC-SVG-20010904/DTD/svg10.dtd">
<svg version="1.0" xmlns="http://www.w3.org/2000/svg"
 width="1280.000000pt" height="960.000000pt" viewBox="0 0 1280.000000 960.000000"
 preserveAspectRatio="xMidYMid meet">
<metadata>
Created by potrace 1.15, written by Peter Selinger 2001-2017
</metadata>
<g transform="translate(0.000000,960.000000) scale(0.100000,-0.100000)"
fill="#000000" stroke="none">
<path d="M2370 9109 c-146 -37 -295 -129 -399 -246 -65 -73 -111 -162 -111
-217 l0 -41 -108 -37 c-473 -160 -793 -486 -843 -858 -27 -199 59 -388 212
-466 56 -28 157 -54 212 -54 35 0 37 -1 37 -33 0 -19 7 -56 15 -83 8 -27 15
-50 15 -51 0 0 -20 -11 -44 -22 -78 -38 -124 -130 -133 -268 -9 -136 24 -259
88 -323 42 -42 137 -87 213 -101 150 -27 323 52 441 204 l50 64 105 7 c58 4
136 13 175 20 l69 14 70 -55 c78 -61 205 -125 284 -143 117 -27 252 -12 370
41 293 132 561 539 565 859 1 94 -12 144 -54 201 -9 12 -3 31 34 95 25 43 64
126 87 182 120 303 127 572 19 735 -59 89 -174 160 -304 187 -61 13 -243 19
-349 11 l-59 -5 -36 67 c-148 276 -360 384 -621 316z m232 -30 c152 -32 276
-143 364 -326 l36 -73 66 7 c114 13 310 7 382 -12 288 -76 387 -310 291 -688
-31 -118 -99 -281 -159 -376 l-53 -85 25 -20 c51 -42 74 -141 56 -251 -56
-357 -331 -705 -624 -790 -75 -22 -207 -22 -282 0 -98 28 -204 89 -285 162
l-37 34 -89 -17 c-118 -23 -323 -23 -418 0 -174 42 -326 159 -399 306 -43 89
-66 167 -66 233 l0 47 -55 0 c-433 0 -551 473 -221 885 159 199 401 351 692
435 l81 23 -5 47 c-6 69 31 144 115 232 173 180 396 266 585 227z m-1165
-2141 c51 -106 147 -205 263 -271 48 -27 206 -77 246 -77 13 0 24 -4 24 -10 0
-5 -35 -45 -77 -87 -156 -157 -323 -190 -489 -99 -106 59 -151 162 -142 331 7
129 45 211 113 241 41 18 39 19 62 -28z"/>
<path d="M2229 8608 c-73 -96 -109 -193 -109 -295 0 -35 -2 -63 -4 -63 -1 0
-34 20 -72 45 -106 70 -246 115 -359 115 -91 0 -95 -4 -95 -74 0 -115 67 -274
160 -378 28 -31 50 -58 50 -60 0 -1 -25 -4 -55 -5 -70 -2 -148 -37 -232 -105
-81 -66 -203 -211 -203 -242 0 -34 53 -110 96 -137 31 -19 55 -24 129 -27 80
-3 108 1 249 37 87 23 161 39 164 36 3 -3 0 -5 -6 -5 -6 0 -36 -23 -67 -52
-63 -57 -101 -123 -115 -199 -18 -95 30 -244 110 -341 27 -32 36 -36 94 -43
127 -13 233 30 300 122 40 54 77 149 106 273 30 124 30 124 52 21 56 -274 129
-358 325 -378 43 -4 67 -2 77 6 8 7 23 47 32 88 21 95 14 178 -27 293 -16 47
-32 93 -36 103 -4 14 11 8 58 -23 136 -87 305 -105 437 -45 35 15 68 37 74 48
65 123 -25 234 -260 323 -48 18 -80 35 -72 38 8 2 33 10 55 16 67 21 170 79
216 123 57 54 141 175 137 196 -9 47 -236 75 -393 48 -49 -9 -91 -14 -93 -13
-2 2 15 28 37 57 72 95 131 274 115 348 -23 106 -55 135 -132 119 -120 -25
-248 -118 -339 -245 l-47 -66 -14 69 c-35 179 -125 277 -273 299 -43 6 -47 5
-70 -27z m148 -53 c80 -40 120 -109 148 -255 9 -47 18 -95 20 -107 5 -20 2
-21 -54 -16 -79 7 -108 -1 -131 -40 -37 -59 -22 -129 50 -244 22 -35 3 -40
-30 -8 -42 40 -72 125 -74 207 0 38 -2 68 -4 68 -1 0 -14 -7 -28 -16 -24 -16
-26 -16 -55 11 -73 71 -63 244 21 375 38 59 59 63 137 25z m659 -50 c13 -20
16 -41 12 -98 -9 -137 -97 -292 -216 -381 -83 -62 -68 -89 31 -57 74 24 187
47 278 56 64 7 206 -8 221 -23 12 -12 -56 -105 -108 -150 -83 -71 -174 -106
-354 -139 -31 -5 -46 -14 -48 -26 -2 -9 2 -19 10 -21 250 -74 360 -122 421
-182 70 -69 64 -123 -20 -161 -142 -65 -316 -27 -463 100 -45 39 -130 138
-130 152 0 6 20 21 45 33 78 38 59 69 -95 152 -106 56 -101 58 73 18 49 -11
90 -18 91 -16 2 1 6 30 10 64 6 50 4 63 -10 75 -31 26 -187 11 -278 -26 -16
-7 -17 -6 -6 14 15 30 84 60 181 79 44 8 79 20 79 27 0 19 -58 103 -79 115
-48 25 -114 -29 -180 -147 -24 -43 -31 -50 -26 -28 24 120 63 195 105 205 17
4 26 15 31 38 16 80 148 241 243 297 47 28 117 53 148 54 10 1 25 -10 34 -24z
m-1221 -167 c71 -15 179 -68 258 -128 81 -61 116 -112 110 -157 -7 -45 39
-124 107 -185 l55 -50 -44 23 c-46 26 -145 114 -154 139 -8 22 -31 -8 -78
-104 -65 -132 -50 -164 70 -152 36 4 112 18 169 32 57 13 109 24 115 24 44 -2
-173 -72 -305 -100 -32 -6 -58 -16 -58 -21 0 -20 96 -112 134 -129 30 -14 45
-16 67 -8 31 11 92 73 134 137 16 23 30 40 32 38 9 -9 -35 -103 -64 -137 -18
-21 -33 -40 -33 -43 0 -8 108 -15 149 -10 52 7 56 20 37 143 -8 52 -13 97 -10
99 2 2 15 -6 29 -19 27 -26 55 -104 55 -156 0 -23 4 -31 16 -30 22 1 122 -176
165 -293 35 -93 49 -233 32 -301 -9 -33 -12 -35 -54 -38 -125 -9 -210 71 -254
239 -10 35 -25 113 -35 172 -10 60 -22 113 -28 119 -31 31 -65 -33 -112 -212
-44 -172 -64 -220 -112 -275 -57 -65 -104 -85 -200 -85 -74 0 -77 1 -104 33
-15 17 -41 61 -58 97 -27 56 -31 76 -31 145 0 59 5 90 20 120 43 88 170 180
267 192 71 10 74 45 4 64 -56 15 -123 6 -306 -43 -126 -34 -172 -42 -247 -42
-102 -1 -127 10 -170 74 l-23 32 22 32 c12 17 61 70 108 117 148 149 236 176
398 122 91 -30 117 -26 117 18 0 21 -4 24 -32 21 -24 -2 -42 6 -85 41 -102 83
-181 198 -224 324 -29 86 -31 130 -6 136 22 5 92 -1 157 -15z"/>
<path d="M4570 5814 c-354 -412 -366 -425 -395 -419 -16 3 -104 8 -195 12
-302 10 -480 -35 -882 -223 -89 -42 -196 -89 -236 -105 l-73 -29 -92 34 c-554
207 -932 347 -951 352 -23 5 -23 5 65 -522 l88 -527 -15 -80 c-9 -45 -33 -159
-55 -255 -127 -564 -123 -871 12 -1064 11 -14 19 -29 19 -34 0 -4 -378 -4
-840 0 l-840 7 0 -30 0 -31 973 -1 c534 0 1778 -4 2762 -8 l1790 -7 57 -56
c141 -136 339 -167 410 -65 12 18 23 34 24 36 2 1 13 -6 25 -18 15 -14 36 -21
63 -21 36 0 46 6 96 58 l55 58 23 -28 c44 -53 137 -41 204 26 16 16 29 23 33
16 4 -7 224 -10 690 -10 l685 0 6 -25 c10 -39 -2 -55 -39 -55 -60 0 -276 -41
-381 -71 -161 -48 -278 -110 -362 -193 -84 -84 -110 -144 -101 -233 7 -67 52
-166 111 -241 51 -65 61 -100 126 -419 85 -412 137 -556 240 -661 255 -260
1067 -278 1335 -31 79 73 93 115 125 379 24 190 61 419 91 559 19 88 24 99 59
128 74 63 110 174 110 337 l0 110 -53 51 c-130 126 -356 219 -657 271 -58 9
-183 18 -317 21 -206 5 -223 7 -223 23 0 10 -3 25 -6 33 -5 14 233 15 2170 10
l2176 -6 0 25 0 25 -1442 6 c-793 4 -1771 7 -2173 7 l-732 0 -6 46 c-2 26 -1
105 4 178 4 72 8 142 9 156 1 24 1 24 15 6 33 -44 363 -85 538 -67 139 14 212
37 258 81 49 47 52 89 11 146 -27 37 -28 41 -14 74 31 78 -6 164 -96 221 -81
51 -135 64 -272 64 -115 0 -130 -2 -183 -27 -107 -50 -181 -129 -209 -220 -6
-21 -14 -38 -17 -38 -3 1 -24 30 -46 67 -60 99 -160 194 -249 238 -62 31 -88
38 -158 42 -128 8 -224 -24 -311 -106 -70 -66 -96 -149 -62 -198 15 -21 13
-24 -28 -66 -48 -48 -62 -83 -47 -121 28 -74 172 -89 590 -61 122 9 224 14
225 13 1 -2 -1 -32 -6 -68 -5 -36 -9 -131 -11 -212 l-2 -148 -396 0 c-217 0
-520 3 -673 7 -249 6 -277 8 -271 22 40 92 48 130 48 241 0 105 -2 120 -28
177 -31 68 -89 129 -155 162 -103 53 -277 65 -441 31 -52 -11 -100 -20 -106
-20 -7 0 -8 22 -1 73 13 106 2 417 -18 507 -56 253 -147 413 -386 677 -174
193 -235 282 -254 373 -4 19 -31 89 -59 155 -56 126 -92 220 -177 450 -46 126
-127 300 -191 412 l-24 41 -364 -424z m454 121 c29 -66 77 -187 106 -270 29
-82 80 -211 112 -285 33 -74 68 -163 78 -196 40 -138 89 -214 240 -379 203
-220 288 -342 349 -500 64 -165 76 -239 76 -480 0 -115 -4 -231 -8 -256 l-8
-47 -87 -42 c-48 -22 -115 -59 -149 -82 -55 -35 -65 -47 -84 -96 -33 -88 -36
-185 -10 -268 12 -38 25 -75 27 -81 5 -10 -109 -13 -549 -13 -1190 0 -3196 14
-3191 22 3 5 -7 23 -22 41 -84 99 -121 288 -103 522 11 146 36 287 94 545 73
322 74 251 -11 770 -41 250 -77 468 -80 484 -5 25 -4 28 12 24 11 -3 233 -86
494 -183 l475 -178 63 22 c34 12 144 60 245 107 289 137 452 194 637 223 88
15 327 13 422 -3 l77 -12 347 404 347 405 23 -39 c13 -21 48 -93 78 -159z
m2819 -2129 c74 -36 164 -119 220 -204 74 -112 70 -123 -20 -48 -148 125 -292
172 -398 132 -41 -16 -95 -65 -95 -87 0 -5 16 -9 35 -9 19 0 35 5 35 11 0 5
17 17 37 26 92 38 234 -15 364 -135 38 -35 68 -66 66 -68 -6 -6 -448 -34 -542
-34 -107 0 -193 14 -214 35 -13 12 -8 20 35 62 27 26 62 57 79 69 l30 21 -43
22 c-34 18 -42 26 -42 50 0 61 89 144 189 176 73 23 193 15 264 -19z m878 -42
c150 -44 216 -140 154 -224 l-25 -33 40 -43 c22 -24 40 -53 40 -64 0 -87 -375
-125 -654 -65 -74 16 -86 25 -86 67 0 61 104 124 245 149 84 14 317 8 338 -9
12 -10 19 -9 36 5 19 16 20 20 8 36 -18 26 -81 36 -217 36 -137 1 -224 -12
-302 -43 -32 -13 -58 -22 -58 -20 0 35 68 127 121 165 81 57 244 77 360 43z
m-2206 -259 c80 -27 139 -75 171 -141 26 -54 28 -67 28 -169 0 -89 -4 -121
-22 -166 -42 -105 -124 -175 -177 -151 -21 10 -25 18 -25 59 0 28 11 76 27
116 25 64 25 69 10 85 -28 27 -49 4 -82 -89 -49 -135 -125 -236 -172 -227 -25
5 -59 70 -73 140 -11 56 -13 59 -38 56 -23 -3 -27 -7 -24 -33 1 -16 4 -60 5
-97 2 -62 0 -70 -26 -95 -24 -25 -35 -28 -90 -28 -158 1 -327 173 -344 348 -8
87 17 183 57 218 76 65 284 154 430 185 87 18 278 12 345 -11z m1596 -803 c6
-20 20 -54 30 -74 l19 -38 -22 -4 c-13 -2 -72 -9 -131 -16 -212 -22 -393 -84
-456 -156 -33 -37 -37 -57 -21 -98 12 -32 11 -32 -49 -1 -54 27 -101 76 -101
105 0 29 57 88 112 116 44 22 63 44 38 44 -24 0 -107 -51 -139 -84 -57 -59
-45 -121 34 -182 50 -38 325 -140 442 -163 262 -53 584 -53 846 0 104 21 163
41 322 110 113 49 195 117 195 161 0 57 -77 110 -220 151 -125 36 -160 41
-160 23 0 -9 24 -19 76 -31 161 -36 258 -83 270 -131 8 -32 -30 -75 -99 -110
l-48 -25 7 26 c34 135 -251 246 -678 262 l-157 6 -24 56 c-14 31 -28 66 -32
79 l-6 22 158 0 c430 0 820 -112 982 -283 l34 -36 -5 -114 c-4 -107 -7 -120
-39 -183 -23 -47 -43 -74 -64 -84 -16 -8 -37 -22 -48 -31 -31 -28 -166 -80
-284 -110 -183 -46 -330 -62 -583 -62 -363 0 -640 48 -831 144 -105 52 -212
202 -225 315 -21 174 220 338 599 409 91 17 228 33 239 28 3 -2 12 -20 19 -41z
m-571 -803 c419 -157 1166 -152 1553 11 39 16 72 28 75 26 2 -2 -1 -21 -7 -42
-19 -72 -61 -327 -87 -529 -31 -244 -38 -280 -70 -327 -125 -190 -675 -264
-1062 -142 -82 26 -176 76 -221 117 -41 39 -83 108 -117 193 -38 99 -58 178
-119 470 -25 120 -48 230 -52 243 -5 21 -4 23 13 16 10 -4 53 -20 94 -36z"/>
<path d="M4515 4890 c-172 -11 -269 -38 -352 -98 -84 -63 -121 -174 -102 -314
10 -73 66 -258 78 -258 3 0 67 64 142 143 74 78 217 228 317 333 100 106 182
195 182 198 0 7 -101 6 -265 -4z m150 -62 c-27 -33 -216 -228 -220 -228 -1 0
2 21 7 47 13 58 -2 114 -39 142 -43 34 -61 27 -88 -32 -47 -102 -51 -191 -10
-253 16 -25 15 -26 -34 -82 -27 -31 -67 -74 -89 -95 l-39 -38 -11 28 c-26 63
-45 162 -45 234 0 92 23 149 78 198 83 72 173 93 488 109 l29 2 -27 -32z"/>
<path d="M3031 4595 c-127 -29 -439 -169 -410 -185 23 -12 843 -310 855 -310
27 0 -25 249 -71 340 -69 137 -205 193 -374 155z m205 -42 c17 -6 17 -8 -6
-13 -13 -3 -33 -21 -44 -39 -23 -40 -33 -150 -17 -205 6 -22 9 -41 7 -43 -4
-4 -449 157 -459 167 -8 7 128 71 224 106 112 40 232 51 295 27z m144 -157
c25 -54 60 -189 60 -230 0 -11 -18 -7 -82 16 -46 17 -85 32 -87 34 -1 1 11 20
28 41 39 49 59 129 44 178 -17 55 5 31 37 -39z"/>
<path d="M3814 4054 c-35 -17 -64 -61 -64 -97 0 -27 44 -87 64 -87 31 0 46
-30 71 -140 44 -191 35 -280 -34 -329 -28 -20 -127 -51 -163 -51 -13 0 -18 -8
-18 -30 0 -34 2 -34 85 -19 140 26 216 107 219 235 l1 62 62 -64 c89 -91 127
-109 238 -109 132 0 187 25 157 72 -6 10 -19 9 -56 -2 -63 -19 -147 -19 -194
0 -22 9 -75 55 -134 117 -94 99 -98 105 -113 173 -16 66 -15 71 1 80 60 34 87
91 63 134 -35 62 -119 88 -185 55z"/>
<path d="M1275 6172 c-105 -51 -144 -117 -145 -246 0 -179 89 -359 188 -381
87 -19 188 60 259 202 92 183 82 341 -26 418 -38 27 -52 30 -129 33 -79 3 -93
0 -147 -26z m251 -38 c51 -37 66 -68 71 -141 15 -204 -179 -466 -294 -398
-100 59 -168 318 -115 437 21 49 72 95 124 115 53 20 181 12 214 -13z"/>
<path d="M1350 5357 c-47 -16 -76 -64 -90 -145 -20 -123 19 -272 87 -332 27
-24 43 -30 80 -30 43 0 51 4 94 49 62 64 91 141 92 241 0 83 -12 118 -60 161
-58 55 -141 78 -203 56z m144 -60 c58 -32 80 -76 79 -156 -2 -125 -74 -251
-144 -251 -45 0 -66 16 -94 70 -65 127 -49 328 28 360 30 13 84 3 131 -23z"/>
</g>
</svg>
