<?xml version="1.0" standalone="no"?>
<!DOCTYPE svg PUBLIC "-//W3C//DTD SVG 20010904//EN"
 "http://www.w3.org/TR/2001/REC-SVG-20010904/DTD/svg10.dtd">
<svg version="1.0" xmlns="http://www.w3.org/2000/svg"
 width="1280.000000pt" height="1280.000000pt" viewBox="0 0 1280.000000 1280.000000"
 preserveAspectRatio="xMidYMid meet">
<metadata>
Created by potrace 1.15, written by Peter Selinger 2001-2017
</metadata>
<g transform="translate(0.000000,1280.000000) scale(0.100000,-0.100000)"
fill="#000000" stroke="none">
<path d="M647 12792 c-17 -27 -126 -467 -186 -747 -312 -1476 -468 -3460 -448
-5692 5 -455 3 -681 -4 -701 -8 -25 -7 -34 7 -51 22 -25 34 -19 34 17 0 21 2
24 10 12 9 -13 12 -12 25 4 8 11 15 25 15 32 0 17 36 38 108 62 84 29 188 30
243 1 54 -27 125 -93 161 -148 63 -100 15 -225 -107 -277 -50 -22 -157 -22
-206 -2 -54 23 -110 77 -135 133 -29 62 -30 104 -4 155 37 72 114 89 207 46
48 -23 63 -24 63 -5 0 5 -22 20 -50 34 -66 33 -143 34 -191 2 -37 -25 -79 -90
-79 -124 0 -12 -9 -45 -20 -73 -39 -98 -22 -213 47 -328 72 -119 176 -202 252
-202 44 0 36 22 -13 32 -121 25 -263 216 -274 369 -2 36 0 74 5 84 9 15 13 13
31 -17 12 -20 44 -56 71 -81 165 -155 462 -54 464 158 1 83 -62 177 -166 249
-71 49 -154 64 -249 44 l-68 -15 -22 56 c-32 81 -32 278 1 406 33 132 118 301
183 365 59 58 168 115 250 130 72 14 197 -9 242 -44 69 -52 146 -200 146 -278
0 -46 -38 -107 -88 -142 -31 -22 -56 -31 -100 -34 -111 -8 -198 37 -252 130
-25 45 -30 63 -30 123 0 84 22 129 75 151 64 26 96 18 171 -43 45 -36 54 -40
54 -19 0 17 -73 84 -106 96 -14 6 -47 10 -74 10 -41 0 -55 -5 -85 -32 -20 -17
-47 -52 -60 -77 -13 -25 -35 -62 -49 -81 -90 -120 -49 -403 78 -535 39 -42 89
-65 104 -50 4 4 -2 12 -12 19 -79 46 -153 160 -176 272 -17 82 -10 213 14 249
l19 29 17 -50 c48 -149 147 -227 286 -226 103 1 188 53 230 140 57 121 -80
376 -222 414 -51 14 -52 21 -29 111 43 167 186 340 371 452 84 51 173 77 269
78 99 1 172 -21 257 -77 105 -69 132 -130 126 -280 -4 -108 -17 -139 -76 -181
-38 -26 -52 -30 -106 -29 -75 2 -125 23 -179 77 -52 52 -77 109 -77 177 0 110
36 175 115 206 43 16 47 16 91 -1 50 -19 89 -67 100 -123 7 -35 21 -49 34 -36
14 14 -24 112 -56 146 -58 62 -131 74 -204 34 -25 -14 -73 -39 -108 -57 -72
-37 -111 -79 -151 -164 -55 -116 -70 -290 -30 -371 24 -50 46 -71 59 -58 6 6
0 23 -15 45 -80 112 -12 408 114 498 l29 21 -5 -103 c-5 -95 -4 -106 20 -153
27 -54 94 -121 148 -150 24 -12 57 -18 109 -18 64 -1 82 3 122 26 25 15 55 43
67 61 26 42 43 154 35 226 l-6 58 93 55 c139 81 223 111 413 144 204 35 287
15 400 -99 65 -64 105 -130 125 -203 15 -56 0 -131 -45 -222 -46 -94 -84 -122
-169 -122 -122 0 -220 101 -233 242 -4 51 -1 66 27 122 54 109 132 153 216
121 67 -25 79 -45 86 -141 5 -81 12 -105 26 -91 12 13 15 112 4 154 -6 23 -25
56 -42 72 -45 45 -90 54 -217 40 -141 -14 -191 -38 -276 -130 -106 -115 -161
-252 -134 -333 19 -55 34 -41 30 29 -4 70 17 136 69 211 70 102 188 189 245
182 l25 -3 -31 -41 c-100 -137 -69 -332 68 -428 48 -33 140 -50 194 -35 75 20
145 111 182 238 30 101 15 169 -61 283 -54 82 -93 115 -197 169 -99 50 -108
59 -136 134 -27 74 -29 237 -5 329 37 139 119 300 201 394 46 53 144 110 226
132 87 23 318 2 318 -30 0 -3 -13 -19 -29 -34 l-30 -28 -29 20 c-47 34 -113
48 -161 34 -49 -15 -96 -53 -118 -96 -9 -17 -30 -47 -48 -67 -51 -56 -68 -123
-63 -237 5 -110 30 -187 82 -255 36 -47 90 -87 117 -87 32 0 21 24 -20 43 -45
20 -89 80 -121 162 -19 49 -24 80 -24 165 -1 94 1 109 23 144 l24 38 18 -58
c10 -33 37 -83 59 -112 37 -48 40 -57 40 -115 0 -86 18 -176 42 -209 38 -54
130 -84 206 -67 37 8 46 6 72 -13 22 -16 43 -22 80 -21 51 1 83 15 132 61 l27
24 48 -22 c26 -12 59 -27 71 -33 50 -24 191 -147 273 -239 118 -131 183 -220
227 -307 l37 -75 0 -135 c0 -119 -3 -143 -24 -194 -29 -75 -75 -120 -148 -147
-64 -24 -171 -36 -225 -26 -43 8 -104 64 -129 120 -26 57 -25 157 2 216 25 56
72 105 124 132 58 30 165 30 222 0 47 -24 87 -78 98 -129 11 -53 -24 -117 -84
-155 -49 -29 -67 -58 -38 -58 17 0 83 48 114 81 46 50 55 118 24 184 -28 61
-196 230 -253 254 -169 72 -410 48 -492 -49 -48 -58 -23 -71 30 -16 48 50 118
70 239 70 117 0 190 -19 261 -66 67 -46 68 -58 2 -58 -124 0 -219 -58 -273
-166 -24 -49 -29 -71 -29 -134 0 -84 22 -139 77 -197 17 -18 29 -33 26 -33 -2
0 -26 7 -53 15 -57 17 -237 20 -267 5 -39 -22 -16 -28 85 -23 88 5 114 2 177
-17 93 -28 205 -85 289 -149 69 -52 190 -172 190 -189 0 -5 -37 -17 -82 -25
-77 -14 -85 -14 -118 3 -123 63 -337 46 -442 -34 -19 -14 -42 -26 -51 -26 -25
0 -21 -13 19 -55 76 -81 76 -77 -3 -154 -39 -37 -78 -80 -88 -94 -9 -15 -22
-27 -28 -27 -22 0 -145 111 -179 161 -20 30 -51 100 -69 156 -34 102 -34 102
-81 124 -45 21 -56 22 -205 16 -104 -5 -178 -3 -216 4 -66 13 -116 3 -160 -31
-14 -11 -56 -64 -95 -117 -67 -95 -150 -183 -172 -183 -24 0 -250 -95 -312
-131 -83 -48 -171 -128 -204 -185 l-26 -44 -51 46 c-100 90 -239 135 -346 113
-175 -36 -410 -230 -499 -411 -44 -90 -71 -193 -54 -210 13 -13 17 -5 36 72
47 189 210 377 413 477 72 36 83 38 168 38 82 0 97 -3 157 -33 42 -21 83 -51
112 -83 52 -58 61 -95 54 -218 -7 -119 -51 -178 -141 -188 -82 -10 -148 26
-198 106 -25 39 -29 55 -29 118 0 86 15 129 59 166 82 68 170 33 201 -81 7
-26 17 -42 26 -42 33 0 -17 137 -60 165 -15 10 -45 20 -69 22 -35 4 -56 -2
-134 -42 -162 -81 -231 -189 -241 -378 -4 -80 -1 -105 13 -137 12 -26 25 -40
37 -40 18 0 18 1 -2 40 -40 78 -22 221 43 343 28 53 93 124 104 114 2 -3 -1
-33 -7 -68 -16 -90 -5 -150 38 -207 41 -55 53 -65 106 -93 32 -17 51 -20 100
-16 34 3 70 8 82 12 18 6 23 0 39 -42 33 -89 107 -223 137 -248 54 -45 142
-28 368 73 117 53 131 57 215 60 102 4 170 -15 244 -68 62 -45 75 -79 76 -192
0 -113 -12 -138 -86 -176 -55 -29 -121 -25 -185 13 -116 68 -130 252 -25 322
69 46 145 19 177 -62 9 -25 23 -45 30 -45 21 0 17 27 -12 81 -63 114 -201 111
-269 -5 -21 -36 -25 -56 -25 -122 -1 -77 -1 -79 -32 -99 -52 -33 -70 -66 -76
-140 -5 -67 12 -219 28 -245 7 -11 21 -8 77 17 133 60 361 98 544 91 109 -5
120 -7 195 -43 137 -66 250 -207 262 -327 8 -83 3 -89 -135 -177 -69 -45 -132
-81 -139 -81 -23 0 -97 65 -116 102 -31 60 -34 135 -6 187 35 68 86 104 156
109 106 7 163 -60 137 -160 -13 -46 -7 -67 14 -54 5 3 14 28 21 56 15 63 2
108 -45 149 -46 40 -99 53 -230 55 -104 1 -113 -1 -169 -29 -72 -36 -158 -113
-190 -169 -19 -32 -46 -122 -46 -151 0 -2 33 -1 74 2 55 4 88 1 131 -13 68
-21 208 -109 202 -127 -4 -15 -97 -82 -190 -139 -38 -23 -74 -50 -80 -60 -7
-10 -15 -18 -18 -18 -4 0 -26 33 -50 73 -113 192 -234 303 -378 348 -35 10
-66 17 -69 15 -10 -10 8 -36 25 -36 10 0 51 -16 92 -35 116 -56 244 -191 315
-332 14 -29 26 -57 26 -62 0 -5 -23 -26 -51 -47 -49 -35 -52 -36 -62 -18 -24
42 -126 140 -196 185 -40 27 -103 58 -138 69 -76 23 -179 26 -228 6 -36 -15
-79 -72 -91 -119 l-6 -27 -69 65 c-69 64 -188 135 -229 135 -39 0 -19 -20 53
-53 155 -72 287 -242 357 -460 46 -141 10 -294 -95 -406 -56 -60 -96 -75 -181
-68 -130 10 -204 74 -204 174 0 157 165 257 300 183 65 -36 93 -83 87 -143 -6
-65 -36 -95 -105 -106 -58 -9 -67 -14 -57 -31 5 -8 21 -10 48 -6 142 23 180
113 118 278 -31 83 -59 124 -125 177 -50 41 -162 94 -235 111 -129 30 -259
-13 -316 -104 -28 -46 -30 -56 -30 -145 0 -75 5 -111 24 -166 48 -142 127
-277 218 -376 l53 -57 -75 -35 c-43 -21 -98 -58 -129 -87 -29 -27 -56 -50 -59
-50 -4 0 -7 39 -7 87 0 107 -19 152 -95 222 -117 106 -311 150 -448 101 -157
-57 -341 -197 -451 -344 -21 -27 -35 -55 -32 -63 4 -9 -5 -18 -24 -25 -36 -12
-42 -41 -7 -33 68 15 147 25 192 25 61 0 154 -26 161 -44 3 -8 18 -16 34 -19
78 -16 233 -232 233 -326 0 -116 -141 -199 -290 -171 -92 17 -173 96 -173 169
0 83 88 204 157 217 117 22 194 -59 177 -186 -5 -42 -4 -50 9 -50 11 0 18 14
22 44 14 93 -18 172 -85 208 -31 17 -48 18 -155 13 -94 -5 -131 -12 -170 -29
-65 -30 -139 -95 -134 -120 3 -15 11 -12 50 22 52 46 110 79 157 88 36 7 42
-4 14 -29 -31 -28 -66 -109 -70 -163 -3 -37 1 -61 16 -91 21 -41 84 -103 104
-103 27 0 -5 -12 -79 -30 -110 -26 -193 -59 -193 -76 0 -18 -6 -19 97 15 103
35 243 56 324 48 178 -16 376 -212 373 -367 -2 -62 -30 -144 -73 -213 -67
-105 -189 -115 -289 -24 -61 57 -85 114 -85 202 0 131 85 235 191 235 93 0
150 -74 138 -181 -4 -46 -3 -59 8 -59 28 0 36 117 12 173 -30 72 -118 116
-198 97 -24 -5 -68 -10 -99 -10 -111 0 -247 -105 -322 -248 -51 -96 -64 -165
-43 -217 9 -21 19 -35 23 -31 4 3 7 41 7 84 1 68 5 84 36 141 61 113 159 205
248 232 51 15 63 7 34 -24 -11 -12 -32 -47 -46 -77 -63 -134 -2 -316 128 -382
62 -32 145 -35 199 -9 75 36 155 181 165 297 4 59 2 70 -31 137 -44 89 -136
183 -225 230 l-64 34 56 32 c116 65 142 166 76 295 -38 75 -131 182 -186 217
-30 18 -35 26 -29 48 14 59 67 150 114 195 52 48 78 59 66 29 -32 -84 -30
-194 4 -261 50 -98 161 -168 255 -160 74 6 142 42 174 91 15 23 35 49 44 59
10 10 18 22 18 26 0 5 26 35 58 67 66 67 175 125 235 125 21 0 45 6 52 14 15
15 142 40 170 34 13 -2 12 -9 -8 -38 -52 -76 -151 -256 -191 -348 -60 -135
-94 -238 -125 -377 l-27 -120 -84 -58 c-224 -152 -354 -317 -395 -501 -18 -79
-13 -114 12 -81 7 11 13 29 13 42 0 43 41 147 86 220 52 84 211 239 303 296
l61 37 0 -114 c0 -99 -3 -120 -25 -167 -68 -151 -76 -327 -18 -391 36 -40 43
-13 13 47 -34 68 -22 203 29 319 l18 41 22 -66 c61 -183 163 -285 375 -374
299 -125 700 -222 1136 -275 1063 -128 2163 -73 3020 151 197 52 477 144 600
199 133 58 124 58 159 7 47 -68 128 -136 211 -176 71 -34 80 -36 175 -35 186
1 407 86 570 220 30 24 57 44 60 44 3 0 5 -39 5 -87 1 -111 18 -163 94 -277
100 -150 244 -277 382 -336 78 -34 166 -60 200 -60 32 0 33 -2 39 -48 9 -66
15 -82 28 -82 9 0 12 34 12 117 0 92 4 125 17 149 48 88 192 179 284 179 68 0
127 -40 163 -108 48 -95 21 -232 -62 -302 -35 -31 -38 -35 -18 -35 75 0 153
150 137 266 -12 89 -82 178 -161 204 -83 27 -207 -17 -311 -113 -51 -47 -68
-79 -89 -171 l-6 -29 -65 7 c-184 19 -376 155 -516 367 -83 124 -93 155 -93
279 1 96 3 111 32 172 75 161 133 204 286 215 69 5 96 2 131 -11 193 -74 123
-382 -97 -428 -176 -37 -317 106 -227 231 11 17 49 43 86 61 63 30 79 56 26
44 -65 -16 -131 -64 -158 -116 -28 -54 -13 -137 36 -193 9 -11 29 -42 44 -68
55 -97 188 -151 371 -151 119 0 184 15 250 59 l35 24 51 -45 c62 -55 149 -100
175 -90 15 6 7 13 -41 39 -121 65 -190 138 -258 272 -58 117 -82 206 -82 315
0 89 2 99 34 158 20 37 60 87 97 121 53 50 72 61 119 71 126 26 284 -45 301
-136 14 -75 -20 -146 -94 -198 -37 -26 -54 -31 -115 -34 -65 -3 -77 0 -125 28
-42 24 -58 42 -74 77 -19 43 -19 47 -3 88 21 56 51 75 117 76 29 0 62 4 73 8
19 8 19 8 -4 21 -32 17 -127 7 -160 -18 -67 -50 -77 -93 -53 -235 16 -90 40
-134 107 -195 112 -102 275 -153 335 -104 33 27 21 37 -25 22 -117 -39 -336
95 -375 228 -5 18 -7 32 -5 32 2 0 20 -11 40 -24 110 -75 286 -40 360 72 31
48 43 132 26 185 -25 74 -138 136 -263 145 -56 3 -75 0 -115 -19 -66 -32 -163
-131 -199 -204 -27 -56 -29 -68 -29 -170 1 -97 5 -121 33 -205 18 -52 53 -131
79 -174 l46 -80 -27 -23 c-48 -41 -125 -56 -260 -51 -141 6 -210 27 -276 86
l-42 37 104 0 c94 0 107 2 149 27 51 30 108 89 136 140 13 24 18 55 18 113 0
69 -4 86 -27 127 -15 25 -45 57 -65 70 -34 21 -50 23 -166 24 l-128 1 -45 59
c-104 137 -195 386 -211 576 -5 71 -4 81 25 143 38 80 130 180 205 221 46 25
62 29 132 28 130 0 248 -60 281 -141 57 -134 -85 -303 -254 -303 -52 0 -156
44 -182 76 -54 68 -64 131 -27 185 32 49 79 69 160 69 51 0 68 3 65 13 -3 8
-30 13 -76 15 -86 3 -130 -14 -170 -66 -23 -30 -27 -45 -27 -96 1 -101 23
-215 49 -261 59 -99 218 -210 340 -235 61 -12 124 -1 146 25 19 23 5 29 -30
15 -79 -33 -238 20 -347 115 -48 42 -125 167 -111 180 3 3 33 -9 67 -27 108
-55 220 -50 318 15 90 60 134 158 118 262 -9 63 -50 107 -142 152 -65 32 -86
37 -163 41 -84 4 -90 3 -151 -29 -122 -65 -233 -205 -259 -326 -9 -39 -17 -53
-38 -63 -152 -70 -317 -71 -521 -4 -254 84 -372 188 -426 378 -10 33 -17 94
-18 142 0 144 49 214 201 286 73 35 112 34 173 -6 89 -59 126 -205 79 -314
-67 -156 -257 -205 -343 -89 -47 63 -42 123 18 202 35 45 43 65 26 65 -18 0
-88 -90 -99 -128 -17 -55 -15 -79 9 -129 18 -38 89 -103 112 -103 5 0 30 -15
56 -34 61 -44 100 -56 180 -56 157 0 329 87 376 189 17 38 16 71 -3 71 -5 0
-12 -13 -15 -30 -4 -16 -24 -49 -46 -73 -104 -112 -350 -164 -446 -93 -20 14
-20 15 0 21 147 45 229 154 228 301 -1 139 -107 263 -225 264 -37 0 -39 2 -74
72 -46 92 -64 222 -46 329 25 144 95 307 165 385 108 119 345 189 462 135 48
-22 150 -127 170 -175 55 -131 -69 -276 -235 -276 -96 0 -190 59 -234 147 -24
48 -21 123 7 164 46 70 130 87 211 44 54 -29 66 -31 66 -11 0 24 -98 66 -152
66 -56 0 -91 -16 -129 -57 -28 -30 -59 -84 -59 -104 0 -7 -12 -37 -27 -68 -48
-97 -31 -233 45 -356 54 -88 149 -165 204 -165 22 0 23 -3 23 -98 0 -69 4
-104 14 -115 23 -28 27 -11 17 61 -23 165 73 354 291 575 187 190 295 265 412
287 124 23 268 4 343 -45 74 -49 139 -218 123 -321 -13 -89 -128 -174 -234
-174 -84 0 -186 56 -226 124 -25 43 -46 143 -38 180 21 94 89 159 167 159 55
0 102 -28 145 -88 44 -62 70 -60 37 3 -25 48 -88 100 -136 113 -82 21 -120 2
-236 -116 -83 -84 -106 -113 -124 -161 -43 -115 -37 -310 12 -409 28 -55 77
-105 104 -105 38 0 36 17 -4 37 -123 64 -149 385 -43 535 14 21 29 38 32 38 3
0 9 -26 12 -59 10 -112 66 -199 162 -249 42 -22 63 -26 135 -26 95 -1 145 18
208 78 l33 31 -8 -45 c-13 -75 -8 -221 10 -263 20 -47 42 -50 32 -4 -38 176
-18 302 76 476 81 151 203 287 302 338 161 81 395 65 489 -34 41 -43 80 -137
85 -207 5 -56 2 -64 -25 -102 -112 -154 -394 -110 -447 70 -8 27 -15 62 -15
77 0 57 47 127 107 158 58 30 136 4 189 -63 27 -33 54 -47 54 -28 0 16 -57 87
-82 104 -44 29 -97 38 -147 26 -38 -9 -61 -26 -134 -102 -122 -125 -141 -168
-142 -306 0 -126 19 -196 70 -263 19 -25 35 -57 35 -71 0 -36 16 -32 62 15
128 132 361 210 578 195 147 -11 268 -89 329 -212 55 -109 35 -198 -64 -300
-51 -52 -55 -54 -107 -54 -101 0 -170 62 -189 168 -10 55 -9 66 10 105 11 23
38 60 60 81 34 33 46 38 98 43 53 5 62 3 90 -21 38 -32 49 -74 33 -131 -7 -23
-10 -51 -8 -61 7 -35 41 33 46 90 5 61 -14 106 -55 133 -43 28 -214 44 -283
26 -110 -28 -204 -99 -285 -213 -76 -107 -129 -152 -236 -196 -102 -42 -153
-89 -165 -150 -4 -22 1 -89 11 -161 12 -84 16 -147 11 -199 -10 -127 17 -168
183 -269 138 -85 152 -100 206 -222 98 -222 203 -361 313 -417 l53 -27 -36
-42 c-20 -23 -50 -71 -68 -106 -26 -54 -32 -78 -35 -155 -3 -76 0 -100 17
-145 34 -85 87 -159 185 -257 139 -138 270 -207 411 -215 48 -3 60 -1 60 11 0
11 -17 17 -66 22 -139 13 -262 83 -399 225 -165 171 -210 297 -160 451 28 91
81 160 145 192 43 22 62 25 141 24 114 -2 154 -19 191 -81 49 -85 15 -198 -78
-260 -115 -76 -329 -10 -329 101 0 56 59 110 143 130 15 3 27 13 27 22 0 38
-142 -23 -178 -76 -43 -63 -21 -156 47 -196 16 -10 42 -40 57 -67 57 -106 127
-159 232 -176 112 -18 226 14 266 74 23 35 1 43 -32 12 -42 -40 -93 -57 -175
-57 -115 0 -208 53 -256 147 -11 21 -10 22 62 21 85 -1 128 15 187 69 60 53
83 108 78 191 l-3 66 83 58 c105 76 177 147 192 194 25 75 -3 160 -113 343
-69 114 -80 153 -75 256 7 128 66 231 150 262 18 6 69 12 113 12 63 1 87 -3
112 -19 63 -38 92 -146 59 -223 -22 -54 -97 -114 -150 -122 -116 -18 -206 38
-209 130 -1 45 26 82 78 107 45 22 53 32 35 43 -13 8 -88 -32 -116 -62 -66
-71 -22 -199 81 -239 35 -13 63 -16 120 -11 67 5 75 4 80 -14 4 -10 22 -31 41
-45 47 -36 136 -43 249 -19 123 26 124 26 82 110 -78 156 -121 349 -121 540 0
152 15 201 88 299 60 79 100 110 195 150 96 42 124 40 214 -14 89 -54 121 -97
121 -163 -1 -143 -150 -252 -279 -203 -126 48 -172 206 -83 282 30 25 37 26
100 21 38 -3 68 -2 68 3 0 18 -40 30 -99 30 -54 0 -63 -3 -94 -33 -45 -42 -57
-88 -57 -225 0 -106 2 -116 31 -174 36 -71 115 -159 175 -194 22 -13 63 -27
90 -30 27 -4 55 -11 62 -17 21 -16 25 -1 13 53 -16 74 -13 117 12 191 33 98
82 173 177 270 128 132 243 178 415 166 97 -7 145 -23 186 -61 58 -55 87 -147
64 -202 -17 -42 -77 -81 -142 -93 -65 -13 -161 3 -206 33 -36 24 -77 97 -77
137 0 61 78 129 148 129 41 0 65 -12 117 -59 34 -30 40 -33 43 -17 5 23 -43
74 -85 92 -55 24 -123 18 -174 -14 -78 -51 -194 -172 -207 -218 -28 -97 -2
-205 57 -240 36 -21 39 -30 11 -39 -37 -12 -175 -121 -242 -193 -81 -86 -137
-195 -141 -271 -3 -66 15 -64 30 5 17 74 73 179 128 241 62 70 191 165 293
216 74 37 93 41 172 45 66 3 102 0 145 -14 72 -22 165 -82 196 -125 22 -31 24
-44 24 -139 0 -86 -4 -111 -19 -137 -48 -78 -175 -101 -263 -47 -26 16 -61 49
-78 73 -26 38 -30 51 -29 109 1 98 44 165 116 181 83 19 132 -12 159 -100 19
-62 39 -76 39 -28 0 41 -34 113 -66 138 -55 43 -156 35 -217 -18 -17 -16 -48
-36 -67 -46 -56 -29 -153 -134 -185 -200 -25 -51 -30 -75 -33 -157 -3 -87 -1
-103 22 -153 14 -31 42 -76 62 -101 l37 -45 -70 -72 c-38 -39 -81 -92 -96
-117 -30 -52 -64 -166 -53 -178 10 -9 36 26 36 49 0 9 16 47 35 85 36 74 133
179 215 235 73 50 217 117 278 130 140 29 344 -56 396 -165 21 -44 21 -148 0
-209 -41 -120 -182 -153 -287 -66 -99 82 -103 232 -8 312 38 32 112 37 149 11
24 -16 52 -64 52 -88 0 -8 5 -27 10 -42 8 -20 14 -24 22 -16 8 8 8 26 -1 67
-24 105 -103 155 -194 122 -133 -48 -144 -54 -202 -112 -72 -72 -109 -137
-135 -241 -42 -163 -15 -255 95 -320 117 -68 352 -95 652 -76 210 14 233 18
233 39 0 12 -7 14 -32 9 -18 -4 -153 -9 -299 -13 -282 -6 -348 -1 -468 39 -88
28 -156 94 -166 158 -16 112 54 298 147 390 28 28 53 49 55 47 2 -2 -3 -33
-11 -67 -19 -80 -8 -137 39 -201 79 -109 242 -132 332 -47 37 35 65 123 66
208 1 89 -11 117 -81 182 -109 102 -259 141 -397 104 -55 -14 -177 -70 -241
-110 l-42 -26 -30 35 c-17 19 -43 56 -59 82 -25 44 -28 57 -28 143 0 87 3 101
32 161 18 36 54 87 82 114 77 76 79 76 73 -5 -4 -61 -1 -76 22 -124 26 -52 69
-96 126 -127 33 -17 167 -17 200 0 79 42 114 118 114 246 0 55 -5 90 -16 111
-47 87 -181 167 -308 184 -75 10 -115 6 -212 -21 -42 -11 -52 -11 -82 4 -44
20 -64 51 -72 108 -8 57 8 115 46 167 34 48 60 55 60 17 0 -14 9 -45 21 -70
39 -83 153 -134 270 -121 71 7 122 31 169 81 31 32 35 42 34 88 -2 62 -35 144
-72 180 -49 47 -118 70 -220 75 -176 8 -289 -33 -416 -150 l-76 -70 0 34 c0
66 -19 105 -75 156 -55 50 -127 92 -158 92 -24 0 -21 12 16 71 28 46 32 61 32
123 0 115 -52 178 -165 199 -33 6 -60 16 -60 22 0 6 15 57 34 112 19 56 50
164 70 240 227 889 172 1750 -166 2612 l-61 154 17 32 c30 55 149 196 232 275
96 91 170 141 283 191 l86 38 17 -33 c9 -18 58 -105 108 -192 332 -578 546
-1167 624 -1719 28 -193 36 -324 36 -555 0 -167 3 -229 13 -239 10 -11 8 -12
-8 -3 -52 26 -154 52 -207 52 -83 0 -156 -36 -241 -121 -89 -88 -136 -184
-144 -293 -6 -76 -6 -76 -27 -61 -88 65 -165 71 -252 19 -140 -84 -191 -166
-204 -328 -17 -212 35 -462 136 -656 44 -84 108 -159 124 -144 8 8 0 24 -30
60 -82 99 -163 310 -190 494 -18 125 -10 322 17 380 24 55 126 153 185 180 56
25 91 25 146 -1 55 -27 94 -80 117 -160 31 -111 4 -203 -81 -278 -90 -79 -185
-80 -258 -2 -23 24 -30 42 -34 85 -4 48 0 62 27 112 32 56 34 77 4 58 -32 -20
-63 -96 -63 -157 0 -90 33 -137 125 -178 28 -12 68 -37 91 -55 65 -54 129 -78
209 -78 78 -1 139 25 166 70 l15 24 54 -46 c55 -46 196 -122 206 -111 11 11
-7 26 -69 59 -38 20 -92 63 -142 113 -70 69 -89 96 -137 195 -86 177 -123 345
-98 451 28 121 121 244 230 304 48 26 65 30 131 29 65 -1 85 -6 152 -38 98
-47 133 -92 131 -172 -3 -132 -116 -233 -260 -234 -196 0 -313 212 -169 306
18 11 54 19 106 22 112 6 105 32 -10 32 -66 0 -134 -30 -165 -72 -43 -59 -25
-221 31 -280 57 -60 190 -94 404 -104 154 -8 330 8 423 37 33 10 72 15 88 12
32 -6 34 -2 13 31 -10 15 -29 26 -53 30 -20 3 -68 26 -106 50 -162 107 -270
218 -322 331 -70 153 -49 397 43 489 41 41 118 73 197 82 70 8 97 1 141 -38
57 -50 75 -94 75 -188 0 -92 -23 -151 -82 -207 -43 -42 -79 -54 -155 -54 -95
0 -149 38 -174 121 -22 73 10 143 86 190 39 24 45 40 17 40 -31 0 -100 -57
-122 -99 -22 -44 -26 -113 -10 -157 14 -36 166 -191 210 -214 72 -37 257 -53
267 -24 3 8 -27 14 -89 19 -100 8 -185 34 -213 65 -18 20 -17 20 22 20 109 0
202 61 254 165 23 48 24 60 26 255 2 185 1 201 -12 165 -7 -22 -14 -59 -14
-82 -1 -24 -4 -43 -8 -42 -5 0 -24 20 -44 42 -34 40 -37 48 -53 170 -50 385
-165 842 -307 1224 -84 226 -162 403 -301 681 -72 144 -129 264 -127 266 2 2
49 13 103 25 131 28 160 44 212 110 56 71 85 147 87 231 3 93 -9 136 -50 181
-71 79 -91 84 -323 84 l-205 0 -3 230 c-15 1077 322 1906 956 2353 80 56 112
92 84 92 -13 0 -148 -95 -224 -157 -101 -82 -264 -257 -340 -364 -218 -306
-369 -684 -448 -1124 -43 -242 -52 -347 -59 -692 -3 -188 -9 -344 -12 -347 -3
-4 -23 -7 -43 -9 l-37 -2 -55 135 c-131 319 -256 698 -308 930 -98 441 -100
711 -11 1154 65 319 173 536 359 722 254 255 591 374 1095 387 62 1 86 6 89
16 7 21 -328 9 -478 -18 -295 -52 -547 -177 -731 -362 -192 -194 -302 -421
-373 -772 -85 -420 -73 -772 38 -1214 62 -246 178 -588 291 -859 25 -60 47
-113 48 -119 1 -5 -10 -11 -25 -13 -23 -3 -37 11 -119 120 -253 336 -578 711
-783 903 -46 43 -70 82 -169 275 -235 458 -317 730 -304 1015 11 255 98 449
280 622 295 280 802 446 1555 508 255 21 365 19 564 -10 196 -28 211 -29 206
-13 -14 40 -290 77 -993 134 -268 21 -1139 30 -1461 15 -543 -27 -1076 -83
-1589 -167 -886 -146 -1403 -271 -2331 -565 -138 -43 -258 -79 -268 -79 -12 0
-28 24 -52 76 -20 42 -34 78 -32 80 7 7 553 198 808 283 1745 583 3483 950
5140 1086 198 16 667 45 738 45 31 0 42 4 42 15 0 20 -69 20 -385 0 -1969
-122 -4003 -557 -6095 -1303 -278 -99 -283 -101 -278 -76 4 23 182 101 703
309 1453 579 2873 995 4350 1274 497 94 1328 211 1660 233 28 2 40 8 40 18 0
19 -47 17 -345 -16 -1923 -211 -4061 -783 -6090 -1631 -304 -126 -346 -142
-355 -127 -5 9 -47 73 -92 142 -45 70 -80 129 -77 133 3 6 209 120 549 304
312 169 972 503 1257 636 977 455 1807 742 2553 884 99 18 216 41 260 49 l80
15 -115 -3 c-134 -5 -356 -47 -685 -131 -1005 -256 -2110 -733 -3643 -1572
l-286 -156 -27 33 c-16 18 -26 37 -23 41 5 9 547 333 854 511 909 526 1724
932 2425 1208 88 34 162 65 165 68 3 2 -18 3 -45 0 -110 -10 -697 -265 -1275
-554 -586 -293 -1017 -531 -1771 -978 -199 -119 -366 -213 -369 -209 -4 5 -17
37 -30 73 -12 36 -42 102 -65 148 -27 52 -39 85 -31 87 6 2 112 22 236 45 287
52 413 79 424 90 20 20 -27 21 -121 1 -54 -11 -197 -38 -318 -61 -121 -22
-227 -42 -235 -45 -10 -3 -36 26 -77 88 -34 51 -87 121 -117 157 -31 36 -56
67 -56 70 0 12 246 86 468 141 129 32 236 60 239 63 11 11 -10 26 -30 21 -110
-24 -420 -103 -496 -126 -52 -15 -97 -27 -99 -25 -4 4 272 233 453 377 184
146 451 343 650 480 100 68 192 132 205 141 l25 17 -26 0 c-17 1 -85 -39 -200
-117 -355 -241 -642 -460 -1042 -795 l-178 -150 -35 33 c-32 32 -34 38 -34
101 l0 67 49 44 c27 23 121 109 208 189 192 177 424 378 597 519 88 71 123
106 112 108 -10 2 -35 -8 -56 -23 -97 -67 -489 -405 -755 -651 -135 -125 -150
-136 -153 -114 -2 14 1 164 6 334 5 169 7 317 5 327 -8 28 -30 23 -77 -14 -23
-18 -249 -202 -504 -408 l-464 -374 -71 -12 c-126 -21 -126 -21 -81 35 173
213 395 459 651 723 90 91 163 169 163 173 0 26 -55 -22 -246 -216 -219 -222
-353 -370 -552 -609 l-105 -126 -136 -12 c-75 -7 -144 -15 -153 -17 -10 -3
-18 -1 -18 4 0 14 163 241 298 417 93 121 306 380 429 524 26 31 28 41 8 41
-36 0 -486 -560 -750 -933 -22 -31 -44 -57 -48 -57 -5 0 -43 36 -85 81 -88 92
-138 126 -347 232 -84 43 -173 96 -200 121 l-50 43 49 74 c42 63 230 324 297
412 l21 27 -21 0 c-23 0 -144 -156 -296 -380 -43 -63 -79 -116 -81 -118 -2 -4
-149 68 -194 96 -37 23 -65 28 -75 13 -3 -5 20 -88 51 -185 l56 -175 -105
-183 c-151 -264 -265 -480 -395 -748 -63 -129 -116 -237 -118 -239 -4 -4 -138
71 -171 97 l-23 17 89 210 c249 596 471 1022 760 1465 48 74 76 127 69 129
-17 6 -43 -28 -150 -195 -255 -397 -501 -883 -744 -1466 -27 -65 -54 -118 -60
-118 -12 0 -144 134 -318 324 l-100 107 13 37 c116 326 341 818 526 1150 47
84 85 155 85 157 0 3 -7 5 -15 5 -18 0 -91 -123 -211 -355 -115 -224 -220
-455 -334 -738 -48 -120 -90 -220 -93 -223 -3 -3 -38 17 -79 44 -40 27 -92 59
-115 71 l-42 21 51 148 c117 339 218 584 353 857 46 93 82 171 80 174 -37 36
-288 -510 -448 -974 -30 -88 -58 -167 -62 -177 -5 -14 -18 -15 -83 -11 -122 9
-241 -31 -367 -121 -36 -26 -51 -32 -53 -22 -8 37 121 515 210 781 38 113 162
440 196 518 2 4 -3 7 -12 7 -21 0 -41 -41 -119 -245 -110 -289 -205 -600 -288
-948 l-33 -139 -40 -20 c-65 -33 -140 -116 -162 -178 -29 -85 -25 -199 10
-275 15 -33 40 -73 55 -90 l29 -30 -23 -145 c-101 -639 -202 -1612 -285 -2740
-51 -692 -61 -857 -106 -1629 -24 -410 -42 -647 -48 -641 -14 14 -12 1726 2
2140 50 1431 141 2465 307 3485 78 478 196 1036 286 1350 11 39 23 78 25 88 5
17 -20 25 -29 9z m4548 -608 l-7 -405 31 -33 31 -32 -57 -24 c-261 -106 -519
-278 -678 -453 -60 -66 -78 -97 -56 -97 5 0 58 49 118 109 166 166 345 287
584 391 l114 51 60 -64 c59 -63 189 -237 182 -244 -2 -2 -73 -21 -158 -42
-210 -54 -554 -172 -583 -201 -24 -24 31 -19 96 8 128 53 338 121 503 162 187
47 163 56 232 -90 74 -157 95 -242 100 -411 6 -168 -10 -257 -73 -390 l-36
-76 -251 -6 c-244 -6 -381 -19 -537 -52 -126 -26 -220 -57 -220 -71 0 -18 4
-18 111 11 198 53 474 85 730 85 95 0 140 -3 137 -11 -2 -5 -26 -39 -53 -74
l-50 -65 -200 0 c-286 0 -524 -26 -720 -79 -102 -27 -130 -40 -118 -52 7 -7
55 1 154 25 79 19 200 43 269 51 158 21 570 33 570 17 0 -20 -168 -159 -293
-244 -67 -45 -165 -117 -217 -161 -200 -166 -417 -294 -600 -352 -152 -48
-370 -46 -534 6 -155 50 -405 199 -611 364 -105 84 -295 268 -295 285 0 13
233 13 397 -1 158 -13 317 -44 362 -70 43 -26 72 -18 46 11 -49 54 -270 90
-597 97 l-247 6 -37 53 c-21 30 -35 56 -33 58 2 2 22 13 44 24 22 11 63 39 90
61 27 23 58 41 68 41 30 0 215 -40 307 -67 139 -39 251 -85 298 -121 31 -24
47 -31 55 -23 48 48 -273 177 -577 231 l-68 13 95 95 95 95 58 -36 c77 -47
122 -57 260 -61 l116 -4 38 -37 c64 -63 74 -35 36 97 -13 46 -27 119 -31 163
-11 118 -45 170 -158 242 l-41 26 45 23 c24 12 58 34 74 48 30 25 30 25 10 44
-74 74 -381 239 -615 332 -110 43 -126 47 -135 33 -5 -8 -42 -59 -81 -113 -91
-126 -146 -233 -179 -345 -14 -50 -33 -96 -42 -102 -28 -22 -219 -17 -297 7
-36 11 -67 24 -70 28 -11 18 303 643 467 927 44 77 88 152 96 167 9 16 19 28
23 28 3 0 18 -53 33 -117 15 -65 29 -126 32 -135 6 -22 9 -23 -87 8 -79 24
-126 26 -103 3 18 -18 197 -59 204 -47 4 7 43 -2 115 -26 60 -20 112 -36 117
-36 4 0 33 24 65 53 31 28 68 59 81 68 l25 15 -22 45 c-23 46 -105 153 -175
226 -23 24 -38 45 -35 48 7 8 189 -188 234 -251 48 -68 45 -83 -27 -135 -116
-83 -125 -64 77 -163 216 -105 328 -171 345 -202 21 -40 5 -36 -58 15 -76 60
-236 143 -418 214 -166 65 -304 111 -311 104 -3 -3 0 -24 6 -48 7 -24 10 -76
8 -117 l-3 -74 80 -32 c133 -55 304 -134 415 -193 127 -68 280 -161 280 -172
0 -4 -5 -12 -11 -18 -13 -13 25 -43 53 -43 25 0 23 12 -7 40 l-24 23 95 101
c129 136 170 195 281 408 117 227 131 246 186 255 43 6 95 47 797 616 113 91
207 166 209 166 2 1 0 -182 -4 -405z m-3974 -646 c103 -48 203 -131 349 -289
180 -193 254 -264 346 -325 179 -119 328 -167 504 -162 l110 3 0 -70 c0 -76
20 -200 44 -280 8 -27 14 -50 13 -51 -1 -2 -49 -8 -106 -13 -182 -19 -316 -59
-289 -86 2 -3 49 6 103 20 54 14 145 29 203 33 l104 8 25 -51 c14 -27 50 -87
79 -132 51 -79 52 -83 31 -87 -49 -9 -304 -36 -338 -36 -56 0 -205 28 -297 56
-301 91 -568 340 -776 724 -31 58 -63 111 -70 118 -20 20 -42 5 -55 -38 -25
-86 -124 -128 -176 -76 -44 44 -46 137 -4 279 19 67 20 80 8 88 -8 5 -18 9
-22 9 -16 0 -47 -89 -68 -192 -12 -57 -30 -118 -41 -136 -55 -91 -152 -17
-184 142 -13 64 -14 87 -4 139 18 93 18 111 -4 115 -38 8 -60 -68 -60 -213 -1
-108 -1 -109 -26 -115 -39 -10 -60 -1 -60 27 0 19 -4 24 -22 21 -19 -2 -28 6
-48 47 -21 41 -25 64 -25 130 1 70 4 87 30 134 34 62 96 112 167 136 26 9 64
29 85 44 126 91 211 123 319 118 68 -3 93 -9 155 -39z m9489 -382 c0 -2 -51
-9 -112 -15 -453 -48 -742 -140 -866 -275 -52 -57 -115 -181 -147 -292 -22
-75 -25 -106 -25 -238 0 -114 5 -170 19 -231 72 -300 269 -628 608 -1015 57
-65 45 -59 -67 35 -47 38 -166 131 -265 206 -151 114 -224 179 -451 405 -354
351 -470 507 -519 695 -77 293 169 498 730 608 265 52 1095 141 1095 117z
m1185 -37 c116 -6 217 -15 225 -20 10 -5 -7 -9 -45 -9 -33 0 -137 -9 -232 -20
-848 -97 -1358 -334 -1572 -732 -79 -145 -111 -276 -111 -451 0 -278 76 -534
270 -915 49 -97 88 -178 86 -179 -5 -5 -262 272 -369 396 -305 356 -483 669
-541 953 -23 114 -21 294 5 399 44 175 124 304 234 374 286 182 1030 256 2050
204z m-2345 -58 c-319 -74 -503 -159 -613 -281 -75 -83 -92 -129 -92 -245 0
-85 4 -111 28 -175 59 -160 176 -317 427 -574 l165 -169 -490 328 c-269 181
-517 350 -550 376 -88 69 -170 159 -184 201 -23 70 21 172 110 252 167 150
483 241 989 285 69 6 139 13 155 15 17 1 53 3 80 4 50 0 50 0 -25 -17z m-1000
-115 c0 -2 -39 -26 -87 -53 -214 -119 -308 -292 -231 -423 53 -91 166 -179
588 -460 151 -100 280 -187 285 -192 6 -6 -60 25 -145 67 -387 193 -661 302
-1015 401 -198 56 -308 108 -385 183 -31 31 -59 68 -62 83 -11 60 37 115 151
172 126 63 232 92 576 160 221 43 317 63 323 65 1 1 2 -1 2 -3z m-7759 -181
c40 -21 71 -19 113 10 20 13 36 23 36 20 0 -2 -13 -59 -29 -127 -221 -930
-417 -2292 -562 -3897 -11 -128 -13 -137 -44 -177 -52 -68 -93 -146 -135 -256
-44 -116 -44 -115 -30 99 5 81 19 299 30 483 89 1475 211 2809 336 3665 19
132 37 248 41 259 4 14 12 17 37 13 17 -3 45 1 61 8 29 12 31 11 74 -37 23
-27 56 -55 72 -63z m2589 110 c0 -3 -16 -25 -35 -50 -63 -83 -71 -171 -26
-277 16 -38 27 -68 25 -68 -19 0 -95 48 -119 74 -102 113 -165 191 -165 207 0
36 64 80 152 103 51 14 168 21 168 11z m2545 -227 c156 -260 235 -444 526
-1233 67 -181 148 -393 181 -470 121 -284 265 -539 402 -710 31 -38 56 -73 56
-77 0 -3 -24 3 -52 14 -73 27 -236 22 -320 -11 -78 -30 -165 -98 -208 -162
-32 -47 -35 -58 -35 -125 0 -71 1 -75 35 -108 19 -19 73 -54 120 -79 495 -255
598 -316 685 -403 107 -107 158 -237 220 -553 30 -156 44 -194 88 -239 45 -46
118 -66 247 -67 125 0 151 12 182 82 11 24 22 43 24 40 11 -10 100 -289 149
-462 110 -394 124 -506 85 -661 -45 -175 -144 -336 -320 -518 -160 -165 -396
-349 -587 -457 l-43 -24 -46 53 c-55 62 -112 98 -175 106 -112 16 -279 -41
-376 -128 -53 -47 -96 -121 -133 -224 -28 -76 -39 -78 -129 -24 -89 52 -156
129 -208 239 -25 51 -48 93 -54 93 -30 0 17 -119 87 -216 50 -71 117 -126 210
-172 l61 -31 -9 -53 c-6 -29 -8 -111 -6 -183 4 -113 8 -139 32 -195 33 -81 72
-140 91 -140 22 0 19 13 -18 67 -57 85 -72 149 -71 308 1 251 72 433 209 537
68 52 178 90 257 91 91 1 129 -16 191 -82 93 -101 110 -166 62 -246 -49 -84
-147 -125 -253 -105 -172 31 -247 245 -116 331 40 26 100 24 152 -6 41 -23 62
-25 62 -6 0 11 -78 53 -117 61 -69 16 -157 -34 -183 -102 -6 -18 -23 -60 -36
-93 -42 -104 -29 -225 41 -372 43 -92 86 -155 143 -210 25 -23 44 -44 41 -46
-2 -2 -34 -18 -71 -36 -100 -50 -172 -125 -225 -238 -58 -121 -94 -264 -94
-370 l-1 -82 -35 -12 c-51 -16 -154 -5 -218 25 -56 25 -145 100 -145 121 0 9
13 9 53 2 80 -14 131 4 193 67 36 37 54 65 62 98 25 100 9 184 -47 239 -91 92
-292 76 -364 -29 -61 -88 -81 -150 -85 -270 l-5 -114 -26 7 c-134 33 -334 291
-417 535 -52 156 13 407 118 451 48 20 148 16 189 -7 93 -54 105 -229 21 -317
-86 -91 -216 -71 -257 38 -31 80 -9 137 69 177 49 25 36 46 -18 28 -39 -13
-83 -58 -92 -96 -22 -88 47 -237 121 -262 84 -29 341 6 530 72 51 18 60 46 15
46 -67 0 -234 198 -333 395 -105 211 -125 369 -67 546 33 101 80 202 109 236
32 38 93 73 125 73 39 0 136 -56 190 -110 32 -32 40 -46 44 -88 8 -86 -28
-156 -96 -191 -86 -43 -158 -34 -224 28 -33 30 -41 45 -45 84 -10 90 33 137
127 137 29 0 40 4 40 15 0 20 -78 20 -124 1 -91 -38 -110 -162 -39 -247 33
-38 115 -79 162 -79 140 0 264 146 231 272 -16 60 -48 97 -127 152 -107 73
-178 74 -257 5 -83 -73 -173 -298 -183 -461 -6 -89 22 -204 87 -351 21 -48 36
-87 34 -87 -3 0 -16 7 -29 16 -32 21 -138 29 -191 15 -51 -14 -108 -73 -136
-142 -14 -32 -28 -51 -42 -55 -12 -2 -70 0 -130 5 -60 5 -115 7 -122 4 -9 -3
-14 -21 -14 -46 0 -27 -21 -94 -60 -192 -112 -285 -119 -455 -25 -690 52 -131
65 -176 65 -231 0 -58 -35 -187 -67 -245 -49 -92 -168 -198 -240 -215 -41 -10
-63 -32 -202 -214 -154 -202 -214 -275 -300 -363 -160 -165 -287 -236 -426
-237 -27 0 -72 -9 -100 -19 -116 -43 -231 -94 -251 -112 -67 -62 -177 36 -177
158 0 39 7 62 29 98 48 77 53 89 48 97 -10 16 -41 7 -67 -19 -67 -71 -89 -201
-48 -286 27 -55 26 -61 -5 -78 -40 -21 -99 -17 -127 9 -64 60 -90 195 -48 249
23 28 18 53 -10 53 -25 0 -57 -32 -65 -66 -7 -29 0 -150 11 -176 9 -23 -20
-37 -93 -44 -112 -12 -164 36 -163 151 1 218 220 445 491 511 74 18 252 18
342 -2 116 -24 170 -21 247 17 128 63 251 213 371 454 98 195 131 368 111 586
-33 364 -194 994 -307 1204 -71 132 -97 223 -98 340 -1 172 54 299 194 448
262 279 715 494 1489 705 246 67 284 83 266 112 -3 6 -15 10 -25 10 -44 0
-622 -165 -790 -225 l-45 -16 -137 140 c-354 364 -613 766 -804 1249 -54 136
-314 860 -314 873 0 17 77 -30 134 -82 32 -29 90 -95 131 -148 48 -63 88 -105
116 -120 41 -23 46 -24 203 -17 226 10 446 58 732 159 250 88 494 218 494 263
0 27 -31 20 -106 -23 -364 -209 -962 -373 -1240 -338 -54 6 -63 11 -102 53
-23 26 -71 83 -105 127 -99 127 -261 222 -388 228 -42 2 -43 2 -51 -38 -16
-76 -93 -217 -149 -272 -99 -100 -144 -63 -169 137 -12 94 -21 110 -46 89 -15
-12 -16 -27 -10 -114 4 -55 8 -108 7 -117 0 -50 -97 -117 -143 -99 -62 23 -92
114 -86 255 3 76 2 81 -18 84 -33 5 -38 -20 -39 -173 0 -137 -1 -140 -22 -143
-32 -5 -109 32 -128 61 -10 15 -18 57 -22 111 -7 107 13 191 66 274 50 77 402
411 470 447 15 7 70 21 122 30 210 37 622 -23 824 -120 39 -18 85 -38 104 -44
19 -6 84 -41 144 -77 60 -36 115 -63 123 -60 42 16 -10 67 -142 141 l-84 47
71 76 c168 180 329 493 329 639 0 47 -17 83 -38 83 -17 0 -20 -11 -25 -83 -7
-96 -35 -180 -104 -307 -86 -160 -209 -319 -274 -354 l-34 -18 -105 37 c-223
78 -386 105 -636 105 l-181 0 -55 58 c-80 84 -134 160 -169 237 -29 64 -31 79
-31 171 0 56 6 136 12 178 7 43 10 114 7 161 l-5 85 52 -30 c108 -64 232 -123
335 -157 93 -31 122 -36 233 -41 80 -3 157 0 205 8 215 34 473 170 733 385 58
48 146 115 195 148 137 92 202 143 292 231 l83 79 107 -12 c142 -15 234 -35
289 -62 51 -26 70 -17 33 15 -35 30 -156 62 -291 77 -101 12 -122 19 -98 34 6
3 29 34 51 67 l42 61 87 -7 c150 -11 285 -40 347 -73 18 -9 35 -14 39 -10 15
15 -32 48 -95 67 -73 22 -244 50 -307 50 -22 0 -43 2 -46 5 -3 3 7 31 22 63
46 95 71 191 76 292 3 52 7 115 10 139 l6 44 39 -59 c22 -33 69 -107 104 -166z
m-4541 -56 c72 -112 112 -160 215 -262 69 -69 144 -139 166 -156 l39 -31 -66
-169 c-243 -618 -524 -1453 -905 -2692 -64 -211 -119 -379 -121 -374 -4 13
231 960 333 1342 170 635 334 1192 510 1730 70 214 79 246 76 279 -3 36 -25
-23 -121 -314 -263 -805 -515 -1708 -780 -2804 -50 -206 -92 -377 -94 -379 -5
-4 -170 -41 -173 -38 -3 2 65 476 133 926 193 1285 397 2276 636 3085 l20 70
22 -39 c11 -21 61 -99 110 -174z m-321 131 c31 -4 57 1 91 16 43 18 47 19 42
3 -263 -904 -472 -1964 -706 -3582 -33 -228 -62 -426 -65 -439 -6 -24 -34 -53
-45 -46 -6 4 10 189 50 600 127 1292 309 2507 496 3320 45 195 40 183 69 155
14 -13 41 -24 68 -27z m2471 15 c40 -57 6 -200 -41 -172 -45 27 -49 129 -7
175 22 24 29 24 48 -3z m4041 -11 c-55 -40 -94 -87 -106 -127 -10 -34 -9 -44
11 -85 20 -42 54 -75 140 -138 l25 -18 -40 5 c-183 25 -459 69 -501 81 -87 25
-88 36 -12 109 37 35 86 73 110 84 36 17 360 108 393 110 6 1 -3 -9 -20 -21z
m-518 -156 c-60 -64 -69 -97 -34 -127 32 -27 64 -34 359 -79 128 -20 244 -40
258 -45 l25 -10 -25 4 c-14 3 -110 10 -215 17 -260 16 -733 6 -980 -20 -281
-31 -270 -31 -270 -2 0 21 9 27 70 48 138 47 829 259 854 263 2 0 -17 -22 -42
-49z m-3462 -89 c-3 -3 -10 -1 -16 5 -8 8 -7 22 2 49 l14 38 3 -43 c2 -24 1
-46 -3 -49z m3960 -191 c214 -24 342 -51 525 -110 102 -32 253 -80 335 -106
961 -300 2151 -1226 2966 -2308 66 -86 119 -161 119 -165 0 -4 -46 -17 -103
-29 -57 -13 -152 -38 -212 -57 -60 -19 -110 -34 -110 -33 -4 9 -124 159 -184
232 -103 122 -454 478 -631 639 -1082 982 -2317 1601 -3574 1791 -88 13 -222
29 -296 35 -74 7 -145 14 -156 16 -22 4 -39 40 -23 50 14 9 221 33 409 49 203
16 774 14 935 -4z m-1085 -151 c1374 -157 2720 -821 3882 -1916 292 -274 678
-702 678 -748 0 -6 -53 -37 -118 -68 -155 -75 -277 -157 -387 -261 l-91 -85
-63 89 c-800 1130 -2137 1924 -3661 2174 -85 14 -157 25 -161 25 -9 0 -21 30
-138 343 -60 161 -123 327 -140 370 -17 43 -31 82 -31 87 0 14 32 13 230 -10z
m-4528 -65 c53 -25 141 -57 198 -72 l102 -27 -43 -15 c-43 -16 -64 -41 -34
-41 9 0 49 10 88 22 68 20 77 21 211 9 202 -18 191 -13 153 -69 -18 -26 -156
-254 -308 -507 -256 -428 -279 -462 -324 -492 -27 -18 -51 -31 -53 -28 -5 5
365 708 515 978 53 95 59 115 31 104 -15 -5 -151 -252 -378 -682 -230 -437
-234 -445 -290 -520 -59 -79 -85 -128 -110 -200 l-17 -50 -57 -7 c-120 -15
-245 -117 -312 -254 -39 -78 -39 -79 -38 -194 1 -90 7 -135 27 -209 l26 -94
-43 -86 c-24 -47 -51 -108 -60 -135 -26 -77 -70 -130 -168 -204 -89 -67 -183
-158 -240 -232 -26 -35 -26 -34 12 90 434 1409 710 2226 991 2938 5 12 13 22
17 22 5 0 52 -20 104 -45z m871 -81 c11 -14 17 -27 15 -29 -3 -4 -119 13 -228
33 -33 6 -32 7 20 12 30 4 82 7 115 8 53 1 62 -1 78 -24z m-19 -90 c32 -8 80
-26 106 -40 54 -30 213 -162 208 -174 -3 -8 -418 -501 -526 -625 l-52 -60
-138 0 c-131 0 -140 -1 -216 -32 -44 -18 -81 -31 -82 -30 -4 3 213 368 414
699 167 275 176 287 201 282 14 -3 53 -12 85 -20z m277 -372 c-155 -164 -378
-392 -354 -362 35 44 305 363 366 432 51 59 61 66 78 57 18 -9 10 -21 -90
-127z m184 55 l38 -33 -144 -96 c-79 -53 -183 -128 -231 -167 -49 -39 -88 -68
-88 -65 0 9 371 394 380 394 3 0 24 -15 45 -33z m66 -107 c12 -44 9 -164 -7
-276 -14 -100 -13 -208 2 -249 4 -11 -5 -20 -32 -31 -89 -37 -412 -193 -451
-217 -24 -15 -43 -34 -43 -41 0 -10 82 25 243 103 333 162 292 150 323 88 15
-28 46 -80 70 -115 24 -35 44 -64 44 -66 0 -2 -30 -26 -66 -52 -70 -52 -143
-132 -175 -195 -10 -21 -22 -40 -26 -42 -5 -3 -39 2 -78 10 -84 18 -220 6
-309 -28 -117 -43 -221 -149 -300 -306 -26 -52 -28 -53 -69 -53 -92 0 -188 74
-247 189 l-30 60 111 76 111 77 57 -11 c62 -12 139 -3 189 23 43 22 99 90 111
133 17 59 14 217 -4 261 -18 42 -77 107 -117 128 -16 8 -28 19 -28 24 0 9 221
202 350 305 106 85 332 235 350 232 8 -1 17 -13 21 -27z m3486 -205 c809 -148
1541 -437 2206 -871 259 -169 532 -390 771 -624 233 -228 395 -415 566 -654
62 -87 63 -90 48 -115 -9 -14 -45 -75 -81 -136 -156 -264 -255 -388 -401 -504
-186 -148 -488 -274 -710 -297 l-64 -7 -22 44 c-37 72 -203 317 -282 416 -157
195 -356 394 -560 558 -93 75 -384 270 -498 334 -74 42 -77 45 -177 194 -120
178 -246 343 -393 511 -170 196 -237 282 -227 292 14 14 401 -109 622 -198
921 -369 1660 -983 2141 -1779 67 -112 62 -105 75 -92 22 22 -212 380 -394
603 -124 151 -389 417 -537 541 -524 435 -1127 748 -1810 939 -63 17 -124 38
-135 45 -25 16 -122 193 -204 372 -65 143 -165 390 -177 437 l-7 29 56 -6 c31
-4 118 -18 194 -32z m-4342 -306 c72 -13 160 -56 208 -101 45 -43 60 -98 55
-207 -4 -104 -25 -152 -87 -196 -40 -28 -49 -30 -130 -30 -81 0 -91 2 -131 30
-64 44 -93 95 -98 169 -5 81 11 139 54 186 41 45 90 64 146 57 51 -7 83 -37
107 -101 20 -54 41 -72 41 -34 0 42 -47 126 -82 148 -46 28 -122 27 -175 -2
-148 -82 -210 -139 -244 -225 -19 -48 -23 -78 -23 -173 -1 -132 12 -194 60
-296 58 -123 171 -214 267 -214 20 0 37 -2 37 -5 0 -3 -12 -44 -26 -92 -22
-73 -27 -108 -27 -208 -1 -117 6 -152 47 -247 6 -13 -1 -17 -36 -23 -261 -40
-331 -57 -444 -111 -40 -19 -96 -50 -125 -70 -48 -32 -55 -34 -64 -19 -36 61
-85 110 -159 159 -122 81 -198 185 -251 341 -9 28 -23 62 -31 76 -18 34 -41
136 -49 220 -17 168 89 348 252 425 56 26 61 26 130 16 115 -18 233 -85 259
-148 21 -49 17 -112 -10 -170 -55 -118 -201 -166 -326 -108 -97 45 -140 100
-140 179 0 96 58 141 167 132 56 -4 64 -3 61 12 -3 13 -18 17 -79 19 -64 2
-80 0 -109 -20 -71 -48 -81 -92 -63 -264 12 -115 43 -173 139 -263 83 -77 182
-130 260 -138 61 -6 104 2 104 20 0 9 -20 13 -72 12 -66 0 -80 4 -146 39 -124
66 -231 188 -248 281 l-7 40 24 -21 c96 -83 210 -106 320 -64 63 23 130 86
154 142 19 47 20 150 1 187 -23 44 -86 93 -166 131 -41 19 -77 36 -79 37 -10
6 26 101 54 142 87 128 114 162 160 201 60 50 103 73 198 107 160 56 210 63
322 42z m-225 -272 c-14 -37 -34 -67 -58 -87 -20 -16 -37 -28 -39 -26 -11 11
37 114 71 153 49 55 57 43 26 -40z m1288 -76 l21 -29 -52 -30 c-29 -17 -97
-71 -152 -121 -69 -63 -101 -87 -103 -76 -5 20 40 96 87 148 33 37 158 136
172 137 3 0 15 -13 27 -29z m-1278 -26 c0 -26 36 -88 69 -119 17 -17 31 -35
31 -42 0 -18 -180 -138 -191 -127 -11 11 -29 187 -22 212 5 16 91 90 106 91 4
0 7 -7 7 -15z m816 -314 c23 -10 45 -24 48 -30 4 -6 -18 -41 -49 -78 -31 -38
-72 -101 -92 -141 -29 -62 -37 -71 -50 -61 -42 35 -78 156 -63 209 17 59 90
119 145 119 11 0 39 -8 61 -18z m841 -337 c-3 -3 -12 -4 -19 -1 -8 3 -5 6 6 6
11 1 17 -2 13 -5z m33 -60 c14 -36 14 -36 -32 -69 -86 -63 -135 -197 -109
-300 7 -26 9 -50 6 -53 -3 -3 -20 8 -38 24 -25 24 -105 87 -125 100 -1 1 26
30 61 65 44 45 77 91 110 156 26 50 53 94 60 96 32 14 58 6 67 -19z m49 -129
c58 -155 131 -367 131 -381 0 -18 -57 -44 -97 -44 -66 0 -144 63 -179 145 -19
45 -18 150 2 208 15 43 89 127 113 127 5 0 19 -25 30 -55z m-2609 -150 c0 -8
-21 -38 -47 -67 -27 -29 -63 -71 -82 -93 -45 -54 -31 -29 47 83 64 90 82 107
82 77z m74 -113 c25 -34 46 -63 46 -65 0 -1 -49 -2 -109 -2 -70 0 -107 4 -103
10 15 25 107 125 113 123 4 -2 28 -31 53 -66z m6491 -212 c407 -258 770 -610
1030 -1000 105 -158 132 -206 121 -217 -4 -4 -96 -8 -204 -8 -195 0 -390 21
-469 49 -22 8 -58 45 -121 125 -74 94 -94 128 -117 195 -90 263 -230 585 -356
818 -43 80 -79 149 -79 152 0 7 48 -21 195 -114z m-3779 -20 c24 -66 21 -79
-16 -80 -8 0 -31 -3 -51 -6 -40 -7 -54 4 -119 93 l-29 40 52 -5 c33 -3 65 1
87 11 19 8 39 14 44 13 5 -1 19 -31 32 -66z m6653 -17 c5 -21 15 -65 21 -98
44 -229 125 -325 275 -325 l40 0 -40 -31 c-114 -91 -236 -234 -397 -469 -108
-157 -194 -257 -298 -350 -241 -211 -547 -349 -905 -406 -132 -21 -469 -29
-620 -16 -66 6 -198 24 -293 39 -149 23 -175 25 -182 13 -17 -27 16 -42 133
-65 63 -13 120 -26 126 -29 10 -7 91 -246 91 -270 0 -6 -42 -41 -92 -76 -51
-36 -148 -120 -215 -188 -137 -138 -123 -138 -144 -2 -6 41 -18 104 -26 139
l-14 64 36 84 c89 206 95 340 30 608 -53 222 -51 208 -28 201 75 -24 281 -57
418 -67 268 -20 542 10 760 82 284 95 533 269 697 489 31 41 98 145 148 230
108 182 173 265 273 347 79 66 175 133 188 133 4 0 13 -17 18 -37z m-6578
-180 c18 -49 48 -122 65 -163 l33 -75 -60 -21 c-32 -12 -65 -26 -72 -32 -11
-9 -15 10 -25 96 -10 90 -18 119 -49 182 -21 41 -39 78 -41 82 -4 9 25 15 74
17 l41 1 34 -87z m7802 -362 c248 -497 411 -950 515 -1436 46 -212 94 -519 84
-530 -3 -3 -31 -5 -63 -5 -112 0 -248 -62 -287 -131 -10 -16 -19 -29 -22 -29
-4 0 -11 69 -18 153 -34 449 -159 927 -362 1392 -101 231 -295 600 -392 744
-16 24 -27 45 -25 47 3 3 265 69 362 92 25 5 45 5 53 -1 7 -5 77 -138 155
-296z m-7687 72 c10 -10 37 -60 61 -111 l43 -92 -21 -43 c-15 -27 -24 -68 -27
-115 -4 -69 -6 -73 -26 -69 -159 37 -224 49 -333 60 -79 9 -120 17 -108 21
123 45 167 87 215 206 35 87 55 109 120 139 55 25 54 25 76 4z m167 -307 c21
-35 69 -112 107 -172 39 -59 70 -110 70 -115 0 -4 -23 -10 -51 -14 -70 -10
-132 22 -174 90 -27 43 -30 57 -30 129 0 74 17 146 34 146 4 0 24 -29 44 -64z
m-733 -60 c0 -11 -19 -15 -25 -6 -3 5 1 10 9 10 9 0 16 -2 16 -4z m135 -51
c-16 -13 -34 -24 -40 -25 -17 0 -66 36 -58 43 3 4 34 7 67 7 l61 0 -30 -25z
m271 -5 c169 -30 213 -46 232 -82 28 -51 73 -98 115 -120 34 -17 51 -19 116
-13 l77 7 37 -48 c20 -26 35 -49 33 -52 -3 -2 -28 3 -58 11 -101 29 -230 40
-427 35 -105 -2 -191 -1 -191 2 0 9 -128 141 -174 180 l-40 33 40 33 c48 41
81 43 240 14z m6672 -182 c317 -806 375 -1659 171 -2498 -35 -143 -116 -410
-130 -426 -5 -6 -34 -14 -65 -17 -126 -13 -209 -84 -286 -243 -67 -140 -86
-340 -42 -457 9 -23 16 -49 17 -57 1 -8 -38 -74 -85 -146 l-87 -131 -63 -13
c-34 -6 -74 -18 -88 -25 -70 -37 -122 -134 -143 -267 l-14 -87 -82 -88 c-94
-100 -391 -386 -469 -452 -51 -42 -54 -43 -68 -25 -69 89 -114 163 -173 286
-78 163 -103 192 -239 273 l-82 50 152 150 c189 186 366 384 449 503 16 22 17
22 55 6 59 -25 136 -22 179 7 49 33 120 128 140 189 31 94 -13 209 -121 310
-96 89 -143 104 -329 103 -174 0 -253 -17 -385 -82 -71 -34 -80 -37 -67 -18 7
12 29 47 47 79 l34 56 90 -1 c86 -2 94 0 155 33 47 25 72 47 93 80 27 41 29
51 25 115 -6 89 -37 171 -86 226 l-38 44 24 70 c153 446 194 962 112 1425 -11
63 -33 166 -48 228 -16 61 -25 114 -21 117 4 2 54 12 110 20 177 27 382 83
510 141 33 15 63 24 67 21 13 -13 84 -310 108 -450 13 -81 30 -211 36 -290 14
-175 6 -558 -16 -717 -50 -365 -156 -717 -324 -1074 -34 -70 -61 -134 -61
-142 0 -40 28 0 89 129 167 349 264 664 323 1042 26 167 36 624 19 801 -22
212 -64 440 -116 628 -13 49 -22 93 -19 98 3 4 24 18 47 29 166 84 391 286
534 479 48 66 91 120 95 120 3 0 33 -69 66 -152z m-2540 -34 c-12 -12 -58 21
-68 49 -19 57 -10 59 31 8 23 -29 39 -54 37 -57z m-5597 -39 c155 0 210 -3
222 -13 14 -12 8 -25 -52 -125 -207 -340 -336 -711 -367 -1049 -4 -43 -8 -78
-9 -78 -1 0 -29 13 -62 30 -34 17 -91 35 -134 41 -95 15 -151 4 -284 -56 -55
-25 -105 -45 -112 -45 -16 0 -16 7 2 165 27 229 76 440 158 670 39 112 46 123
100 175 32 30 84 93 117 140 85 124 140 168 190 153 14 -4 118 -8 231 -8z
m1102 -46 c21 -5 35 -14 32 -19 -3 -5 -42 -21 -88 -36 -45 -15 -122 -47 -171
-71 -48 -24 -91 -42 -93 -39 -6 6 45 72 112 145 l40 43 65 -6 c36 -3 82 -11
103 -17z m-244 -6 c-7 -10 -33 -42 -57 -71 -42 -51 -45 -52 -63 -36 -39 35
-14 71 76 107 52 21 60 21 44 0z m-564 -85 c28 -101 62 -154 163 -248 l93 -87
-19 -55 c-38 -109 -41 -112 -102 -119 -30 -3 -69 -13 -86 -22 -51 -26 -101
-93 -114 -149 -15 -74 0 -119 67 -190 l56 -58 -12 -83 c-39 -261 -17 -602 54
-840 l15 -50 -48 49 c-111 116 -195 153 -375 164 -71 4 -130 10 -132 12 -3 2
-9 35 -14 73 -10 65 -8 73 16 122 23 48 25 62 21 146 -3 72 -9 103 -27 137
-21 40 -22 53 -16 125 17 206 92 491 186 715 75 176 227 438 248 425 5 -2 16
-33 26 -67z m1674 47 c57 -14 85 -26 193 -82 30 -16 283 -279 283 -294 0 -6
-52 -32 -115 -58 -161 -67 -356 -168 -485 -252 -81 -52 -142 -103 -231 -193
-109 -109 -126 -130 -167 -216 -50 -104 -80 -223 -76 -307 2 -29 0 -55 -3 -58
-16 -16 -284 213 -448 381 -141 145 -227 260 -286 379 -73 148 -70 230 10 347
128 188 435 323 836 367 122 14 411 6 489 -14z m-4558 -203 l18 -52 -30 -15
c-27 -15 -29 -14 -29 3 0 46 14 146 18 132 3 -8 13 -39 23 -68z m1912 -179
c-88 -252 -148 -547 -165 -808 -3 -38 -4 -40 -58 -57 -87 -27 -113 -24 -149
17 -36 42 -62 90 -106 199 l-32 79 23 41 c29 51 44 147 41 251 -2 93 10 121
92 200 75 73 158 122 296 176 111 43 109 47 58 -98z m7034 -139 l272 -7 21
-79 c30 -110 66 -294 81 -418 22 -171 17 -553 -10 -730 -38 -254 -131 -589
-161 -581 -252 66 -438 25 -589 -129 -70 -71 -141 -169 -187 -262 -16 -31 -32
-57 -36 -57 -5 -1 -8 17 -8 40 0 30 11 59 44 113 24 40 64 113 90 163 215 428
296 844 262 1346 -6 91 -5 127 3 127 7 0 11 -25 11 -68 0 -161 119 -272 290
-272 87 0 138 20 187 71 45 48 53 77 53 189 0 88 -3 103 -28 151 -78 149 -345
226 -563 163 -12 -3 -20 11 -34 63 -10 37 -28 95 -40 130 -12 34 -20 64 -18
66 2 2 23 1 46 -4 23 -4 164 -11 314 -15z m-5835 -81 c10 -9 18 -23 18 -31 0
-8 23 -60 51 -115 l50 -102 -26 -22 c-29 -26 -68 -29 -126 -11 -22 6 -42 8
-46 4 -12 -12 14 -28 68 -42 47 -12 56 -12 94 5 23 10 46 24 49 30 10 15 26 4
26 -18 0 -25 -98 -71 -165 -78 -71 -7 -125 19 -199 97 -52 55 -56 62 -56 108
0 74 34 130 99 164 62 33 134 38 163 11z m5929 -202 c71 -28 147 -86 173 -131
18 -29 21 -52 21 -140 0 -131 -14 -162 -94 -202 -156 -80 -355 22 -369 188
-11 135 98 245 217 219 37 -8 97 -72 106 -114 8 -35 16 -43 34 -32 10 7 9 18
-8 57 -12 27 -32 60 -44 73 -72 78 -213 64 -287 -28 -23 -28 -44 -43 -67 -47
-27 -5 -41 -17 -68 -60 -76 -119 -141 -274 -204 -489 -18 -60 -36 -113 -40
-117 -4 -5 -34 2 -66 14 -50 18 -81 22 -182 22 l-123 -1 0 26 c0 14 13 63 29
108 44 126 141 264 290 413 133 132 230 205 327 246 54 23 69 24 179 21 94 -3
132 -9 176 -26z m-911 -133 c6 -29 18 -100 26 -157 l14 -105 -50 -82 c-63
-103 -95 -181 -110 -266 l-11 -65 -60 -27 c-147 -67 -308 -288 -383 -524 -21
-68 -26 -103 -26 -188 0 -58 5 -125 11 -150 l11 -44 -63 -59 -64 -59 -5 67
c-6 78 -22 109 -91 185 -75 83 -113 99 -234 103 -126 5 -137 7 -175 40 -73 61
-176 244 -195 344 -6 35 -5 37 34 52 40 16 41 16 91 -15 47 -29 57 -31 138
-31 99 0 133 12 195 72 54 51 70 86 70 154 0 58 1 59 41 85 153 96 281 185
369 254 129 103 305 280 382 386 32 45 62 82 66 82 4 0 12 -24 19 -52z m-4749
-95 c124 -145 398 -389 537 -478 54 -35 65 -47 83 -95 12 -33 17 -60 12 -68
-4 -7 -100 -63 -213 -124 -113 -61 -305 -168 -426 -239 -122 -71 -229 -131
-237 -135 -28 -10 -111 218 -152 421 -47 232 -54 427 -23 668 10 84 12 88 32
81 12 -5 55 -8 96 -9 65 0 83 4 135 31 33 17 65 32 71 33 6 0 44 -38 85 -86z
m5313 -84 c11 -113 6 -405 -9 -526 -31 -236 -90 -448 -189 -678 -49 -116 -157
-319 -175 -330 -5 -2 -16 26 -26 63 -9 37 -24 84 -32 104 -18 42 -14 134 9
223 l13 50 50 6 c97 12 169 68 201 156 32 92 6 242 -60 339 l-35 52 40 133
c22 74 58 181 79 238 40 106 105 231 119 231 5 0 11 -28 15 -61z m-6603 -425
c62 -64 95 -79 179 -78 41 0 85 5 97 12 24 13 23 16 37 -90 l4 -36 -71 -12
c-99 -16 -231 -49 -295 -72 -29 -11 -56 -18 -58 -15 -11 11 -26 146 -21 192 7
65 25 103 56 120 35 19 33 20 72 -21z m6172 -88 c80 -16 141 -42 169 -73 28
-30 68 -128 80 -192 23 -121 -28 -229 -126 -266 -36 -14 -53 -15 -101 -6 -141
26 -275 205 -251 335 16 82 119 150 195 128 35 -11 111 -75 111 -94 0 -4 7 -8
15 -8 52 0 -44 111 -112 129 -90 24 -182 -19 -223 -104 -28 -57 -24 -140 10
-211 30 -62 119 -155 175 -185 43 -22 46 -26 40 -54 -4 -16 -14 -76 -23 -132
-16 -96 -18 -101 -36 -87 -10 7 -41 21 -68 30 -151 50 -242 169 -241 316 1 81
18 122 69 167 58 51 62 76 6 47 -73 -38 -106 -106 -106 -216 0 -72 4 -94 28
-146 15 -34 43 -77 62 -95 19 -18 34 -37 34 -41 0 -4 -30 -8 -66 -8 -81 0
-194 -36 -267 -85 -47 -32 -52 -33 -62 -17 -5 9 -10 71 -10 137 1 135 17 203
80 335 114 237 252 361 436 395 97 17 95 17 182 1z m-1518 -146 c14 -27 14
-30 -4 -40 -28 -14 -31 -13 -31 14 0 24 9 56 16 56 2 0 10 -13 19 -30z m-2986
-347 c-310 -569 -555 -1039 -798 -1528 -326 -654 -470 -976 -587 -1310 l-52
-150 -39 3 c-21 2 -114 17 -208 33 -93 17 -227 37 -297 47 -120 15 -129 15
-145 -1 -27 -26 -7 -37 103 -52 54 -8 194 -30 309 -49 116 -20 260 -42 320
-51 295 -41 661 -37 894 10 241 49 397 114 616 255 175 113 199 123 275 124
92 1 130 -23 295 -183 121 -118 151 -142 225 -178 136 -67 189 -78 385 -78
254 0 381 32 815 205 135 54 255 101 268 105 15 4 48 -4 105 -28 45 -19 97
-38 115 -42 33 -7 52 -41 37 -66 -14 -22 -229 -118 -369 -164 -391 -130 -954
-226 -1641 -280 -304 -24 -1097 -25 -1355 -2 -573 51 -895 110 -1255 228 -235
77 -367 142 -439 214 -58 57 -114 161 -135 246 -19 81 -24 210 -12 304 58 446
339 934 811 1405 270 271 397 372 830 667 355 242 480 319 694 428 100 51 230
120 291 153 60 34 111 59 113 57 2 -2 -74 -147 -169 -322z m-1081 114 c-66
-57 -88 -101 -88 -174 0 -35 7 -80 15 -100 8 -20 13 -38 11 -40 -2 -2 -27 7
-56 22 -33 17 -80 29 -131 35 -44 5 -84 12 -88 15 -31 19 75 166 155 216 57
35 126 58 174 58 l45 1 -37 -33z m3297 -88 c28 -38 76 -95 108 -126 32 -30 57
-57 55 -58 -19 -17 -301 -75 -360 -75 l-43 1 39 14 c47 17 91 57 119 110 17
31 21 58 22 122 0 46 2 83 5 82 3 0 28 -32 55 -70z m6371 -52 c38 -32 99 -77
137 -99 37 -22 67 -44 67 -48 0 -24 -292 -55 -425 -46 -49 4 -117 9 -150 13
l-60 6 61 17 c134 36 219 116 239 223 l7 38 28 -23 c15 -13 59 -49 96 -81z
m-9256 -42 c0 -8 -4 -15 -10 -15 -5 0 -10 7 -10 15 0 8 5 15 10 15 6 0 10 -7
10 -15z m1185 -197 c20 -84 39 -173 42 -198 5 -44 4 -47 -34 -73 -40 -27 -160
-73 -169 -64 -7 6 109 487 118 487 3 0 23 -69 43 -152z m1347 -304 c92 -138
186 -223 282 -255 l51 -17 60 -119 c33 -66 77 -143 98 -170 54 -74 144 -153
215 -191 34 -18 63 -36 65 -40 2 -4 -1 -39 -6 -79 -13 -92 7 -205 57 -310 49
-103 114 -164 248 -233 114 -58 118 -63 118 -138 0 -56 -27 -107 -88 -164
-102 -95 -225 -138 -397 -138 -115 0 -157 12 -226 61 -44 31 -37 41 25 34 121
-15 215 32 276 139 59 102 31 254 -58 324 -56 44 -101 55 -211 50 -112 -5
-159 -24 -214 -89 -39 -45 -87 -154 -87 -196 0 -68 -11 1 -30 192 -35 352 -80
645 -171 1118 -47 243 -52 264 -98 355 -27 53 -52 108 -55 122 -4 14 17 -23
46 -81 30 -58 75 -137 100 -175z m730 179 c39 -24 78 -105 78 -163 0 -63 -40
-141 -93 -180 -40 -30 -46 -31 -115 -28 -72 3 -75 5 -112 44 -46 50 -59 104
-36 158 12 29 26 42 65 59 50 22 68 47 34 47 -27 0 -94 -42 -116 -71 -10 -15
-22 -47 -24 -73 -5 -41 0 -58 46 -151 59 -118 92 -153 190 -198 72 -34 195
-48 249 -29 28 10 30 9 36 -19 3 -17 21 -61 40 -99 l34 -69 -56 -32 c-30 -17
-79 -54 -109 -82 l-53 -50 -66 34 c-129 65 -244 208 -321 396 -59 143 -56 273
7 401 35 69 64 98 117 118 48 18 164 11 205 -13z m-4380 -40 c98 -47 181 -113
233 -183 48 -66 39 -82 -44 -74 -70 8 -124 -7 -179 -47 -65 -48 -93 -103 -99
-200 l-6 -81 -88 -100 c-48 -54 -129 -152 -179 -217 -86 -112 -94 -119 -133
-125 -23 -3 -84 -14 -135 -23 l-92 -17 -51 50 c-148 143 -253 368 -253 539 0
109 27 156 114 201 55 28 177 24 263 -9 85 -33 167 -87 212 -140 50 -58 46
-68 -17 -46 -89 31 -158 20 -230 -34 -40 -31 -82 -104 -92 -159 -8 -44 8 -112
36 -151 35 -49 111 -80 210 -85 81 -4 91 -2 133 22 54 32 119 110 151 182 64
145 48 277 -60 491 -41 82 -44 110 -16 170 29 66 68 85 162 80 64 -3 90 -10
160 -44z m6801 -67 c3 -29 15 -72 26 -94 19 -37 94 -112 113 -112 4 0 8 -6 8
-14 0 -18 -137 -226 -148 -226 -15 0 -40 34 -61 81 -57 128 -44 321 27 402 24
27 29 21 35 -37z m2807 41 c0 -7 25 -56 56 -110 65 -114 67 -139 14 -175 -31
-21 -44 -23 -116 -20 -69 3 -88 7 -129 33 -27 17 -50 35 -52 40 -1 6 22 23 52
39 71 37 132 103 147 161 11 42 28 61 28 32z m-4655 -165 c58 -67 104 -86 205
-87 47 0 100 4 117 8 l33 9 -63 -95 c-35 -52 -74 -120 -87 -151 -26 -64 -38
-68 -108 -35 -52 26 -114 100 -155 188 -35 73 -48 193 -27 246 l12 30 18 -35
c10 -19 35 -54 55 -78z m-2569 -49 c28 -187 30 -372 4 -413 -7 -11 -43 -15
-162 -18 -133 -3 -158 -1 -188 15 -62 32 -63 82 -3 170 50 73 0 96 -54 25 -39
-51 -57 -111 -48 -162 l6 -37 -59 -17 c-32 -9 -88 -16 -123 -16 -57 0 -69 3
-90 26 -20 21 -24 36 -24 83 1 72 37 150 106 225 69 76 111 93 247 105 134 12
250 41 318 81 27 15 51 26 53 24 2 -2 10 -43 17 -91z m6505 -23 c115 -22 169
-106 139 -215 -20 -70 -76 -126 -164 -163 -137 -58 -231 -39 -276 54 -44 89 1
166 114 199 63 18 73 35 23 35 -43 0 -135 -47 -160 -81 -24 -34 -33 -106 -18
-152 21 -62 112 -127 180 -127 7 0 -9 -24 -36 -53 -66 -73 -110 -159 -125
-245 -7 -40 -15 -72 -19 -72 -18 0 -81 88 -100 139 -58 154 -43 331 43 493 90
170 206 224 399 188z m-8697 -29 c6 -9 -230 -241 -246 -241 -16 0 -7 66 16
116 25 55 75 101 128 121 40 14 95 16 102 4z m7233 -271 c-49 -53 -77 -111
-77 -158 0 -51 22 -123 50 -162 l22 -31 -48 -62 c-180 -233 -533 -597 -579
-597 -30 0 -45 54 -44 162 1 57 -6 152 -15 211 -21 137 -13 175 46 217 23 17
46 30 52 30 6 0 43 15 81 34 80 38 129 82 207 187 63 84 95 115 157 154 56 35
107 53 150 54 l33 1 -35 -40z m-5250 -175 c6 -2 53 0 104 5 52 5 94 8 96 7 9
-10 -28 -111 -75 -207 -132 -268 -281 -430 -424 -464 -21 -5 -28 -3 -28 9 0
17 122 528 146 613 l16 53 76 -6 c42 -4 82 -8 89 -10z m-3524 -130 c130 -34
255 -126 277 -203 13 -49 13 -168 -1 -234 -16 -73 -67 -122 -143 -138 -98 -20
-190 26 -251 125 -27 44 -30 56 -29 125 3 126 60 209 152 218 85 8 138 -40
156 -140 4 -21 11 -38 17 -38 35 0 6 119 -42 168 -35 36 -96 56 -141 47 -16
-4 -73 -29 -126 -56 -115 -59 -161 -104 -210 -209 -20 -41 -36 -76 -37 -77 0
-1 -25 5 -54 14 -38 11 -82 14 -152 11 -55 -2 -99 -1 -99 3 0 22 152 183 231
244 115 90 259 153 349 154 25 1 72 -6 103 -14z m10265 -218 c55 -24 130 -20
190 10 23 11 42 19 42 17 0 -2 -10 -27 -21 -56 -14 -33 -24 -87 -28 -143 l-6
-90 -33 1 c-100 5 -262 194 -262 308 l0 38 37 -32 c20 -18 57 -42 81 -53z
m-410 -6 c41 -47 52 -67 52 -94 0 -99 63 -357 117 -480 14 -31 24 -60 21 -62
-14 -15 -159 -36 -212 -32 -46 4 -64 11 -87 33 -16 15 -29 34 -29 41 0 7 16
30 35 52 47 51 65 99 65 168 0 99 -45 164 -132 192 -21 7 -38 15 -38 19 0 10
142 222 149 222 4 0 30 -27 59 -59z m-5607 -441 c-74 -471 -162 -1014 -167
-1019 -11 -12 -132 86 -235 189 -144 145 -214 185 -319 185 -80 0 -145 -29
-305 -134 -111 -74 -260 -155 -275 -149 -7 3 62 324 72 333 2 2 53 25 113 50
86 36 133 50 214 61 235 31 366 136 689 554 75 96 149 191 165 210 32 37 90
66 95 46 1 -6 -20 -153 -47 -326z m1419 95 c41 -21 86 -80 100 -131 48 -170
-97 -329 -269 -295 -103 20 -171 91 -171 178 0 53 35 97 102 126 35 16 45 26
39 35 -7 11 -18 10 -60 -8 -88 -39 -133 -118 -111 -199 13 -49 134 -207 185
-243 61 -42 153 -62 260 -55 110 8 176 26 278 79 126 66 197 159 205 271 4 47
7 57 20 52 74 -28 255 -46 356 -34 44 4 101 19 132 33 29 14 56 21 59 16 3 -4
14 -51 25 -104 38 -188 95 -325 186 -451 42 -59 52 -80 42 -86 -7 -5 -16 -9
-19 -9 -18 0 -85 -81 -125 -150 -63 -110 -164 -203 -292 -268 -157 -80 -237
-104 -375 -110 l-118 -5 -72 36 c-89 44 -177 128 -213 204 -24 52 -25 59 -15
132 7 54 21 98 48 151 32 64 45 78 83 98 75 37 160 25 229 -35 83 -70 108
-194 62 -298 -41 -93 -100 -135 -187 -135 -39 0 -51 5 -78 33 -29 29 -33 40
-39 106 -7 79 -9 87 -28 76 -18 -12 -6 -136 17 -176 25 -42 70 -69 120 -71 65
-4 236 31 280 57 68 40 158 145 205 240 37 75 43 95 43 154 1 44 -4 74 -13 85
-22 27 -34 4 -22 -41 32 -118 -101 -343 -245 -414 -35 -18 -67 -29 -70 -26 -3
3 6 23 19 44 76 120 73 250 -8 355 -86 114 -264 132 -351 36 -28 -30 -79 -132
-94 -187 -13 -50 -15 -50 -140 0 -146 57 -244 161 -345 364 -63 127 -78 197
-65 301 21 168 90 264 205 285 57 11 192 1 225 -16z m3673 -327 c20 -40 61
-115 91 -167 57 -97 82 -178 70 -226 -4 -15 -32 -53 -63 -84 -55 -56 -185
-151 -207 -151 -6 0 -21 11 -34 25 -12 13 -37 29 -54 34 -52 17 -209 32 -220
21 -21 -21 -100 -11 -153 20 -29 17 -53 32 -53 34 0 2 55 53 123 114 67 61
199 187 292 281 94 94 171 171 171 171 1 0 18 -33 37 -72z m-4078 -236 c54
-111 103 -190 161 -259 24 -28 44 -53 44 -56 0 -6 -260 -111 -263 -106 -4 8 4
521 8 517 3 -3 25 -46 50 -96z"/>
<path d="M5020 12354 c-95 -45 -217 -166 -321 -317 -41 -60 -78 -115 -83 -122
-25 -35 44 -69 245 -119 156 -40 179 -43 179 -22 0 9 -26 20 -77 31 -109 23
-251 64 -285 81 -29 15 -35 28 -18 39 6 4 37 46 69 93 120 179 228 282 332
319 45 16 61 34 41 47 -5 3 -42 -11 -82 -30z"/>
<path d="M2490 11532 c0 -4 75 -33 167 -64 121 -41 170 -53 175 -45 4 7 4 15
0 18 -4 4 -67 27 -140 53 -122 42 -202 57 -202 38z"/>
<path d="M4747 10975 c-50 -17 -172 -111 -241 -185 -60 -65 -65 -78 -116 -291
-43 -180 -34 -208 44 -124 47 52 72 61 179 64 93 2 189 30 244 70 75 54 253
272 253 310 0 42 -86 103 -195 139 -86 28 -125 32 -168 17z m249 -111 c35 -25
64 -48 64 -51 0 -3 -20 -28 -45 -54 -36 -39 -45 -44 -45 -28 0 11 -11 54 -25
95 -14 41 -25 77 -25 79 0 11 16 3 76 -41z m-320 -26 c-4 -13 -10 -51 -13 -84
-5 -52 -2 -70 19 -116 14 -30 42 -72 63 -92 20 -21 35 -39 33 -42 -12 -12
-123 -24 -221 -24 l-110 0 8 72 c3 40 13 88 21 108 14 34 178 200 197 200 5 0
6 -10 3 -22z m232 -33 c27 -59 3 -165 -37 -165 -27 0 -55 63 -48 107 13 75 62
109 85 58z"/>
<path d="M3862 10174 c-30 -21 -28 -39 11 -65 17 -12 49 -38 70 -58 35 -33 37
-39 31 -76 -9 -59 -38 -100 -103 -143 -75 -50 -167 -76 -238 -68 -44 5 -55 3
-60 -10 -10 -26 32 -54 81 -54 93 0 215 48 295 117 22 18 43 33 48 33 4 0 15
-13 24 -29 10 -17 40 -40 75 -57 109 -53 257 -34 441 56 113 56 154 93 129
118 -13 14 -19 12 -54 -10 -123 -82 -262 -130 -377 -130 -121 -1 -171 33 -195
132 -19 80 -13 89 100 143 55 26 100 51 100 57 0 24 -53 41 -151 50 -151 14
-201 12 -227 -6z"/>
<path d="M1563 6735 c-156 -28 -302 -97 -398 -186 -66 -62 -124 -154 -107
-171 6 -6 26 15 57 62 106 159 338 270 568 270 77 0 94 -3 146 -30 75 -37 151
-112 186 -180 37 -73 33 -150 -13 -243 -42 -84 -76 -110 -147 -110 -154 0
-247 187 -165 329 47 84 121 115 189 80 43 -23 53 -41 60 -116 8 -91 25 -95
29 -7 4 81 -18 125 -74 152 -30 14 -53 16 -138 10 -126 -9 -168 -26 -243 -103
-101 -102 -158 -246 -123 -311 17 -32 25 -18 25 47 0 74 38 152 111 232 54 58
129 105 158 98 12 -2 9 -12 -14 -46 -39 -58 -54 -133 -40 -199 38 -178 230
-261 346 -151 18 17 46 61 64 99 59 129 41 232 -62 344 -59 65 -125 108 -197
129 -64 19 -119 19 -218 1z"/>
<path d="M12757 5500 c-45 -91 -61 -172 -54 -265 6 -81 22 -134 63 -202 39
-66 42 -35 5 58 -51 130 -50 245 4 378 15 35 24 73 22 85 -2 16 -13 2 -40 -54z"/>
<path d="M3 4610 c1 -50 2 -51 26 -46 135 28 144 29 202 7 66 -25 177 -121
203 -175 21 -44 20 -91 -3 -142 -61 -135 -264 -179 -384 -83 -21 17 -41 29
-44 26 -14 -15 14 -51 60 -77 46 -26 61 -30 132 -29 122 0 190 32 250 119 43
62 48 152 11 214 -32 54 -114 129 -181 164 -43 23 -62 27 -137 27 -76 0 -89 3
-111 23 l-25 23 1 -51z"/>
<path d="M1120 4534 c-248 -55 -447 -184 -535 -346 -24 -45 -26 -68 -5 -68 5
0 23 27 41 61 48 90 147 177 272 238 144 71 243 95 392 95 117 1 122 0 184
-33 122 -63 230 -194 247 -298 13 -85 -66 -267 -134 -306 -69 -40 -180 -17
-244 50 -104 110 -92 309 25 394 70 50 182 34 218 -33 7 -13 13 -55 14 -95 0
-39 4 -75 8 -80 15 -14 27 22 27 83 0 115 -65 188 -169 187 -197 -2 -283 -33
-380 -139 -80 -88 -124 -178 -129 -264 -4 -65 9 -116 27 -105 5 2 6 34 4 69
-5 59 -2 72 29 139 44 91 139 196 211 231 72 37 127 33 80 -5 -9 -8 -29 -41
-45 -74 -63 -135 -15 -293 114 -377 46 -29 61 -33 118 -33 50 0 75 6 106 23
80 46 160 215 152 322 -9 123 -123 270 -263 340 -67 33 -76 35 -185 37 -71 1
-140 -4 -180 -13z"/>
<path d="M23 4508 c-13 -6 -23 -19 -23 -29 0 -16 3 -16 40 -2 37 15 44 15 106
-6 81 -26 109 -14 44 19 -50 25 -135 35 -167 18z"/>
<path d="M0 3938 c0 -46 158 -167 219 -168 7 0 -15 -31 -51 -68 -69 -74 -107
-137 -90 -154 7 -7 22 8 44 43 19 30 63 80 97 111 155 144 474 228 635 167 80
-29 169 -99 213 -165 36 -54 38 -62 38 -133 0 -66 -4 -85 -33 -143 -38 -77
-75 -109 -137 -115 -95 -11 -190 59 -220 161 -19 64 -14 97 21 168 44 88 135
124 212 84 41 -21 51 -42 59 -121 6 -64 15 -80 27 -49 19 49 -3 139 -42 177
-43 41 -81 48 -196 36 -80 -9 -113 -17 -159 -42 -102 -54 -199 -184 -218 -294
l-10 -58 -107 0 -107 0 -97 -48 c-73 -35 -98 -52 -98 -67 0 -16 10 -14 86 25
47 24 111 49 141 55 164 35 389 -67 440 -198 21 -54 23 -182 4 -249 -13 -49
-51 -97 -92 -118 -17 -9 -56 -15 -97 -15 -62 0 -75 4 -118 33 -31 20 -61 52
-81 87 -29 48 -33 63 -33 127 0 141 64 223 176 223 40 0 51 -5 79 -34 19 -20
38 -56 47 -87 16 -61 38 -77 38 -30 0 74 -65 164 -132 182 -43 11 -106 -2
-148 -31 -14 -9 -50 -28 -81 -42 -67 -31 -116 -79 -158 -158 -79 -148 -95
-338 -34 -411 34 -41 54 -23 22 20 -61 83 -15 324 85 446 30 35 96 85 96 71 0
-3 -7 -31 -15 -63 -20 -75 -11 -163 21 -219 37 -65 115 -130 174 -144 96 -23
201 11 247 79 34 51 47 106 47 211 1 85 -2 101 -27 152 -32 66 -82 111 -174
157 -62 31 -63 32 -63 74 0 59 49 156 112 223 56 59 136 107 169 102 19 -3 19
-5 -6 -38 -14 -19 -33 -58 -42 -88 -48 -150 75 -322 230 -322 95 0 144 38 198
154 64 137 39 246 -85 365 -106 101 -217 138 -365 119 -106 -13 -181 -33 -287
-78 -83 -35 -96 -38 -145 -31 -72 10 -107 30 -174 98 -51 52 -55 55 -55 31z"/>
<path d="M12735 3636 c-79 -25 -123 -56 -211 -149 -103 -110 -174 -221 -215
-339 -37 -109 -62 -229 -50 -241 14 -14 31 1 31 29 0 48 42 189 80 270 51 109
109 193 194 280 73 74 128 109 193 122 22 5 38 14 38 22 0 19 -14 20 -60 6z"/>
<path d="M12758 3467 c-20 -18 -56 -48 -80 -68 -65 -54 -100 -133 -106 -237
-5 -98 13 -157 59 -197 28 -23 69 -34 69 -18 0 3 -18 21 -40 40 -26 23 -43 48
-51 76 -14 51 -5 160 16 211 15 36 90 126 105 126 4 0 10 -24 14 -54 7 -64 47
-161 54 -132 2 10 -1 38 -7 61 -14 55 -14 119 0 168 15 55 9 60 -33 24z"/>
<path d="M12735 2862 c-153 -103 -286 -250 -340 -378 -27 -65 -48 -165 -36
-177 16 -16 21 -6 36 67 28 135 143 298 285 406 112 85 123 96 119 109 -3 8
-24 -1 -64 -27z"/>
<path d="M12787 2507 c-3 -7 -10 -47 -17 -88 -9 -58 -9 -88 0 -132 21 -101 30
-75 30 82 0 83 -2 151 -4 151 -2 0 -6 -6 -9 -13z"/>
<path d="M12712 2003 c-74 -73 -112 -134 -144 -228 -17 -51 -19 -75 -14 -156
18 -286 109 -590 210 -704 48 -55 46 -25 -4 58 -84 139 -145 353 -169 593 -19
181 14 277 136 404 69 73 86 100 63 100 -6 0 -41 -30 -78 -67z"/>
<path d="M12758 1938 c-38 -50 -48 -74 -48 -112 0 -33 5 -57 32 -172 11 -47
57 -111 58 -81 0 10 -7 34 -15 54 -8 19 -15 38 -15 40 0 3 7 3 15 -1 20 -7 20
27 1 44 -8 6 -22 31 -32 55 -20 53 -14 98 21 145 25 34 32 60 16 60 -5 0 -20
-15 -33 -32z"/>
<path d="M10740 1319 c-148 -81 -260 -255 -260 -405 0 -134 63 -339 146 -472
81 -129 221 -250 313 -268 44 -9 40 13 -6 32 -63 27 -148 90 -206 155 -125
137 -230 428 -214 587 13 126 131 288 251 347 51 25 64 27 125 22 83 -7 184
-46 228 -89 128 -124 -11 -358 -211 -358 -90 0 -178 49 -215 120 -26 51 -27
95 -1 137 30 51 65 67 149 73 102 7 90 25 -16 25 -91 0 -118 -13 -161 -76 -21
-30 -23 -42 -19 -99 17 -196 38 -254 126 -338 62 -60 207 -136 279 -146 49 -7
114 7 132 29 20 24 6 28 -42 12 -57 -20 -120 -9 -217 39 -96 47 -191 140 -214
209 -23 67 -22 69 21 40 20 -14 67 -35 105 -46 59 -19 73 -20 120 -9 146 35
235 126 244 253 4 51 0 70 -19 107 -43 84 -183 150 -317 150 -55 0 -76 -6
-121 -31z"/>
<path d="M11383 765 c-65 -33 -152 -124 -194 -206 -33 -62 -34 -68 -34 -179 0
-92 5 -130 23 -190 33 -105 72 -190 88 -190 19 0 18 14 -5 58 -10 20 -31 75
-46 122 -23 69 -28 104 -29 190 -1 99 1 109 31 171 41 82 120 164 191 197 68
31 131 25 229 -22 75 -36 102 -67 110 -125 15 -114 -78 -223 -206 -238 -68 -8
-163 35 -197 89 -28 43 -32 104 -9 147 18 36 79 61 145 61 53 0 67 15 24 26
-41 11 -124 -2 -152 -23 -66 -49 -76 -95 -53 -238 16 -98 50 -163 114 -221 67
-60 183 -116 252 -122 l55 -4 0 -35 c0 -58 22 -33 41 45 30 128 95 224 176
263 40 19 64 23 148 23 117 0 175 -21 213 -78 46 -68 39 -181 -15 -253 -23
-31 -23 -33 -4 -33 47 0 85 90 79 190 -5 88 -39 143 -113 180 -45 23 -61 25
-165 24 -83 0 -125 -5 -151 -17 -55 -25 -141 -124 -174 -201 -32 -77 -48 -85
-124 -66 -91 22 -214 110 -262 187 -37 60 -44 121 -9 78 19 -23 117 -55 169
-55 61 0 161 48 197 96 54 70 69 169 36 234 -23 47 -87 93 -163 119 -86 29
-152 27 -216 -4z"/>
<path d="M8478 243 c-67 -71 -84 -136 -54 -208 10 -24 22 -35 35 -35 25 0 27
13 6 30 -21 17 -29 73 -16 113 7 19 27 52 46 75 58 67 43 87 -17 25z"/>
<path d="M11934 246 c-72 -34 -107 -82 -107 -149 0 -29 5 -63 12 -75 14 -27
47 -31 36 -4 -4 9 -10 41 -13 69 -4 51 -3 54 35 92 26 27 55 44 86 52 28 7 47
17 47 25 0 21 -39 17 -96 -10z"/>
<path d="M9546 188 c-27 -7 -61 -33 -117 -88 -43 -43 -79 -83 -79 -89 0 -25
29 -7 90 55 79 79 105 94 168 94 63 0 125 -40 170 -109 47 -74 75 -65 31 9
-63 106 -164 155 -263 128z"/>
<path d="M9166 133 c-3 -3 -6 -17 -6 -29 0 -13 -13 -39 -30 -57 -36 -41 -37
-49 -8 -45 28 4 68 62 68 99 0 28 -12 44 -24 32z"/>
<path d="M10706 65 c-22 -8 -51 -25 -65 -39 -22 -23 -23 -26 -7 -26 10 0 33 9
50 19 55 34 96 36 170 6 81 -32 105 -28 50 9 -71 47 -129 56 -198 31z"/>
</g>
</svg>
