<?xml version="1.0" standalone="no"?>
<!DOCTYPE svg PUBLIC "-//W3C//DTD SVG 20010904//EN"
 "http://www.w3.org/TR/2001/REC-SVG-20010904/DTD/svg10.dtd">
<svg version="1.0" xmlns="http://www.w3.org/2000/svg"
 width="960.000000pt" height="1280.000000pt" viewBox="0 0 960.000000 1280.000000"
 preserveAspectRatio="xMidYMid meet">
<metadata>
Created by potrace 1.15, written by Peter Selinger 2001-2017
</metadata>
<g transform="translate(0.000000,1280.000000) scale(0.100000,-0.100000)"
fill="#000000" stroke="none">
<path d="M6615 12566 c-78 -34 -363 -285 -443 -389 -78 -100 -202 -182 -347
-226 -38 -12 -171 -40 -295 -61 -124 -22 -250 -45 -281 -51 -51 -11 -59 -11
-85 8 -16 11 -110 61 -209 112 -300 155 -402 221 -540 349 -88 82 -165 137
-207 146 -68 15 -115 -98 -105 -255 8 -122 44 -222 184 -504 145 -292 167
-357 168 -480 0 -84 -3 -96 -43 -189 -24 -55 -57 -152 -74 -215 -26 -100 -31
-134 -32 -246 0 -125 2 -139 40 -272 l6 -23 -73 27 c-98 34 -254 43 -348 19
-78 -20 -182 -66 -176 -77 3 -4 29 3 58 16 158 72 344 74 506 4 36 -15 52 -29
65 -56 32 -67 103 -170 210 -302 58 -72 106 -133 106 -135 0 -2 -22 7 -50 20
-72 35 -184 63 -275 70 -140 11 -295 -27 -565 -136 -58 -23 -120 -47 -137 -52
-30 -8 -46 -28 -23 -28 5 0 90 31 187 69 225 87 293 108 404 123 146 19 306
-11 444 -85 55 -30 60 -35 71 -81 16 -61 64 -112 121 -129 l43 -13 -226 -122
c-124 -67 -229 -122 -234 -122 -5 0 -18 17 -31 38 -79 134 -89 139 -228 122
-96 -13 -100 -12 -126 9 -41 31 -129 29 -196 -5 -93 -47 -179 -147 -179 -210
0 -11 -15 -29 -36 -42 -52 -34 -84 -108 -84 -197 0 -39 4 -85 9 -103 l10 -33
-302 -150 -302 -150 -150 -25 c-382 -64 -597 -18 -806 172 -110 100 -178 137
-264 142 -76 5 -140 -22 -191 -82 -42 -47 -84 -130 -84 -164 0 -17 -9 -26 -32
-34 -72 -25 -207 -100 -251 -138 -29 -26 -59 -66 -79 -108 -32 -64 -33 -71
-32 -182 1 -135 25 -225 102 -375 110 -213 337 -451 436 -457 57 -2 141 3 177
13 33 8 43 5 95 -26 85 -52 182 -79 255 -72 131 12 204 95 285 327 18 54 50
127 71 162 45 77 192 230 294 307 92 70 228 155 235 148 3 -3 10 -35 15 -73
19 -134 83 -230 184 -276 41 -18 67 -22 145 -21 176 2 342 48 563 159 71 35
130 64 132 64 2 0 23 -33 46 -72 161 -282 268 -383 399 -382 39 1 70 9 107 27
60 31 80 53 29 32 -20 -8 -59 -15 -89 -15 -75 0 -141 36 -219 118 -91 97 -199
288 -184 327 10 26 218 174 316 224 104 54 215 92 271 93 89 1 199 -98 363
-328 184 -259 233 -308 324 -321 89 -13 232 -7 318 12 124 27 219 66 524 214
157 77 323 151 370 166 157 50 217 76 256 111 27 24 33 33 19 30 -68 -18 -291
-81 -350 -99 -38 -12 -194 -83 -345 -158 -151 -76 -304 -149 -340 -162 -188
-70 -390 -79 -525 -23 -23 10 -42 31 -65 72 -136 243 -319 472 -442 554 -177
118 -358 105 -554 -41 -86 -65 -158 -99 -207 -99 -68 0 -102 61 -75 137 15 43
15 43 -8 43 -120 0 -151 165 -42 225 21 11 71 43 111 72 145 102 253 144 435
168 l105 14 133 -44 c236 -78 444 -201 528 -314 75 -100 81 -104 141 -99 38 3
67 14 105 38 82 53 278 274 376 424 47 72 126 194 176 271 50 77 121 177 159
221 129 155 284 243 426 244 43 0 150 -42 205 -81 41 -29 43 -19 8 30 -36 49
-101 93 -166 111 -60 17 -139 2 -241 -45 -193 -89 -325 -228 -569 -597 -158
-240 -275 -396 -351 -470 l-58 -57 -49 10 c-65 12 -107 38 -122 74 -11 28 -9
35 37 105 128 193 153 394 65 522 l-24 36 77 11 c165 25 309 76 389 140 35 27
220 286 211 295 -2 2 -60 -43 -129 -100 -220 -184 -341 -254 -449 -261 -66 -4
-66 -4 -122 40 -66 53 -109 129 -109 191 0 23 -5 59 -12 81 -14 50 -12 78 13
134 11 24 17 46 15 49 -3 2 -27 -3 -53 -12 -74 -26 -172 -32 -227 -13 -64 22
-61 3 10 -66 l55 -53 -36 -64 c-20 -36 -44 -73 -53 -84 -27 -29 -69 -47 -97
-40 -29 7 -78 61 -69 76 3 5 -3 18 -14 29 -12 10 -29 44 -38 75 -15 45 -26 61
-66 90 -74 55 -172 167 -212 243 -20 38 -36 72 -36 75 0 8 38 -20 173 -126 95
-76 135 -97 156 -83 20 12 11 25 -12 20 -17 -5 -39 6 -87 44 -36 28 -106 81
-157 118 l-91 68 -23 80 c-21 71 -24 101 -24 265 0 157 3 200 23 288 53 234
155 461 267 595 36 42 72 77 79 77 7 0 23 -26 35 -57 34 -84 142 -291 193
-370 196 -301 407 -439 618 -404 38 6 93 22 122 34 l53 24 130 -44 c546 -184
844 -157 1091 98 61 64 69 69 80 54 18 -25 70 -172 79 -222 l7 -43 -87 0
c-416 0 -832 -149 -1337 -478 -65 -43 -118 -82 -118 -89 0 -7 57 25 128 71
332 217 608 348 877 416 155 40 260 53 410 54 l130 1 6 -95 c6 -82 22 -197 45
-306 l6 -31 -154 -7 c-434 -19 -623 -38 -831 -82 -155 -33 -526 -139 -541
-155 -15 -16 4 -12 232 54 384 112 580 140 1137 163 l161 7 27 -99 c14 -55 63
-220 107 -369 45 -148 99 -344 120 -435 21 -91 52 -218 68 -283 53 -203 67
-312 66 -517 0 -196 -11 -280 -59 -457 -45 -167 -126 -376 -225 -578 -170
-347 -316 -721 -415 -1068 -13 -44 -28 -69 -69 -110 -217 -219 -543 -1159
-473 -1367 8 -25 21 -72 27 -105 21 -104 55 -159 157 -252 75 -69 95 -95 108
-133 34 -103 194 -310 256 -332 l26 -9 -22 -77 c-32 -105 -57 -174 -95 -256
-59 -129 -74 -257 -44 -388 31 -135 80 -233 245 -489 110 -171 170 -283 204
-380 l26 -75 -30 -77 c-106 -265 -147 -503 -196 -1117 -35 -443 -65 -656 -100
-716 -82 -140 -311 -178 -371 -62 -17 33 -16 78 6 197 5 30 7 57 4 60 -8 8
-36 -13 -58 -43 -18 -24 -21 -43 -21 -133 -1 -97 -2 -107 -21 -113 -32 -12
-96 16 -136 59 -33 35 -38 47 -38 88 0 42 6 57 50 117 74 102 66 147 -16 88
-71 -51 -133 -154 -134 -219 0 -18 -5 -33 -10 -33 -20 0 -115 67 -143 99 -18
22 -27 44 -27 68 0 78 62 143 289 304 134 95 215 170 252 233 24 43 29 62 29
121 0 39 7 153 15 255 19 240 19 457 1 553 -18 94 -62 206 -108 278 -31 48
-42 57 -75 63 -79 15 -393 96 -523 136 -229 71 -463 170 -566 241 -188 128
-241 538 -143 1104 16 94 35 195 44 225 8 30 13 56 11 58 -8 7 -59 -116 -102
-244 -67 -199 -87 -339 -81 -554 7 -223 35 -340 124 -515 28 -55 46 -117 84
-295 102 -477 93 -573 -81 -830 -32 -47 -75 -128 -95 -180 -76 -193 -156 -321
-267 -426 -87 -83 -139 -114 -244 -150 -70 -23 -97 -27 -227 -28 l-149 -3 -9
25 c-8 22 -6 59 7 117 3 11 -8 -3 -25 -30 -44 -73 -87 -112 -109 -99 -14 10
-17 29 -17 132 0 66 -4 115 -8 109 -24 -35 -58 -110 -68 -151 -11 -46 -12 -46
-48 -40 -136 23 -182 120 -116 243 70 128 222 197 340 155 28 -10 79 -18 115
-18 54 -1 74 4 119 29 97 54 142 126 262 425 l82 205 1 125 c1 105 -3 137 -23
200 -54 174 -151 318 -350 518 -97 99 -135 145 -164 200 -94 178 -122 330
-114 611 5 206 21 320 76 561 25 108 36 137 81 209 91 146 122 235 159 456 34
198 75 317 159 463 l48 82 -10 78 c-5 42 -10 280 -10 527 0 483 8 625 60 983
61 428 166 796 274 963 43 66 65 117 56 126 -34 34 -205 -194 -221 -295 -4
-20 -22 -95 -41 -167 -74 -278 -149 -702 -193 -1090 -38 -331 -44 -438 -46
-800 l-2 -360 -36 -125 c-20 -69 -59 -208 -87 -310 -70 -250 -89 -299 -186
-490 -121 -236 -171 -426 -196 -741 -13 -162 -2 -345 27 -452 29 -111 151
-293 322 -482 269 -297 330 -392 359 -558 18 -100 8 -173 -47 -344 -58 -182
-101 -266 -168 -334 -68 -67 -134 -95 -259 -109 -48 -5 -105 -14 -127 -20 -22
-5 -63 -10 -91 -10 -106 0 -240 -101 -263 -197 -38 -159 139 -354 358 -395 46
-9 99 -9 213 0 195 15 321 46 457 113 141 70 240 165 299 290 22 46 45 107 51
134 17 74 82 198 157 300 158 217 186 275 204 431 13 121 -14 423 -45 498 -7
15 -1 14 35 -9 67 -42 195 -87 475 -168 400 -116 473 -146 530 -221 39 -51 51
-103 81 -334 21 -163 25 -229 20 -312 -11 -196 -62 -361 -149 -482 -53 -75
-98 -117 -232 -220 -56 -42 -116 -95 -134 -118 -45 -57 -85 -148 -84 -193 2
-88 85 -182 200 -226 30 -11 120 -34 201 -51 168 -35 199 -45 213 -72 9 -17
18 -19 82 -14 181 15 285 81 352 221 50 106 64 211 75 535 6 162 14 327 20
365 6 39 12 117 14 175 5 129 19 192 101 440 90 277 112 409 86 520 -4 19 -55
103 -113 185 -263 376 -340 550 -341 775 -2 159 27 253 123 401 100 155 160
435 160 746 l0 103 64 0 c86 0 281 34 432 76 404 110 634 273 660 466 9 65
-29 193 -54 182 -9 -4 -52 -11 -95 -15 -106 -12 -156 -36 -230 -113 -54 -56
-71 -67 -132 -86 -112 -34 -272 -46 -449 -32 -152 12 -316 40 -354 61 -12 6
-28 33 -38 63 -9 29 -27 73 -39 98 -40 82 -48 152 -35 296 20 219 77 467 163
704 41 111 140 360 262 655 161 390 285 740 371 1044 l38 134 -12 161 c-32
419 -121 851 -262 1277 -34 101 -66 200 -71 219 -15 56 -49 221 -49 236 0 10
15 14 59 14 33 0 63 5 66 10 4 6 -20 10 -63 10 l-70 0 -22 123 c-12 67 -30
161 -39 210 -9 48 -15 90 -12 92 2 3 33 2 68 -1 89 -9 81 10 -9 22 l-72 9 -18
75 c-63 264 -161 462 -318 645 -57 67 -91 131 -117 220 -14 50 -17 114 -20
375 -3 290 -8 534 -11 603 -4 58 -61 82 -127 53z m-77 -142 c-15 -15 -15 -19
3 -54 42 -80 53 -170 53 -437 1 -138 -2 -255 -7 -259 -4 -4 -40 4 -80 18 -39
15 -182 66 -317 114 -135 48 -249 90 -253 94 -4 4 36 43 90 87 54 44 193 164
308 266 116 103 212 187 215 187 2 0 -3 -7 -12 -16z m-2247 -129 c65 -23 256
-155 270 -186 6 -15 63 -99 127 -188 64 -88 128 -181 142 -207 l24 -47 -28
-21 c-101 -73 -124 -97 -158 -162 -20 -38 -48 -80 -63 -94 -24 -23 -28 -24
-53 -9 -110 61 -311 481 -357 743 -8 47 -13 91 -11 98 3 7 7 26 10 41 4 16 16
32 29 37 12 5 23 9 23 9 1 1 21 -6 45 -14z m951 -2624 c26 -21 48 -79 48 -128
0 -35 -19 -93 -30 -93 -4 0 -16 23 -26 52 -21 58 -62 96 -88 81 -14 -8 -12
-12 14 -31 23 -17 30 -31 30 -55 l0 -33 -187 -31 c-104 -17 -189 -30 -191 -28
-1 1 58 37 132 79 122 70 135 80 140 110 6 32 45 78 76 89 30 11 58 7 82 -12z
m-944 -284 c12 -12 28 -41 36 -65 15 -40 14 -43 -10 -72 -55 -65 -158 -56
-235 21 -18 18 -19 18 -38 -20 -46 -89 -131 -121 -225 -85 -19 7 -19 7 -3 -16
46 -65 -3 -176 -85 -195 -14 -3 -29 -13 -32 -21 -8 -20 -20 -18 -54 11 -62 52
-43 134 53 224 40 38 55 60 55 79 1 45 36 110 72 132 39 24 71 25 128 5 57
-20 163 -18 225 5 67 25 88 24 113 -3z m768 12 c277 -51 429 -360 266 -541
-20 -22 -52 -48 -72 -58 l-37 -19 -22 29 -21 30 39 26 c109 72 134 210 55 303
-53 61 -103 84 -200 89 -70 4 -90 1 -165 -26 -107 -38 -1779 -850 -1919 -932
-248 -145 -308 -202 -441 -417 -40 -65 -81 -131 -91 -148 l-19 -30 7 36 c8 48
-19 188 -57 297 -37 104 -140 321 -197 414 l-41 66 127 -33 c208 -55 293 -68
417 -62 75 3 127 11 165 25 30 11 467 219 970 462 503 243 933 449 955 457 48
19 148 41 191 42 17 1 57 -4 90 -10z m-928 -210 c1 -8 -3 -23 -11 -32 -12 -18
-14 -18 -36 1 l-24 19 24 16 c26 19 43 18 47 -4z m1013 -70 c83 -28 101 -85
50 -156 -39 -54 -78 -83 -111 -83 -15 0 -56 19 -91 41 -35 23 -86 48 -114 56
-200 59 -125 151 126 152 58 1 121 -4 140 -10z m-1171 -29 c0 -17 -27 -36 -38
-25 -3 3 0 16 6 31 13 27 32 24 32 -6z m-2110 -341 c80 -42 108 -75 190 -219
207 -363 294 -610 294 -835 0 -124 -17 -205 -64 -301 -53 -108 -60 -114 -146
-114 -92 0 -149 21 -171 63 -15 29 -15 32 2 42 149 86 246 177 266 246 16 60
5 234 -21 334 -30 114 -107 266 -183 360 -61 75 -84 96 -212 191 -64 48 -132
74 -195 74 -59 0 -69 13 -49 62 50 121 170 161 289 97z m2000 -219 c13 -53 43
-100 64 -100 13 0 31 -94 21 -110 -3 -4 -35 -26 -72 -48 -105 -62 -187 -126
-203 -158 -27 -54 -40 -64 -89 -64 -131 0 -214 72 -214 185 0 81 16 102 133
172 118 72 315 173 335 173 7 0 18 -21 25 -50z m-2188 -31 c79 -17 145 -54
215 -121 139 -135 245 -335 274 -520 30 -193 -36 -340 -184 -409 -70 -32 -249
-63 -307 -53 -84 16 -184 89 -264 193 -173 225 -309 628 -236 701 31 31 95 27
152 -9 114 -73 247 -370 304 -682 14 -75 19 -88 28 -73 6 11 11 60 10 109 0
129 -42 266 -150 491 -39 82 -128 173 -209 214 -28 14 -52 26 -54 28 -20 12
179 109 259 126 82 18 97 19 162 5z m3023 -65 c-35 -27 -466 -270 -605 -342
-184 -95 -306 -116 -355 -62 -25 27 -13 62 36 110 48 47 138 100 168 100 26 0
26 -1 1 -50 -21 -42 -26 -75 -11 -84 17 -11 91 23 267 125 238 137 414 218
474 218 42 0 44 -1 25 -15z m-1421 -174 c-39 -112 53 -254 189 -291 52 -14
152 -13 210 2 48 12 97 6 97 -11 0 -26 -230 -103 -339 -114 -106 -10 -136 -1
-202 65 -73 70 -114 152 -106 210 8 63 51 125 110 159 28 16 52 28 54 27 1 -2
-5 -23 -13 -47z"/>
<path d="M1299 8089 c-14 -28 -4 -93 28 -183 36 -100 99 -222 118 -230 32 -12
55 -6 71 19 13 20 14 32 5 75 -21 99 -96 245 -159 313 -31 32 -47 34 -63 6z"/>
<path d="M4560 10605 c0 -21 17 -48 124 -192 87 -119 109 -136 134 -111 39 39
-22 208 -75 208 -8 0 -37 17 -66 39 -29 21 -67 46 -84 55 -30 15 -33 15 -33 1z"/>
<path d="M5810 10575 c-208 -42 -352 -131 -380 -233 -15 -56 -5 -75 34 -66 46
10 70 29 131 105 63 78 79 88 189 118 102 28 178 61 173 75 -5 16 -72 17 -147
1z"/>
</g>
</svg>
