<?xml version="1.0" standalone="no"?>
<!DOCTYPE svg PUBLIC "-//W3C//DTD SVG 20010904//EN"
 "http://www.w3.org/TR/2001/REC-SVG-20010904/DTD/svg10.dtd">
<svg version="1.0" xmlns="http://www.w3.org/2000/svg"
 width="1280.000000pt" height="1152.000000pt" viewBox="0 0 1280.000000 1152.000000"
 preserveAspectRatio="xMidYMid meet">
<metadata>
Created by potrace 1.15, written by Peter Selinger 2001-2017
</metadata>
<g transform="translate(0.000000,1152.000000) scale(0.100000,-0.100000)"
fill="#000000" stroke="none">
<path d="M4620 11087 c-164 -60 -340 -202 -529 -427 -194 -231 -300 -384 -382
-548 l-44 -88 -125 4 c-280 10 -546 -63 -1120 -307 -140 -60 -284 -119 -321
-132 l-65 -23 -90 28 c-82 26 -193 72 -714 299 -330 144 -492 197 -595 197
-43 0 -57 -5 -77 -25 -24 -23 -88 -144 -88 -165 0 -20 135 -342 243 -580 175
-387 261 -615 237 -630 -7 -4 -35 -10 -63 -13 -61 -8 -89 -29 -67 -51 12 -11
27 -12 65 -6 92 16 91 16 104 -47 21 -101 25 -255 10 -340 -34 -191 -11 -381
81 -668 105 -325 140 -471 140 -587 0 -44 -2 -48 -24 -48 -36 0 -50 -26 -56
-99 l-5 -66 -42 -7 c-89 -15 -207 -101 -365 -266 -114 -119 -186 -217 -237
-322 -68 -141 -44 -257 88 -423 106 -133 235 -223 312 -215 39 4 40 3 33 -27
-4 -16 -40 -142 -81 -280 -175 -592 -233 -876 -233 -1146 0 -196 35 -323 109
-393 17 -17 31 -36 31 -43 0 -26 43 -98 99 -167 149 -184 484 -421 685 -486
23 -7 61 -34 91 -65 66 -65 187 -128 530 -275 141 -60 279 -122 308 -137 l52
-28 18 -85 c10 -47 58 -204 107 -350 117 -349 132 -461 90 -699 -24 -135 -27
-340 -6 -417 45 -170 180 -274 355 -274 31 0 97 -7 147 -15 111 -18 157 -8
298 60 261 126 379 329 345 595 -17 136 -85 318 -146 391 l-27 31 79 427 c43
234 81 429 85 434 3 4 51 10 105 14 l98 6 -6 -44 c-3 -24 0 -92 7 -150 18
-146 8 -204 -45 -271 -141 -179 -121 -315 64 -432 145 -92 225 -127 334 -148
223 -42 535 -23 661 41 166 84 242 236 183 366 -38 84 -199 202 -334 245 -36
11 -37 13 -31 48 22 128 141 336 300 528 512 616 631 752 848 970 119 119 200
190 265 234 114 78 176 149 235 273 52 108 82 215 130 462 29 153 35 210 40
375 10 340 -14 700 -59 875 -8 33 -44 119 -80 190 -106 214 -150 411 -120 535
46 193 23 414 -63 585 -58 116 -228 245 -323 245 l-39 0 7 58 c13 96 8 242
-10 303 -22 75 -66 133 -117 155 -23 10 -48 30 -55 44 -7 14 -39 139 -69 277
-99 442 -199 735 -342 1002 -25 46 -44 84 -42 86 13 12 140 69 218 98 178 66
343 82 544 52 55 -8 117 -15 138 -15 35 0 39 2 36 23 -3 20 -13 24 -108 39
-58 9 -150 20 -205 24 -171 11 -364 -33 -563 -128 l-90 -43 -92 138 c-54 80
-103 143 -118 151 -15 8 -44 28 -65 44 l-38 30 43 35 c41 33 252 188 441 324
61 44 87 69 87 83 0 29 -27 36 -53 13 -12 -11 -78 -60 -147 -108 -69 -49 -189
-137 -268 -197 l-142 -107 -30 47 c-67 105 -93 240 -110 567 -6 105 -14 217
-20 250 -5 33 -10 97 -10 143 0 130 -32 182 -117 189 -33 2 -68 -4 -113 -20z
m124 -56 c9 -10 21 -33 27 -52 13 -44 40 -463 33 -510 -9 -55 14 -240 42 -337
14 -48 45 -128 69 -179 l43 -91 -107 -88 c-147 -122 -454 -431 -534 -539 -78
-104 -170 -282 -165 -316 6 -44 36 -35 59 18 86 202 233 389 504 640 115 106
264 233 274 233 9 -1 261 -357 261 -368 0 -5 -37 -33 -82 -63 -150 -98 -446
-330 -500 -391 -19 -22 -14 -48 11 -48 9 0 43 23 76 52 179 154 528 412 538
397 1 -2 14 -20 28 -39 38 -51 64 -108 78 -165 6 -27 25 -93 42 -146 l30 -96
-31 -82 c-33 -86 -36 -127 -8 -144 13 -9 26 -3 64 26 52 41 78 46 93 19 5 -10
21 -75 36 -145 l26 -127 -49 -58 c-75 -87 -97 -137 -69 -161 10 -8 28 -2 71
26 72 44 77 39 74 -76 l-3 -84 -70 -24 c-111 -38 -318 -90 -470 -119 -174 -33
-378 -38 -437 -12 -70 32 -83 91 -36 168 l19 33 30 -32 c48 -53 128 -75 184
-51 19 8 19 9 -3 9 -53 2 -102 43 -127 106 l-16 40 22 -28 c48 -63 116 -72
202 -29 l56 28 3 -25 c3 -24 5 -22 41 26 68 92 94 210 67 302 -8 28 -6 38 7
53 16 18 57 24 88 12 47 -18 64 -132 42 -279 -9 -55 -14 -101 -13 -103 2 -1
20 43 40 100 94 269 97 377 10 394 -50 9 -130 -9 -248 -57 -55 -23 -137 -55
-181 -71 -106 -39 -152 -66 -223 -136 l-59 -57 -12 -85 c-20 -140 -60 -288
-86 -318 -2 -2 -36 9 -77 24 -65 25 -86 28 -193 28 -113 0 -127 -2 -232 -38
-83 -28 -167 -69 -315 -153 -599 -341 -1061 -555 -1483 -690 -93 -30 -240 -77
-325 -105 -138 -46 -165 -51 -245 -52 -49 0 -116 5 -148 12 l-57 13 26 32 c64
79 174 229 174 239 0 13 -37 8 -168 -22 -89 -21 -104 -22 -116 -10 -19 21 -79
207 -72 225 6 16 83 57 217 115 100 43 149 75 149 96 0 20 -31 18 -178 -12
-237 -48 -316 -15 -341 145 -23 150 -24 188 -4 196 10 4 109 11 221 14 l203 6
-41 31 c-25 20 -80 44 -143 64 -56 17 -124 39 -152 49 l-50 18 -6 119 c-5 97
-12 136 -38 213 -17 52 -29 97 -25 100 12 13 504 3 674 -13 222 -21 543 -68
730 -106 127 -25 147 -27 160 -15 26 27 -9 42 -170 75 -380 75 -710 111 -1114
119 l-320 6 -37 85 c-20 47 -44 122 -53 168 -24 116 -55 199 -156 412 -49 102
-98 209 -110 239 -53 136 -77 315 -45 341 23 19 107 24 178 10 100 -19 202
-62 559 -236 476 -232 572 -268 652 -244 60 18 153 14 219 -9 120 -42 228
-121 482 -355 88 -81 196 -178 240 -216 88 -74 256 -193 263 -185 7 7 -77 143
-152 248 -62 87 -185 233 -347 412 -96 105 -156 193 -165 242 -9 47 24 83 75
83 68 0 113 -20 173 -77 72 -69 135 -162 323 -473 178 -296 265 -424 353 -526
58 -67 161 -153 185 -154 28 -1 -32 178 -117 348 -114 227 -238 433 -473 781
-79 117 -142 216 -139 218 3 3 25 8 49 10 39 5 52 1 91 -26 127 -88 324 -388
617 -938 74 -139 138 -251 143 -250 39 13 22 175 -40 390 -110 383 -313 790
-422 848 -40 21 -33 26 65 45 l77 14 34 -32 c53 -51 140 -189 187 -296 23 -53
70 -182 104 -287 73 -224 129 -375 141 -375 18 0 40 83 40 153 0 89 -26 200
-79 337 -43 110 -154 341 -216 447 l-36 62 27 7 c15 4 115 4 223 2 l195 -6
-177 56 c-97 30 -177 60 -177 65 0 6 93 150 207 321 220 330 321 452 449 541
31 22 73 54 93 71 85 74 159 95 195 55z m170 -2647 c19 -18 20 -44 5 -97 -9
-33 -13 -37 -32 -31 -61 18 -89 59 -67 99 22 40 69 55 94 29z m891 -435 c49
-14 50 -15 73 -79 56 -156 61 -261 20 -410 -17 -59 -21 -98 -19 -185 2 -85 -2
-129 -19 -195 -27 -110 -122 -303 -200 -410 -71 -97 -294 -323 -420 -426 -161
-132 -560 -424 -626 -457 -62 -32 -192 -50 -309 -44 -117 6 -341 45 -440 77
-129 42 -223 50 -540 47 -296 -2 -301 -2 -422 26 -154 35 -330 85 -703 198
-282 86 -558 161 -646 175 -38 6 -47 14 -104 90 -105 142 -162 269 -146 326
11 42 22 49 137 83 63 18 227 78 364 133 138 55 457 177 710 272 784 293 1071
417 1371 592 218 128 291 145 569 132 303 -14 456 -10 556 14 73 18 190 36
349 56 76 9 396 -2 445 -15z m372 -552 c15 -13 42 -29 59 -36 44 -18 91 -69
109 -120 22 -64 19 -198 -9 -353 -13 -73 -29 -164 -34 -201 -19 -129 -104
-247 -261 -365 -72 -54 -83 -59 -143 -65 -121 -11 -215 -60 -324 -167 -77 -76
-146 -172 -270 -375 -155 -256 -190 -303 -319 -432 -116 -117 -124 -123 -163
-123 -56 0 -88 30 -182 170 -92 137 -124 172 -194 207 -28 14 -70 39 -93 55
-78 53 -55 74 105 98 78 11 136 26 175 45 32 15 74 27 94 28 70 2 79 -53 37
-241 -29 -127 -35 -240 -15 -287 11 -26 14 -28 22 -13 5 9 32 108 59 220 62
249 82 311 132 411 45 91 97 146 253 268 249 196 469 433 698 754 l85 120 26
160 c15 88 32 176 38 195 22 72 63 89 115 47z m-5055 -784 c9 -10 46 -79 83
-153 55 -111 78 -146 127 -193 33 -33 80 -68 104 -79 25 -11 118 -35 207 -54
144 -30 176 -41 306 -103 269 -127 409 -165 1041 -281 802 -146 1091 -234
1422 -429 88 -52 246 -170 287 -215 23 -24 23 -26 5 -26 -11 0 -88 11 -172 25
-84 14 -185 25 -225 25 -56 0 -147 18 -402 79 -827 199 -1228 272 -1885 346
-173 19 -380 47 -460 61 -116 22 -181 28 -326 30 -370 5 -561 73 -642 229
-103 199 105 555 422 720 77 40 87 42 108 18z m5272 -185 c87 -197 170 -548
212 -898 22 -178 24 -613 5 -765 -49 -383 -207 -663 -445 -789 -107 -56 -136
-33 -191 149 -42 141 -73 218 -116 287 -64 101 -119 219 -119 254 0 36 29 78
69 99 16 8 83 27 150 44 138 34 195 61 228 110 37 54 29 62 -29 31 -144 -76
-448 -144 -538 -120 -22 6 -40 15 -40 19 0 14 79 82 247 211 89 68 161 125
159 127 -2 2 -46 -25 -98 -60 -151 -103 -266 -150 -302 -124 -15 11 -15 27 3
218 19 207 17 272 -9 277 -12 2 -14 -9 -12 -59 4 -72 -13 -259 -34 -373 -18
-95 -50 -182 -75 -207 -19 -19 -18 -21 49 -114 151 -211 291 -463 333 -598 13
-39 32 -85 43 -102 33 -48 34 -153 2 -238 -28 -76 -96 -185 -164 -267 -89
-106 -338 -364 -454 -470 -135 -123 -211 -176 -369 -259 l-114 -59 -272 -11
c-150 -6 -312 -17 -360 -23 -60 -7 -154 -8 -293 -2 -312 13 -417 9 -555 -20
-66 -13 -131 -28 -145 -32 -43 -12 -12 11 115 82 174 98 224 151 275 288 50
132 62 224 67 521 4 233 3 294 -11 358 -27 133 -81 229 -120 214 -9 -3 -30
-31 -47 -62 -26 -47 -35 -56 -53 -51 -129 35 -660 132 -761 138 l-40 3 3 45
c2 29 -9 87 -32 167 -65 226 -137 397 -216 513 -39 57 -88 108 -78 80 4 -8 26
-67 51 -130 94 -241 157 -484 157 -602 l0 -52 -27 26 c-111 103 -420 138 -608
67 -60 -22 -108 -56 -100 -70 4 -5 122 -9 273 -9 360 0 496 -15 545 -60 46
-44 158 -78 307 -95 299 -34 549 -86 613 -129 28 -19 34 -31 45 -91 16 -92 18
-388 3 -490 -20 -133 -51 -253 -73 -280 -11 -14 -39 -36 -61 -48 -37 -19 -57
-22 -162 -22 -125 0 -178 10 -272 51 -52 22 -57 23 -345 17 -307 -6 -507 5
-628 33 -36 9 -123 19 -195 24 -226 14 -435 79 -595 185 -152 101 -294 274
-359 436 -40 101 -81 268 -88 361 -14 188 46 466 221 1019 61 195 107 351 120
410 8 36 51 42 228 29 747 -56 2502 -377 2664 -488 13 -8 80 -226 129 -416 46
-179 61 -297 48 -365 -13 -67 -3 -115 34 -153 57 -60 124 -75 159 -37 26 28
23 131 -5 219 -11 36 -21 91 -21 123 0 68 -21 216 -55 384 -14 67 -25 128 -25
135 0 10 35 13 148 14 217 1 409 44 533 120 72 43 195 156 229 211 l27 42 7
-97 c7 -111 -9 -532 -23 -578 -5 -17 -20 -43 -35 -57 -47 -47 -23 -150 43
-183 31 -16 104 15 150 63 29 31 32 40 27 72 -3 20 -7 252 -9 516 l-4 480 52
80 c28 44 87 138 131 208 145 236 271 344 413 354 110 9 239 92 313 202 49 73
69 91 100 91 25 0 32 -7 52 -52z m-1095 -1498 c1 -229 -6 -276 -45 -286 -14
-4 -27 -4 -30 -2 -2 3 1 113 7 244 6 131 9 304 7 384 -5 140 -5 147 21 200
l25 55 7 -195 c3 -107 7 -287 8 -400z m-1146 12 c9 -10 24 -50 32 -88 18 -90
75 -476 75 -512 0 -31 -15 -60 -26 -49 -8 7 -154 659 -154 685 0 16 47 -7 73
-36z m1117 -391 c0 -42 -4 -60 -14 -64 -18 -7 -75 8 -99 25 -16 12 -16 15 -1
36 20 28 72 62 97 62 14 0 17 -9 17 -59z m-975 -301 c18 -20 32 -98 21 -125
-5 -14 -10 -13 -45 5 -69 35 -92 94 -49 124 30 21 51 20 73 -4z m-1745 -1285
c371 -19 704 -38 740 -41 l65 -6 -40 -35 c-52 -45 -274 -193 -351 -234 -57
-30 -62 -31 -146 -25 -193 13 -648 125 -793 195 -56 28 -102 60 -154 110 l-75
71 40 0 c21 0 343 -16 714 -35z m2575 -144 c3 -5 -62 -115 -144 -243 -129
-203 -150 -241 -156 -289 -26 -191 -141 -357 -273 -395 -100 -29 -193 8 -299
117 -50 52 -53 58 -84 179 -28 107 -33 143 -33 250 -1 146 8 204 30 196 8 -3
68 -11 132 -17 245 -23 462 21 619 123 120 78 191 105 208 79z m-1433 -262
c41 -13 48 -28 48 -107 0 -80 -26 -180 -93 -357 -53 -142 -61 -170 -65 -250
l-5 -90 -70 -68 c-50 -47 -97 -81 -155 -110 -77 -38 -89 -41 -166 -41 -74 0
-90 4 -157 35 -97 47 -194 135 -226 207 -37 83 -79 246 -123 471 -22 113 -43
215 -46 226 -5 19 0 20 138 21 116 0 185 7 363 37 121 20 234 38 250 41 55 8
269 -2 307 -15z m1353 -484 c98 -48 168 -152 168 -250 0 -61 -20 -103 -70
-144 -68 -56 -133 -74 -263 -75 -129 -1 -209 18 -330 79 -62 31 -73 33 -207
39 -231 10 -292 44 -328 188 -17 70 -17 78 -3 100 9 13 33 32 55 42 l39 17 76
-75 c57 -58 94 -85 154 -113 73 -35 86 -38 169 -38 72 0 100 5 139 23 74 34
131 85 187 169 l51 76 55 -6 c31 -3 79 -17 108 -32z m-1404 -452 c112 -122
182 -439 133 -602 -22 -77 -81 -137 -153 -157 -31 -9 -78 -26 -104 -39 -27
-13 -74 -29 -105 -35 -32 -6 -98 -21 -149 -32 -223 -50 -407 11 -479 159 -35
71 -37 176 -5 270 14 41 21 87 21 135 0 65 23 241 35 276 4 10 15 6 40 -16
143 -126 352 -148 515 -55 25 15 78 52 119 84 80 64 85 64 132 12z"/>
<path d="M4581 10924 c-64 -53 -127 -204 -177 -420 -35 -154 -45 -390 -20
-475 25 -87 32 -91 280 -141 174 -35 214 -41 198 -27 -12 9 -56 29 -99 44
-180 63 -260 120 -282 202 -35 124 19 464 119 745 16 48 30 89 30 92 0 13 -20
5 -49 -20z"/>
<path d="M980 9740 c0 -28 168 -131 480 -295 201 -106 275 -150 304 -183 18
-21 18 -22 0 -28 -11 -3 -26 -9 -34 -13 -17 -9 -279 44 -480 96 -188 49 -179
48 -186 28 -4 -9 0 -23 7 -30 16 -16 265 -82 459 -121 74 -15 138 -30 142 -33
4 -4 -40 -68 -97 -144 -57 -75 -99 -137 -94 -137 22 0 121 53 179 96 33 24 79
70 103 102 31 42 47 56 62 54 79 -13 406 -100 502 -133 211 -74 384 -168 500
-272 52 -48 83 -54 83 -17 0 41 -185 175 -354 256 -163 78 -331 131 -704 219
l-24 6 22 36 21 36 -33 34 c-75 78 -294 204 -568 326 -233 104 -290 127 -290
117z"/>
<path d="M4975 8134 l-30 -25 33 17 c17 10 32 22 32 26 0 12 -2 11 -35 -18z"/>
<path d="M2305 8130 c-120 -19 -253 -71 -319 -125 l-29 -23 17 -47 c34 -87
214 -342 303 -427 26 -25 63 -46 118 -65 71 -24 94 -28 205 -28 115 0 130 2
183 27 31 15 57 31 57 35 0 5 -80 9 -177 8 -192 0 -238 10 -238 50 0 17 5 19
30 15 17 -3 71 -5 120 -5 103 1 145 17 206 82 43 44 67 91 99 186 25 77 20 76
125 26 89 -41 152 -93 179 -148 14 -26 32 -54 41 -61 15 -12 19 -12 32 5 47
63 -52 305 -152 371 -39 25 -192 73 -319 99 -136 29 -379 41 -481 25z m-17
-194 c-20 -112 39 -214 141 -244 51 -16 157 -14 201 2 78 29 77 29 50 7 -46
-38 -134 -79 -196 -92 -154 -32 -264 67 -264 238 0 57 9 84 43 121 31 33 35
27 25 -32z m317 -19 c29 -24 43 -85 31 -133 -7 -26 -8 -26 -73 -22 -59 4 -69
7 -94 36 -17 19 -29 44 -29 60 0 69 109 108 165 59z"/>
<path d="M4410 7673 c227 -292 371 -741 387 -1210 6 -179 11 -196 49 -168 16
11 19 37 27 191 10 197 4 265 -40 444 -62 257 -184 546 -280 665 -48 59 -111
105 -146 105 -17 0 -17 -2 3 -27z"/>
<path d="M2873 6713 c-23 -54 -23 -221 0 -289 26 -74 72 -122 125 -130 57 -9
55 2 -16 107 l-58 85 -1 111 c-1 156 -17 193 -50 116z"/>
<path d="M2514 6496 c-12 -50 50 -230 84 -240 25 -8 62 6 85 32 22 24 16 39
-19 52 -13 5 -24 17 -24 25 0 19 -46 113 -68 138 -22 25 -50 22 -58 -7z"/>
<path d="M2420 3986 c-156 -59 -359 -196 -396 -268 -19 -36 -11 -48 28 -48 49
0 105 33 203 117 139 120 174 146 229 164 28 10 51 24 51 31 0 18 -71 20 -115
4z"/>
<path d="M8152 9065 c-40 -34 -56 -90 -47 -170 3 -33 1 -91 -4 -130 -6 -38
-15 -126 -21 -195 -14 -179 -39 -302 -59 -295 -22 8 -299 177 -405 247 -49 32
-97 58 -106 58 -20 0 -32 -21 -22 -37 9 -14 172 -118 369 -237 92 -55 160
-102 158 -109 -30 -99 -89 -267 -98 -283 l-12 -22 -74 29 c-161 65 -664 198
-697 185 -8 -3 -14 -14 -14 -25 0 -15 10 -23 38 -29 20 -6 116 -29 212 -52
161 -39 456 -129 489 -149 10 -7 -9 -46 -84 -177 -111 -194 -215 -403 -274
-552 -46 -114 -105 -304 -116 -369 -4 -23 -18 -54 -32 -69 -60 -65 -68 -162
-28 -333 26 -115 48 -348 36 -396 -4 -17 -22 -61 -40 -98 -42 -86 -52 -180
-27 -256 l16 -50 -92 -113 c-164 -203 -262 -369 -340 -578 -21 -58 -64 -156
-94 -218 -96 -195 -134 -343 -154 -596 -19 -238 -14 -317 26 -477 62 -248 170
-533 246 -650 19 -29 57 -92 84 -138 112 -196 287 -388 452 -499 49 -33 95
-61 101 -63 6 -2 45 -123 86 -269 63 -221 80 -268 101 -286 l26 -21 -37 -51
c-73 -102 -95 -220 -52 -283 51 -75 134 -107 236 -89 193 33 332 87 377 145
15 19 35 35 45 35 11 0 23 10 29 24 14 37 69 95 109 115 82 42 197 51 328 26
137 -26 186 -58 382 -249 l176 -171 7 -70 c17 -161 79 -320 164 -414 56 -62
67 -68 163 -92 95 -24 112 -23 298 4 148 22 154 24 189 57 62 60 134 246 134
347 0 15 51 138 114 273 l114 244 134 23 c297 51 490 140 548 252 10 20 23 54
29 76 11 38 17 42 119 92 133 65 289 181 441 328 121 118 234 258 252 315 7
19 33 80 59 135 107 224 160 472 160 750 -1 456 -158 1038 -421 1551 -37 72
-70 145 -74 162 -10 48 -66 118 -156 196 -46 39 -88 84 -93 99 -9 24 -5 32 31
70 54 55 66 87 62 172 -5 147 -2 226 20 405 28 228 31 452 7 558 -9 40 -16
104 -16 142 0 76 18 221 28 232 10 10 220 -9 352 -33 63 -11 155 -33 204 -50
91 -30 116 -31 116 -5 0 48 -300 124 -558 142 l-103 7 7 31 c15 72 83 260 199
546 67 168 141 361 164 429 l42 124 -28 35 c-82 101 -193 96 -454 -19 -48 -21
-237 -112 -420 -202 -184 -91 -372 -179 -419 -197 -104 -40 -92 -42 -384 77
-426 174 -592 218 -811 217 -132 0 -145 -2 -235 -33 -62 -22 -95 -30 -98 -22
-2 6 -35 63 -73 127 -284 471 -677 839 -919 861 -50 5 -59 2 -88 -22z m235
-97 c178 -119 367 -327 555 -613 86 -130 168 -288 168 -323 0 -27 -2 -27 112
3 215 56 434 71 612 40 218 -38 469 -149 678 -299 44 -31 64 -55 87 -101 34
-68 50 -131 51 -192 0 -41 -2 -43 -67 -86 -145 -93 -371 -302 -360 -331 11
-29 34 -17 123 67 105 97 210 183 278 225 l49 31 38 -48 c24 -30 39 -60 39
-77 1 -39 24 -101 47 -126 10 -11 41 -30 68 -43 89 -39 87 -48 -18 -82 -146
-49 -237 -92 -237 -115 0 -32 28 -32 102 2 40 19 110 46 157 61 l86 27 8 -21
c5 -12 5 -54 1 -94 -11 -126 26 -173 264 -339 155 -108 223 -170 252 -231 13
-26 27 -55 32 -63 62 -108 73 -182 39 -255 -44 -92 -49 -95 -226 -120 -163
-23 -366 -45 -625 -67 -85 -7 -324 -13 -580 -13 l-435 0 -55 26 c-114 55 -174
130 -335 419 -134 241 -126 233 -242 270 -171 55 -315 50 -431 -15 -25 -14
-48 -25 -51 -25 -4 0 -8 47 -9 105 -1 129 -19 196 -68 253 -109 128 -375 240
-507 214 -49 -10 -54 -8 -119 27 -64 35 -68 35 -95 20 -26 -14 -28 -20 -27
-70 1 -30 9 -80 19 -109 18 -58 126 -292 131 -287 2 1 -10 41 -26 88 -39 113
-47 170 -27 191 40 40 196 26 188 -17 -1 -11 -3 -50 -4 -87 -1 -57 3 -73 29
-114 81 -131 273 -152 347 -38 12 19 25 34 29 34 3 0 17 -21 29 -47 32 -66 38
-169 12 -202 l-19 -23 -89 32 c-83 29 -295 90 -313 90 -4 0 36 -23 88 -51 121
-66 206 -124 221 -151 10 -18 8 -24 -10 -39 -12 -10 -47 -23 -79 -30 -31 -7
-69 -18 -83 -25 -67 -33 -164 30 -494 320 -60 53 -129 109 -152 124 -49 31
-59 61 -49 150 20 162 67 299 180 517 82 159 262 454 282 462 17 6 131 -68
247 -161 121 -97 224 -166 247 -166 19 0 32 21 22 37 -4 5 -36 29 -72 53 -36
24 -117 85 -181 135 -65 51 -142 107 -173 124 -31 18 -56 35 -56 37 0 3 17 36
38 72 21 37 52 99 67 137 16 39 30 71 31 73 2 4 143 -92 144 -98 0 -3 -32 -20
-72 -37 -39 -18 -69 -35 -66 -38 3 -3 46 4 96 17 l90 22 38 -29 c123 -94 263
-253 347 -394 27 -45 51 -81 55 -81 21 1 34 20 29 42 -16 61 -153 245 -270
361 -65 65 -117 120 -115 121 1 1 28 9 58 17 67 17 95 54 106 136 19 157 -45
452 -139 639 -37 74 -88 134 -113 134 -18 0 -18 2 10 -61 61 -139 128 -383
146 -534 17 -145 -4 -208 -91 -267 l-40 -27 -99 71 c-107 75 -105 71 -82 143
4 11 7 169 7 350 0 341 3 373 42 403 34 25 70 13 180 -60z m3563 -828 c41 -76
-110 -427 -351 -820 -50 -81 -114 -171 -95 -133 8 15 -25 38 -159 108 -60 32
-112 60 -114 61 -5 4 46 184 54 193 4 3 57 8 118 11 106 5 112 6 115 27 5 33
-23 36 -210 24 l-163 -11 -62 59 -62 59 182 67 c227 85 385 162 574 281 82 51
151 93 155 94 4 0 12 -9 18 -20z m-748 -640 c-39 -27 -73 -50 -76 -50 -3 0 2
20 10 44 17 48 25 53 93 55 l44 1 -71 -50z m-2939 -618 c25 -22 21 -57 -9 -81
-42 -33 -60 -27 -72 21 -20 76 25 109 81 60z m92 -189 c-25 -62 -67 -93 -124
-93 -59 0 -111 36 -111 76 l0 24 43 -21 c25 -14 62 -23 91 -23 44 -1 51 2 80
36 17 21 32 38 34 38 1 0 -5 -17 -13 -37z m-741 -160 c28 -20 118 -90 200
-157 83 -67 187 -144 231 -171 44 -27 81 -50 83 -51 2 -1 -8 -14 -22 -29 -14
-14 -35 -51 -47 -81 -13 -30 -27 -54 -32 -54 -45 0 -494 300 -629 420 -43 37
-48 46 -48 83 0 49 35 116 69 133 20 10 32 7 84 -23 34 -19 84 -51 111 -70z
m1403 -91 c54 -28 87 -70 153 -194 47 -87 71 -118 156 -203 181 -179 288 -386
329 -635 73 -454 -124 -822 -516 -958 -139 -49 -258 -64 -470 -60 l-185 3 -66
33 c-177 87 -321 343 -373 662 -19 122 -19 358 0 477 37 227 139 442 267 559
44 40 61 48 161 74 72 19 153 76 240 171 56 60 87 86 110 91 56 12 150 2 194
-20z m-1469 -293 c68 -62 137 -109 264 -178 87 -48 169 -113 157 -126 -9 -9
-184 -25 -269 -25 -140 1 -205 26 -222 86 -24 87 -19 294 8 294 3 0 31 -23 62
-51z m3951 -390 c23 -65 3 -142 -43 -172 -52 -34 -1507 -145 -1617 -123 -31 6
-37 14 -76 100 -24 51 -43 98 -43 104 0 18 27 20 275 27 495 12 1435 71 1454
91 15 14 40 0 50 -27z m-3779 -25 c85 -3 181 -2 212 4 32 5 59 7 61 6 2 -2 -8
-59 -22 -126 l-26 -122 -43 -31 c-40 -27 -51 -30 -120 -30 -67 0 -96 7 -215
49 -190 67 -255 126 -226 203 23 60 35 66 134 59 50 -3 160 -8 245 -12z m3650
-253 c0 -17 -151 -221 -211 -285 -87 -94 -105 -103 -250 -122 -220 -29 -521
-11 -707 42 -126 37 -250 101 -320 168 -37 35 -77 94 -69 102 14 14 435 47
1057 83 362 21 500 25 500 12z m-3764 -168 c61 -60 165 -160 231 -223 116
-111 122 -118 154 -200 19 -47 59 -137 90 -200 59 -121 48 -106 413 -535 l51
-59 -60 34 c-271 153 -452 269 -505 325 -19 20 -60 50 -90 67 -93 53 -138 89
-185 149 -98 125 -180 354 -204 572 -11 92 -14 177 -8 177 2 0 53 -48 113
-107z m-229 82 c7 -2 17 -23 23 -47 67 -264 119 -404 257 -690 l95 -196 -30
-154 c-17 -84 -41 -222 -54 -305 -12 -84 -27 -153 -31 -153 -5 0 -67 27 -137
60 -125 59 -201 80 -236 66 -13 -5 3 -16 60 -41 43 -19 103 -49 134 -67 70
-42 178 -141 169 -156 -4 -6 -33 -16 -65 -22 -150 -30 -192 -42 -192 -55 0
-20 35 -24 161 -18 138 7 153 1 190 -74 20 -40 23 -64 24 -148 0 -100 0 -101
-37 -151 -84 -114 -243 -245 -366 -301 -83 -39 -199 -44 -266 -12 -206 96
-355 466 -381 944 -14 252 43 536 169 838 103 248 276 545 383 658 32 33 39
36 76 32 23 -3 47 -6 54 -8z m4174 -22 c21 -18 50 -65 80 -129 26 -56 70 -142
97 -190 297 -529 495 -1627 387 -2150 -27 -129 -77 -249 -119 -283 -9 -7 -13
-17 -10 -22 16 -27 -117 -199 -261 -337 -123 -118 -272 -221 -383 -265 -69
-28 -88 -31 -177 -31 -262 1 -646 160 -813 338 -102 108 -117 193 -56 315 69
137 328 505 425 603 53 53 101 71 239 88 103 12 361 13 413 1 36 -9 38 -8 35
12 -2 16 -15 26 -48 36 -39 13 -72 12 -265 -2 -281 -22 -309 -22 -361 4 -34
16 -49 32 -69 72 -57 118 -56 298 4 686 33 216 33 215 167 270 43 18 104 47
136 63 l56 30 138 286 c281 588 305 632 338 632 8 0 29 -12 47 -27z m-1504
-267 c410 -109 398 -107 643 -115 l205 -6 -60 -39 c-93 -62 -224 -124 -295
-140 -139 -33 -441 28 -665 133 -93 44 -110 60 -110 111 0 30 31 120 41 120 2
0 110 -29 241 -64z m1113 -158 c0 -54 -118 -251 -211 -352 -58 -64 -152 -129
-259 -181 -169 -81 -297 -103 -675 -115 -517 -17 -757 -51 -1107 -153 -65 -19
-115 -31 -113 -27 3 4 46 36 95 70 152 104 321 178 675 295 421 139 461 147
740 150 198 1 227 4 290 24 102 33 264 120 411 221 71 49 135 89 142 89 6 1
12 -9 12 -21z m-860 -997 c38 -72 -21 -223 -137 -350 -176 -193 -396 -300
-588 -288 -134 9 -214 57 -265 160 -43 88 -57 184 -42 284 23 147 65 178 237
177 64 0 166 -9 245 -22 l135 -23 180 40 c210 46 221 47 235 22z m-2420 -923
c0 -18 -429 -276 -540 -325 -89 -39 -122 -41 -142 -10 -25 38 -43 96 -33 106
6 6 64 24 130 42 224 59 349 138 447 282 l40 59 49 -73 c27 -41 49 -77 49 -81z
m2200 -490 c154 -201 382 -396 562 -481 76 -37 262 -97 361 -118 31 -7 57 -15
57 -18 -1 -9 -213 -151 -226 -151 -36 0 -459 272 -633 408 -165 129 -311 283
-311 329 0 24 94 113 121 113 3 0 34 -37 69 -82z m-2244 -479 c183 -134 237
-168 472 -300 108 -60 201 -114 205 -118 4 -4 -8 -19 -26 -32 -19 -13 -61 -44
-92 -69 -53 -41 -63 -45 -125 -48 -129 -8 -241 33 -358 129 -97 80 -146 152
-186 277 -52 161 -66 262 -36 262 4 0 69 -46 146 -101z m163 -548 c79 -50 152
-91 162 -91 56 0 65 -35 19 -74 -51 -43 -149 -68 -290 -73 l-126 -5 -32 27
c-60 50 -75 101 -46 158 23 46 136 159 154 154 8 -2 80 -45 159 -96z m1461 49
c443 -50 600 -63 788 -64 l184 -1 -4 -60 c-7 -121 -91 -236 -269 -370 -119
-90 -177 -110 -284 -102 -162 12 -340 108 -550 295 -117 105 -149 147 -198
261 l-36 84 57 -7 c31 -4 172 -20 312 -36z m203 -651 c153 -58 323 -62 471
-10 l56 19 0 -42 c0 -73 -26 -140 -69 -179 -66 -60 -167 -77 -343 -57 -62 7
-125 18 -139 26 -61 31 -126 136 -174 278 -14 41 -25 79 -25 86 0 6 32 -12 71
-39 39 -28 108 -64 152 -82z"/>
<path d="M9935 6668 c-48 -17 -149 -96 -188 -146 -41 -55 -124 -188 -156 -251
-22 -42 -17 -39 96 64 138 125 263 228 270 221 3 -2 -6 -19 -19 -36 -48 -65
-22 -171 73 -297 21 -29 39 -55 39 -59 0 -8 -306 1 -340 10 l-25 7 25 -15 c41
-26 176 -65 276 -81 61 -10 151 -15 251 -14 152 2 157 3 217 33 74 36 186 147
236 231 28 48 35 71 38 127 6 98 1 102 -118 94 -107 -8 -149 1 -278 60 -119
54 -317 80 -397 52z m304 -163 c19 -18 26 -107 11 -135 -11 -20 -17 -22 -63
-16 -29 4 -55 13 -59 19 -4 7 -8 35 -8 64 0 44 4 55 27 73 29 23 66 21 92 -5z
m249 -10 c29 -8 72 -15 94 -17 22 -1 42 -8 45 -15 12 -30 -52 -129 -136 -213
-91 -91 -129 -117 -156 -106 -14 5 -9 14 27 55 38 42 78 125 66 137 -2 2 -23
-21 -46 -51 -82 -105 -186 -149 -259 -112 -35 19 -85 73 -109 119 l-17 32 34
-29 c160 -134 372 -42 374 163 0 51 3 61 15 56 8 -3 39 -12 68 -19z"/>
<path d="M8661 5943 c-96 -128 -193 -342 -228 -503 -25 -117 -25 -428 1 -585
15 -96 53 -265 60 -273 2 -1 1 42 -2 96 -16 346 102 1081 210 1295 10 20 16
37 14 37 -2 0 -27 -30 -55 -67z"/>
<path d="M10810 3203 c0 -5 17 -15 38 -21 110 -33 330 -191 484 -346 54 -54
101 -96 104 -93 13 13 -54 106 -135 188 -104 103 -233 201 -320 242 -64 30
-171 49 -171 30z"/>
<path d="M10150 3874 c-127 -75 -204 -89 -296 -55 -69 27 -203 51 -278 51 -90
0 -135 -16 -178 -62 -50 -54 -55 -83 -24 -154 13 -33 27 -76 31 -97 14 -74
105 -189 161 -203 37 -9 121 21 281 100 142 70 154 79 260 180 123 117 151
164 140 233 -4 20 -10 40 -14 44 -4 4 -42 -13 -83 -37z m-494 -209 c34 -52 1
-165 -48 -165 -50 0 -108 58 -108 108 0 11 16 34 35 51 46 40 97 43 121 6z"/>
</g>
</svg>
