<?xml version="1.0" standalone="no"?>
<!DOCTYPE svg PUBLIC "-//W3C//DTD SVG 20010904//EN"
 "http://www.w3.org/TR/2001/REC-SVG-20010904/DTD/svg10.dtd">
<svg version="1.0" xmlns="http://www.w3.org/2000/svg"
 width="1280.000000pt" height="1280.000000pt" viewBox="0 0 1280.000000 1280.000000"
 preserveAspectRatio="xMidYMid meet">
<metadata>
Created by potrace 1.15, written by Peter Selinger 2001-2017
</metadata>
<g transform="translate(0.000000,1280.000000) scale(0.100000,-0.100000)"
fill="#000000" stroke="none">
<path d="M8371 11941 c-22 -14 -6 -37 43 -60 32 -16 378 -111 404 -111 1 0 2
-20 2 -44 l0 -44 -227 59 c-126 32 -238 59 -250 59 -24 0 -28 -4 -36 -40 -5
-23 0 -28 55 -53 65 -30 197 -65 350 -93 71 -13 99 -22 103 -34 3 -9 32 -42
64 -73 36 -33 64 -70 71 -93 17 -49 8 -149 -21 -250 l-23 -82 -46 -5 c-25 -4
-82 -22 -128 -41 -45 -20 -121 -48 -169 -62 l-86 -27 -23 28 -23 29 -76 -13
c-233 -39 -368 -89 -508 -189 -45 -32 -103 -66 -130 -76 -113 -42 -272 -186
-377 -341 -67 -100 -142 -257 -172 -360 -33 -118 -33 -314 1 -403 20 -54 24
-81 25 -198 l1 -136 115 -34 c63 -18 144 -41 179 -50 l64 -17 -6 -191 c-24
-753 -25 -768 -87 -1121 -47 -269 -62 -408 -63 -575 -1 -186 16 -261 62 -268
11 -2 35 -21 52 -42 40 -49 48 -53 139 -59 l75 -6 22 -47 c21 -44 25 -47 75
-57 29 -6 132 -15 228 -21 189 -11 298 -24 312 -38 14 -14 38 -144 38 -212 0
-97 -25 -245 -71 -420 -82 -312 -99 -387 -105 -466 -7 -86 3 -124 34 -124 17
0 122 -51 222 -107 99 -57 195 -82 347 -93 76 -5 172 -14 213 -19 240 -33 650
-39 1040 -17 233 14 236 14 452 70 119 31 239 56 265 56 27 0 113 -18 193 -41
243 -68 378 -64 394 11 3 18 6 110 6 204 0 94 5 261 10 371 20 405 -10 770
-125 1535 -88 582 -109 760 -125 1055 -5 99 -10 187 -10 196 0 13 16 17 78 22
42 4 131 20 197 36 66 16 143 32 170 36 71 9 95 27 95 71 0 44 -76 232 -215
529 -60 127 -136 293 -170 370 -33 77 -80 169 -104 203 -24 35 -40 66 -37 70
9 9 98 -16 216 -60 256 -95 587 -290 778 -458 l93 -82 90 4 c116 5 124 13 123
111 0 66 -5 82 -46 168 -55 112 -183 277 -284 365 -200 175 -383 283 -715 423
-81 34 -154 70 -164 81 -15 17 -16 29 -4 147 15 156 9 171 -86 241 -35 25 -63
48 -61 49 2 2 59 -10 127 -26 297 -71 352 -84 501 -116 86 -18 159 -30 163
-27 3 3 5 18 5 33 0 23 -5 30 -27 35 -16 3 -44 10 -63 14 -19 5 -148 31 -287
59 -138 28 -301 66 -362 86 l-111 36 0 37 c0 66 1 66 166 32 139 -28 604 -137
631 -147 13 -5 46 51 36 61 -4 3 -15 6 -26 6 -11 0 -90 18 -176 39 -86 22
-180 43 -209 47 -51 6 -55 9 -93 66 -47 69 -98 105 -160 114 -36 5 -64 0 -138
-26 -110 -37 -64 -42 -518 52 l-303 63 -6 32 c-10 51 -39 81 -96 98 -76 22
-108 19 -182 -19 l-67 -33 -302 66 -302 66 -6 38 c-3 21 -12 49 -19 62 -44 82
-288 102 -377 31 -20 -15 -39 -20 -76 -18 -69 3 -269 48 -343 78 -66 26 -82
28 -103 15z m780 -101 c44 -23 79 -54 79 -71 0 -15 -75 -7 -120 14 -19 8 -52
21 -74 27 l-38 12 38 18 c51 24 67 24 115 0z m-191 -100 c19 -6 127 -28 240
-51 435 -86 610 -133 610 -165 0 -26 -24 -64 -40 -64 -35 0 -261 42 -435 81
-189 43 -388 100 -436 125 l-29 14 17 35 c18 38 22 40 73 25z m1207 -177 c7
-9 11 -18 10 -20 -2 -2 -41 2 -87 9 l-83 12 27 22 c25 22 28 22 73 9 27 -8 54
-22 60 -32z m-1047 -31 c96 -22 287 -64 424 -93 178 -39 250 -58 253 -69 27
-88 64 -131 145 -170 44 -21 57 -34 78 -75 23 -46 25 -61 26 -205 l2 -156
-157 -72 c-153 -70 -191 -82 -191 -62 0 19 -64 82 -104 102 -23 11 -75 44
-116 73 -156 110 -383 244 -432 255 l-49 12 5 37 c3 20 13 86 22 147 25 164
18 194 -59 268 -35 33 -53 56 -42 53 11 -3 99 -23 195 -45z m912 -56 c56 -13
198 -41 313 -61 342 -58 532 -94 559 -105 27 -10 30 -21 20 -81 l-6 -36 -47
14 c-74 23 -232 59 -451 103 -228 46 -337 71 -452 101 -76 21 -78 22 -72 48
12 50 1 48 136 17z m1219 -137 c30 -21 40 -45 15 -36 -8 3 -42 11 -75 18 -69
13 -83 25 -49 39 31 13 73 5 109 -21z m-1180 -28 c90 -22 254 -58 364 -81 110
-22 270 -57 355 -76 138 -32 158 -39 178 -64 12 -16 56 -50 96 -75 92 -57 106
-85 106 -214 0 -138 -3 -146 -68 -177 -30 -14 -109 -39 -174 -55 -65 -16 -136
-36 -157 -45 -37 -14 -43 -14 -112 10 -128 43 -531 222 -541 240 -5 9 -14 90
-20 179 -5 89 -14 185 -19 213 l-10 52 -79 35 c-81 37 -125 70 -115 87 9 15
19 13 196 -29z m-910 -395 c92 -47 186 -100 209 -117 l41 -30 -27 -47 c-49
-85 -49 -85 -102 -47 -26 18 -97 58 -159 89 l-112 56 -103 -10 c-223 -23 -372
-54 -435 -90 l-33 -19 -6 27 c-3 15 -10 43 -15 61 -15 62 31 91 250 155 69 21
136 44 150 52 18 10 48 13 101 11 72 -4 82 -7 241 -91z m-849 -4 c11 -5 14
-12 9 -21 -10 -15 2 -74 30 -150 11 -30 27 -86 35 -125 24 -114 55 -150 210
-244 43 -26 82 -54 87 -63 8 -13 -1 -34 -37 -93 l-48 -77 -28 44 c-47 74 -106
106 -142 77 -21 -17 -23 -26 -22 -110 l1 -91 -28 34 c-77 93 -239 104 -239 17
0 -40 41 -83 120 -125 l65 -35 -48 0 c-88 0 -128 -76 -70 -135 25 -25 33 -27
86 -23 39 3 56 1 53 -6 -3 -6 -25 -58 -49 -116 -24 -58 -87 -193 -140 -300
-52 -107 -109 -228 -126 -269 l-32 -74 52 -48 c70 -65 162 -111 354 -180 148
-53 161 -56 187 -43 20 10 29 11 34 2 13 -20 17 -399 5 -528 -11 -127 -72
-652 -77 -659 -2 -1 -13 4 -26 13 -40 28 -72 20 -131 -34 l-55 -50 -7 52 c-11
81 -39 138 -68 138 -46 0 -62 -33 -62 -129 0 -47 3 -98 7 -113 8 -25 6 -27
-35 -33 -62 -11 -117 -69 -117 -123 0 -99 95 -94 227 13 l31 26 -10 -43 c-16
-72 -14 -166 5 -185 14 -14 20 -14 47 -3 31 13 110 101 110 123 0 5 2 8 4 6 2
-2 -12 -83 -33 -179 l-37 -175 -109 -7 c-61 -4 -179 -5 -263 -1 -177 7 -207
17 -236 78 -10 22 -23 43 -30 48 -6 4 -41 4 -78 1 l-67 -6 -53 49 c-29 27 -60
52 -69 55 -9 4 -21 30 -29 63 -15 64 -16 55 49 550 60 448 89 702 103 871 l12
152 48 -53 c31 -34 65 -60 93 -71 42 -15 46 -15 70 0 62 41 10 157 -103 234
l-64 42 42 0 c116 0 163 94 104 206 -45 86 -45 86 -115 13 l-61 -64 6 60 c3
33 26 172 51 309 25 136 45 260 45 274 0 14 14 68 31 121 36 112 46 189 30
219 -42 79 -90 -56 -140 -394 -28 -191 -67 -343 -94 -371 -21 -22 -302 56
-311 85 -3 10 2 47 13 82 10 36 16 70 14 77 -3 9 9 11 44 7 26 -3 86 -9 133
-14 47 -4 86 -7 88 -5 2 1 -57 26 -130 55 -73 29 -138 58 -144 64 -15 15 -34
117 -34 182 0 29 -4 56 -10 59 -15 9 -12 99 6 169 16 62 97 246 109 246 3 0 5
-8 4 -17 -5 -52 3 -77 35 -109 19 -19 44 -34 57 -34 26 0 99 72 99 98 1 9 12
-6 26 -35 19 -41 34 -56 68 -73 102 -49 140 37 66 154 -17 25 -30 49 -30 51 0
3 18 5 40 5 44 0 109 23 122 43 39 62 -61 135 -132 97 -17 -9 -18 -6 -13 45 6
61 -12 95 -50 95 -31 0 -5 25 71 67 35 20 115 72 176 116 61 44 140 94 175
110 74 35 202 55 243 39z m666 -163 c29 -6 90 -35 143 -68 52 -31 109 -63 127
-70 18 -8 29 -17 25 -21 -4 -4 -71 -29 -148 -56 -181 -62 -283 -104 -338 -141
l-44 -30 -113 91 c-105 84 -180 169 -180 202 0 9 12 14 37 14 21 0 103 18 183
39 210 57 222 59 308 40z m626 -117 l48 -35 -25 -14 c-40 -20 -247 -71 -253
-61 -9 13 4 56 26 87 10 14 30 45 44 69 l26 42 43 -26 c23 -15 64 -43 91 -62z
m666 3 c98 -25 238 -83 299 -124 53 -35 75 -61 52 -61 -7 0 -61 -22 -121 -50
-106 -49 -153 -60 -165 -41 -11 18 -117 51 -208 65 -147 22 -290 -10 -487
-109 -80 -40 -91 -43 -96 -28 -16 53 -47 104 -74 124 -45 34 -38 46 31 53 78
9 117 24 259 102 63 35 140 70 170 78 71 18 252 14 340 -9z m1061 -104 c224
-57 589 -278 785 -475 132 -133 292 -393 282 -459 -4 -26 -48 -41 -93 -33 -19
4 -64 30 -102 60 -105 81 -418 297 -516 356 -123 73 -266 136 -356 156 -42 9
-112 25 -156 36 -83 20 -151 18 -330 -13 -91 -16 -334 -123 -426 -188 -170
-121 -279 -209 -386 -312 -157 -151 -143 -145 -235 -107 l-77 32 6 50 c11 89
123 258 263 396 139 137 306 243 475 300 44 15 127 48 185 72 212 91 415 146
541 147 36 1 99 -8 140 -18z m-1992 -78 c26 -20 184 -321 297 -567 51 -111 54
-121 43 -154 l-11 -35 -26 34 c-14 19 -146 156 -292 304 -147 149 -279 288
-294 310 -46 71 -40 78 99 116 82 22 147 19 184 -8z m-292 -188 c164 -196 415
-469 598 -650 95 -93 177 -179 183 -190 12 -24 27 -155 18 -155 -4 0 -35 30
-69 67 -34 37 -131 140 -216 228 -252 262 -497 535 -699 777 -13 15 -11 19 19
32 19 8 41 14 50 13 8 -1 61 -56 116 -122z m1139 79 c86 -23 85 -33 -9 -97
-154 -105 -298 -242 -397 -381 -32 -44 -34 -45 -53 -29 -10 10 -30 36 -43 59
-25 43 -114 269 -114 291 0 15 197 112 292 142 122 40 217 45 324 15z m-1391
-196 c0 -120 4 -154 22 -213 31 -98 86 -187 168 -270 85 -86 190 -156 399
-266 174 -92 252 -153 262 -205 5 -29 2 -35 -42 -68 -61 -45 -124 -127 -163
-209 -120 -254 -120 -731 0 -832 37 -31 47 -31 90 -2 68 45 108 166 194 587
57 276 73 343 88 352 7 4 35 8 63 8 68 0 80 -15 89 -115 22 -245 136 -503 294
-663 80 -81 231 -180 231 -152 0 6 -17 86 -39 178 -74 321 -170 625 -262 835
-22 48 -39 99 -39 112 0 38 59 94 167 159 76 46 131 91 243 200 80 78 182 174
227 214 45 40 124 119 175 175 51 56 95 103 99 105 8 3 64 -74 101 -138 14
-25 31 -70 38 -100 18 -81 94 -235 200 -405 145 -234 220 -406 209 -485 -4
-23 -11 -25 -104 -41 -55 -9 -146 -29 -202 -43 -57 -15 -117 -26 -135 -24 -45
4 -49 26 -57 308 -7 241 -14 280 -49 280 -16 0 -17 -20 -16 -243 0 -133 5
-276 12 -317 6 -41 25 -196 43 -345 17 -148 46 -398 65 -554 60 -500 96 -871
130 -1336 9 -123 18 -417 21 -707 l6 -498 -150 0 c-139 0 -154 2 -214 26 -37
16 -92 29 -131 32 -71 5 -97 1 -353 -53 -88 -19 -243 -48 -345 -66 -244 -42
-430 -44 -765 -5 -126 14 -318 30 -425 36 -216 10 -267 21 -404 82 -96 43
-126 63 -126 84 0 18 -33 34 -71 34 -28 0 -31 3 -25 23 36 126 68 314 136 802
42 304 48 338 135 790 129 669 178 1016 205 1455 11 180 14 619 4 644 -3 9
-16 16 -29 16 -20 0 -23 -7 -34 -84 -6 -46 -21 -119 -32 -161 -24 -93 -86
-250 -104 -265 -16 -13 -358 96 -405 130 -38 27 -60 69 -60 112 0 34 198 486
314 716 65 130 163 297 208 356 22 29 138 156 143 156 0 0 0 -64 0 -142z
m2169 -47 c6 -9 -4 -14 -194 -104 -272 -130 -531 -347 -733 -614 -84 -112
-112 -135 -122 -104 -25 79 5 134 149 276 115 114 246 215 523 403 159 108
201 132 245 140 70 13 126 14 132 3z"/>
<path d="M8052 8455 c-24 -30 -42 -105 -42 -172 l0 -46 -48 45 c-27 25 -59 49
-71 53 -37 11 -68 -18 -87 -81 -15 -54 -15 -58 3 -83 10 -14 42 -38 69 -52
l51 -26 -28 -33 c-34 -41 -59 -91 -59 -119 0 -16 6 -21 28 -21 29 0 78 29 156
94 33 27 51 36 54 28 10 -31 70 -97 105 -115 73 -38 157 5 157 80 0 50 -20 77
-80 111 l-49 28 52 14 c100 25 167 68 167 107 0 57 -117 53 -214 -7 -27 -17
-50 -29 -51 -28 -1 2 -7 37 -14 78 -12 76 -46 161 -67 168 -7 1 -21 -9 -32
-23z m-42 -344 c0 -11 -25 -21 -53 -21 -22 1 -22 1 -3 15 22 17 56 20 56 6z"/>
<path d="M5016 11589 c-299 -52 -590 -173 -796 -329 -72 -56 -218 -209 -269
-283 -58 -85 -128 -247 -186 -427 -139 -433 -159 -490 -195 -568 -22 -46 -68
-124 -103 -175 -143 -205 -296 -474 -407 -717 -148 -324 -320 -802 -339 -943
-18 -127 -13 -325 15 -618 41 -432 35 -500 -77 -854 -74 -233 -91 -277 -205
-520 -100 -215 -154 -352 -154 -395 0 -29 -77 -108 -145 -149 -143 -86 -318
-124 -580 -124 -206 0 -338 14 -735 79 -151 25 -318 48 -370 51 -125 8 -134 0
-128 -101 6 -90 33 -143 108 -216 74 -72 144 -113 282 -163 l113 -42 215 1
c181 0 267 7 540 38 318 37 536 49 594 33 25 -7 28 -11 22 -40 -4 -18 -9 -144
-12 -282 -11 -460 35 -659 251 -1096 155 -314 167 -359 185 -694 6 -110 15
-218 21 -240 6 -22 31 -81 55 -131 24 -50 64 -151 88 -225 62 -187 170 -624
201 -809 39 -237 74 -349 121 -392 33 -29 142 -78 222 -100 60 -15 111 -20
227 -22 138 -1 154 1 202 23 36 16 70 43 106 85 77 88 87 106 87 150 0 57 -35
97 -126 142 -89 45 -187 141 -227 225 -54 110 -62 165 -61 399 l1 215 37 125
c20 69 47 141 59 160 12 19 56 68 99 108 88 85 87 85 161 2 139 -155 243 -376
397 -845 39 -121 82 -242 95 -270 12 -27 32 -90 45 -140 12 -49 33 -109 46
-132 33 -58 136 -147 218 -188 76 -39 106 -42 246 -25 137 17 196 38 264 92
55 44 63 56 83 116 12 37 22 92 22 123 1 73 -24 111 -107 164 -35 22 -100 67
-145 100 -80 59 -83 63 -144 180 -158 309 -165 412 -47 815 18 63 66 205 106
315 60 165 77 202 98 212 15 7 63 13 116 13 65 0 108 6 150 20 168 58 254 75
394 74 115 0 149 -4 230 -27 120 -33 216 -43 272 -28 24 6 100 15 170 20 130
10 183 26 220 67 24 28 33 231 19 419 -20 258 -62 496 -169 970 -59 257 -83
377 -111 536 -26 148 -46 332 -38 351 3 9 26 17 59 21 81 10 122 24 178 62 47
32 58 35 124 35 67 0 78 3 181 56 149 76 149 76 123 167 -72 253 -180 539
-414 1088 -161 379 -274 663 -274 688 0 5 22 32 49 59 61 61 81 121 81 240 l0
84 -45 58 c-96 121 -175 163 -311 165 l-91 1 -89 69 c-199 153 -199 152 -82
211 l93 47 130 -6 c186 -8 342 -47 658 -164 42 -16 49 -16 57 -3 5 8 6 18 2
21 -14 12 -290 108 -382 133 -115 31 -265 56 -340 56 l-55 1 31 27 c39 33 54
61 54 101 0 27 4 30 50 40 136 29 210 35 427 36 181 0 234 3 238 13 9 23 -28
27 -255 26 -187 0 -245 -4 -342 -22 -64 -12 -122 -22 -128 -22 -5 0 -10 16
-10 35 0 28 11 49 51 98 29 34 58 76 65 93 11 25 30 40 98 73 101 49 125 76
183 199 82 174 143 400 143 526 0 47 3 55 23 60 36 9 91 70 128 143 37 75 178
224 345 367 157 134 204 215 204 356 l0 79 -37 -16 c-47 -20 -188 -22 -293 -4
-41 7 -154 31 -250 53 -129 30 -199 41 -266 42 l-91 1 -34 64 c-107 207 -412
372 -804 436 -129 21 -372 18 -509 -6z m245 -85 c18 -19 65 -56 102 -81 62
-41 68 -48 62 -72 -7 -32 25 -66 94 -101 l43 -22 -4 -50 c-5 -44 -1 -57 23
-93 32 -47 37 -75 14 -75 -22 0 -19 -8 34 -90 l49 -75 -24 -8 c-29 -10 -31
-39 -6 -75 32 -45 32 -48 4 -47 -37 0 -39 -28 -7 -85 45 -81 102 -194 110
-220 8 -25 7 -25 -13 -6 -22 19 -49 16 -58 -8 -3 -7 11 -46 30 -84 l36 -71
-28 -3 c-24 -3 -27 -7 -25 -38 2 -34 25 -92 58 -150 18 -31 20 -153 4 -250
-13 -78 -6 -123 18 -118 10 2 30 43 56 113 l40 110 -13 90 c-7 49 -14 96 -17
105 -4 11 -1 11 10 -2 28 -34 47 -16 47 45 0 18 -11 94 -24 170 l-23 138 23
-5 c31 -8 30 -4 -7 61 -33 58 -33 71 0 53 18 -9 21 -8 21 9 0 11 -13 43 -30
71 -16 28 -30 53 -30 57 0 3 11 3 25 1 35 -7 33 10 -19 122 -24 52 -42 98 -39
102 2 5 17 8 33 8 16 0 31 4 34 8 6 10 -47 115 -89 173 l-33 46 25 26 c24 23
25 28 14 55 -7 17 -23 40 -37 53 l-24 22 23 11 c12 7 23 18 25 27 4 21 -61 93
-118 130 -28 18 -49 34 -47 35 11 12 310 -75 339 -99 21 -16 71 -172 63 -196
-7 -22 16 -74 48 -109 15 -16 20 -33 18 -60 -1 -22 9 -67 25 -110 24 -66 25
-74 11 -90 -30 -33 -31 -119 -3 -215 30 -101 32 -151 10 -207 -13 -32 -15 -68
-12 -180 3 -130 2 -141 -15 -146 -17 -5 -18 -13 -13 -58 4 -29 2 -72 -3 -96
-5 -25 -9 -45 -8 -47 2 -1 22 23 46 54 49 64 66 110 57 163 -3 22 1 59 10 91
11 37 15 77 12 126 -5 68 -3 74 19 88 25 17 30 55 14 112 -5 18 -6 35 -1 38 4
2 15 21 25 41 24 50 21 132 -9 234 -18 64 -22 89 -14 106 15 33 1 106 -34 172
-16 31 -36 75 -43 97 -7 22 -16 49 -21 60 -4 11 45 -31 110 -92 64 -62 121
-113 125 -113 5 0 6 -11 4 -24 -5 -27 2 -29 112 -41 33 -4 137 -21 230 -38
143 -26 195 -31 325 -32 85 0 167 3 183 8 26 7 27 6 27 -26 0 -61 -39 -118
-109 -162 -81 -50 -220 -181 -275 -260 -24 -33 -54 -88 -69 -123 -30 -71 -49
-100 -127 -194 l-55 -67 -6 55 c-10 91 -31 173 -46 186 -27 22 -46 -14 -51
-100 -4 -66 1 -100 26 -199 27 -102 30 -125 21 -159 -13 -48 -146 -369 -167
-404 -44 -73 -68 -102 -98 -121 l-34 -21 -26 21 c-35 28 -69 26 -180 -6 -87
-25 -94 -29 -132 -78 -54 -68 -115 -182 -107 -196 4 -6 28 -10 54 -9 84 4 106
1 93 -12 -19 -19 -14 -44 14 -78 15 -17 25 -32 23 -33 -2 -2 -31 -11 -64 -21
-86 -26 -245 -88 -245 -95 0 -3 4 -12 8 -19 7 -10 18 -9 53 6 77 33 239 85
245 79 11 -11 -17 -74 -44 -99 -22 -22 -41 -27 -103 -33 -84 -8 -105 -16 -96
-37 3 -10 15 -13 39 -10 45 6 36 0 -52 -37 -85 -35 -97 -37 -145 -16 -27 11
-40 26 -55 60 -11 26 -20 50 -20 53 0 4 15 14 33 22 32 15 81 76 72 90 -7 12
-244 5 -256 -7 -16 -16 -1 -36 49 -68 62 -39 66 -65 15 -99 -51 -35 -153 -66
-217 -66 -28 0 -79 7 -111 15 -67 17 -196 76 -178 82 6 2 47 -2 91 -10 71 -12
82 -12 87 1 3 8 3 17 0 20 -6 7 -464 89 -542 98 -54 5 -69 12 -106 45 -45 39
-124 145 -116 154 3 2 50 -8 105 -24 540 -158 629 -180 647 -162 18 18 0 26
-123 56 -63 15 -212 56 -330 90 -118 35 -243 71 -276 80 -50 14 -64 22 -78 48
l-17 32 6 -29 c5 -26 4 -28 -17 -23 -207 51 -426 67 -536 38 -57 -14 -65 -20
-52 -41 7 -11 16 -11 57 1 70 21 265 16 388 -9 151 -30 185 -41 185 -58 0 -17
44 -107 71 -146 11 -14 19 -28 19 -30 0 -1 -64 -4 -143 -5 -164 -2 -306 -21
-462 -62 -140 -37 -165 -47 -165 -66 0 -20 3 -20 124 14 181 51 341 74 527 74
156 1 167 0 197 -22 68 -48 244 -101 337 -101 24 0 51 -11 86 -34 32 -23 66
-37 97 -40 163 -20 183 -25 229 -55 26 -17 65 -36 87 -42 53 -15 162 -4 234
22 111 40 123 37 245 -64 41 -34 92 -76 113 -94 l39 -32 -35 -28 c-69 -55 -88
-82 -102 -146 l-14 -62 -68 -17 c-107 -27 -195 -37 -431 -48 -333 -16 -582
-29 -596 -32 -8 -2 -16 14 -20 44 -17 110 -101 206 -244 279 -163 84 -264 108
-485 115 -170 6 -183 5 -340 -40 -75 -21 -170 -69 -230 -117 -60 -47 -79 -81
-60 -104 24 -28 56 -17 110 39 59 61 134 100 275 142 170 50 305 44 535 -26
69 -21 145 -41 170 -45 25 -4 59 -16 76 -28 95 -63 161 -280 102 -334 -25 -23
-61 -43 -76 -43 -6 0 -1 17 9 37 25 48 25 89 0 103 -44 23 -51 15 -51 -61 0
-39 -4 -78 -10 -88 -16 -31 -62 -44 -109 -31 -23 6 -41 14 -39 18 2 4 10 19
17 34 18 35 7 76 -24 90 -33 15 -40 5 -26 -31 9 -21 10 -35 2 -49 -12 -22 -69
-52 -100 -52 -17 0 -20 4 -15 29 8 38 -23 83 -84 122 -82 52 -89 48 -236 -142
-100 -128 -176 -252 -277 -447 -46 -90 -100 -182 -120 -205 -34 -38 -39 -41
-65 -32 -69 24 -217 280 -288 495 -18 58 -41 155 -50 215 -9 61 -28 148 -42
194 -30 97 -74 302 -67 314 2 4 12 7 23 7 34 0 39 56 14 154 -31 117 -1 226
117 425 33 55 61 101 62 101 1 0 2 -15 2 -32 0 -28 6 -36 46 -58 l45 -25 -24
-21 c-32 -26 -24 -50 23 -70 29 -12 34 -18 26 -31 -13 -24 9 -63 55 -98 31
-24 34 -29 20 -37 -27 -15 -2 -36 63 -54 31 -9 98 -36 149 -62 68 -34 95 -43
103 -35 8 8 -1 25 -37 63 -26 28 -60 59 -76 68 -35 20 -35 28 -3 36 14 4 25
11 25 16 0 5 -28 25 -62 46 -35 20 -65 38 -67 39 -2 2 12 10 30 18 19 8 40 22
48 31 21 25 -3 63 -61 95 -52 29 -57 37 -29 46 10 3 26 14 35 24 15 17 12 22
-63 96 -92 90 -101 114 -76 210 23 86 71 165 212 354 177 235 196 276 288 642
103 409 136 480 300 645 201 203 411 333 668 414 l62 20 72 -77 c40 -43 72
-81 73 -85 0 -4 -10 -8 -22 -10 -43 -6 -23 -30 72 -85 91 -52 150 -97 150
-115 0 -4 -6 -7 -12 -5 -44 8 15 -116 97 -206 37 -40 116 -153 144 -205 7 -13
23 -85 37 -160 23 -123 25 -158 22 -347 -3 -181 -1 -210 12 -210 25 0 40 64
39 170 -1 55 3 114 9 132 8 26 6 49 -14 120 -30 110 -31 133 -4 133 36 0 33
26 -14 136 -45 103 -56 154 -36 154 23 0 8 51 -28 97 -42 52 -111 118 -132
125 -10 3 -10 8 1 26 12 20 11 27 -11 69 -14 26 -56 78 -94 116 -50 51 -65 72
-57 80 20 20 12 55 -21 83 -35 29 -128 74 -153 74 -8 0 -15 4 -15 9 0 7 56 16
225 35 17 2 35 4 41 5 5 0 26 -15 45 -35z m736 -2270 c4 -13 -34 -64 -49 -64
-9 0 -3 53 9 73 7 11 35 5 40 -9z m88 -22 c0 -31 -19 -28 -23 4 -3 18 0 25 10
22 7 -3 13 -14 13 -26z m-1375 -402 c43 -9 43 -9 -14 -4 -32 2 -66 9 -75 14
-17 10 0 8 89 -10z m818 -134 l37 -34 -35 -7 c-56 -10 -210 -21 -210 -15 0 3
19 13 43 23 23 9 56 28 72 42 40 32 48 31 93 -9z m691 -313 c96 -34 170 -137
179 -249 4 -51 0 -71 -21 -116 -20 -46 -78 -108 -99 -108 -3 0 1 19 9 41 15
46 10 94 -13 103 -10 4 -14 -3 -14 -28 0 -71 -96 -159 -174 -160 -37 -1 -43 2
-58 34 -11 21 -18 58 -18 92 0 31 -4 59 -9 62 -16 10 -41 -5 -56 -35 -45 -86
-134 -6 -135 122 0 48 53 151 93 182 106 80 206 99 316 60z m-3379 -313 c25
-13 50 2 50 29 0 13 9 17 39 16 l38 0 7 -74 c3 -41 6 -95 6 -121 0 -49 64
-323 101 -431 40 -119 97 -215 162 -276 49 -45 61 -62 59 -82 -18 -166 -77
-437 -133 -615 -35 -111 -43 -128 -53 -112 -6 11 -29 42 -51 70 -23 28 -44 56
-48 63 -5 7 9 27 34 51 70 64 52 109 -75 192 l-58 38 31 16 c17 9 38 27 46 40
14 21 14 28 2 58 -8 18 -38 62 -67 98 -100 125 -95 108 -132 460 -32 309 -43
590 -25 634 7 18 9 17 27 -11 10 -18 28 -37 40 -43z m2805 15 c-22 -14 -85
-47 -140 -74 l-100 -49 -75 13 c-41 7 -115 19 -165 26 l-90 13 131 12 c147 14
346 46 414 68 65 20 70 18 25 -9z m110 -51 c8 -9 22 -29 30 -44 20 -40 63 -70
97 -70 41 0 47 -25 17 -76 -32 -57 -281 -312 -287 -294 -3 7 -43 69 -89 137
-47 69 -91 140 -99 158 -15 36 -10 65 11 65 26 0 171 67 224 103 59 41 72 44
96 21z m-756 -10 c8 -7 -64 -2 -89 6 -16 6 -6 7 30 3 30 -3 57 -7 59 -9z
m-920 -47 c14 -23 24 -53 23 -66 -3 -36 24 -71 55 -71 14 0 40 9 58 20 28 17
36 18 66 7 19 -6 187 -93 374 -192 367 -193 549 -280 572 -271 22 9 58 100 88
226 15 63 37 136 48 163 l20 47 24 -32 c13 -18 51 -87 84 -153 64 -127 108
-183 148 -187 21 -3 34 10 78 73 29 42 69 90 89 105 21 16 68 59 105 96 63 62
70 67 94 58 41 -16 145 -11 203 9 l52 18 7 -26 c13 -56 82 -218 206 -486 356
-769 459 -1042 469 -1239 l3 -68 -90 -46 c-81 -42 -98 -47 -176 -52 -79 -4
-91 -8 -131 -38 -45 -35 -115 -71 -135 -72 -17 0 -46 60 -72 145 -35 117 -68
321 -121 750 -47 384 -74 562 -85 573 -9 9 -4 -250 5 -323 5 -38 14 -135 20
-215 28 -395 82 -807 165 -1285 193 -1100 228 -1335 255 -1733 15 -231 17
-218 -31 -243 -32 -16 -72 -23 -172 -30 -72 -5 -147 -13 -165 -19 -40 -11
-115 1 -199 32 -48 18 -87 22 -228 25 l-170 5 -155 -42 c-417 -111 -536 -115
-644 -20 -25 21 -87 60 -138 85 -129 65 -150 63 -403 -37 -119 -47 -218 -31
-368 60 -116 70 -154 75 -261 38 -54 -18 -97 -26 -147 -26 -69 0 -71 1 -66 23
3 12 13 69 21 127 29 199 36 422 30 915 -7 473 -1 628 27 793 10 58 13 62 38
62 14 0 60 -9 101 -20 41 -11 82 -20 92 -20 11 0 24 21 42 68 70 188 84 298
96 757 9 375 15 460 33 483 14 17 52 15 95 -7 72 -37 73 -39 51 -181 -101
-670 -133 -949 -127 -1098 3 -70 8 -96 21 -109 9 -10 17 -13 17 -7 0 27 63
632 81 774 37 301 89 541 122 568 8 7 47 6 112 -2 l100 -12 -2 -81 c-1 -44
-12 -161 -23 -259 -54 -460 -80 -776 -62 -759 18 18 62 156 77 243 9 48 22
213 30 367 13 274 31 408 60 466 13 25 18 26 121 32 59 4 145 7 191 7 l83 0 1
-387 c1 -214 4 -460 8 -548 6 -156 6 -159 23 -130 34 63 39 144 36 568 -3 352
-1 416 12 442 15 29 19 30 115 42 55 6 145 14 200 18 l100 7 24 -42 c72 -129
83 -390 41 -1020 -11 -160 -11 -348 -1 -395 l6 -30 13 30 c46 114 47 128 47
755 0 327 4 613 9 635 12 57 28 78 76 100 37 17 45 17 78 5 20 -8 65 -13 99
-12 57 1 64 -1 82 -26 61 -87 87 -270 71 -514 -19 -312 -12 -437 26 -452 16
-6 37 60 54 164 13 85 13 394 -1 518 -9 89 -48 284 -64 324 -5 14 14 27 102
72 59 30 103 55 97 55 -7 1 -54 -8 -105 -18 -545 -112 -1154 -139 -1709 -76
-151 18 -370 51 -377 58 -2 3 3 44 11 93 9 48 14 89 12 91 -9 9 -45 -57 -68
-122 -68 -190 -92 -372 -113 -879 -8 -196 -19 -386 -25 -424 -5 -37 -10 -73
-10 -79 0 -21 -20 -16 -165 37 -75 28 -166 58 -202 66 -64 15 -66 15 -114 -11
-27 -14 -58 -25 -69 -25 -25 0 -69 22 -123 61 -22 16 -49 29 -60 29 -12 0 -17
5 -14 13 19 51 102 328 192 647 165 582 231 771 365 1045 81 166 178 324 270
435 64 78 219 230 234 230 6 0 22 -19 35 -43z m931 -6 c63 -17 156 -42 205
-55 l90 -24 3 -41 c6 -76 -90 -359 -119 -353 -26 6 -234 84 -359 134 -204 83
-323 148 -377 207 -31 33 -29 41 11 41 26 0 51 12 102 51 105 81 105 81 224
75 72 -3 141 -14 220 -35z m-2263 -1262 c-2 -74 0 -82 22 -100 13 -10 37 -19
53 -19 27 0 30 -3 23 -22 -15 -47 -17 -86 -5 -108 12 -22 101 -70 132 -70 9 0
38 -11 64 -25 26 -14 53 -25 60 -25 10 0 5 -23 -17 -82 -102 -271 -141 -423
-154 -588 l-7 -85 44 -31 c97 -70 163 -81 259 -45 43 17 59 18 112 10 105 -17
111 -23 115 -104 4 -78 -9 -385 -38 -905 -11 -190 -24 -478 -30 -641 -12 -331
-10 -353 49 -383 48 -26 151 -21 228 10 80 32 119 29 190 -15 32 -20 92 -42
155 -58 57 -14 107 -29 112 -33 10 -10 -27 -137 -60 -202 -32 -63 -133 -169
-261 -274 -56 -46 -138 -124 -182 -173 -103 -116 -102 -110 -104 -534 -2 -360
-1 -371 56 -484 34 -65 168 -188 231 -209 64 -22 106 -72 106 -127 0 -49 -22
-87 -51 -87 -14 0 -19 7 -19 29 0 37 -27 70 -81 100 l-43 25 37 -52 c45 -61
61 -106 46 -134 -19 -36 -70 -58 -132 -58 -75 0 -93 10 -101 58 -7 46 -36 86
-76 107 -43 22 -45 19 -16 -20 65 -85 66 -134 2 -155 -90 -29 -295 79 -344
182 -11 24 -30 102 -42 173 -33 196 -42 234 -139 580 -49 176 -111 401 -136
500 -26 99 -56 202 -66 228 -23 57 -35 167 -49 417 -14 275 -34 341 -158 510
-111 153 -224 434 -256 636 -9 56 -16 150 -16 210 -1 109 48 554 60 554 12 0
30 -51 30 -85 0 -43 21 -51 138 -49 45 1 82 -1 82 -5 0 -4 -16 -22 -35 -41
-41 -40 -43 -49 -12 -78 22 -21 226 -122 247 -122 5 0 10 -4 10 -10 0 -5 -4
-10 -10 -10 -5 0 -16 -13 -24 -29 -14 -26 -14 -30 3 -45 26 -24 124 -39 205
-31 58 6 75 12 98 35 56 56 31 87 -147 181 -117 62 -118 63 -87 71 50 13 59
42 27 89 -28 44 -124 118 -185 145 -42 19 -52 34 -23 34 9 0 36 9 60 21 47 23
57 54 27 84 -20 19 -115 68 -167 85 -32 10 -37 15 -31 33 4 12 7 42 6 66 0 42
-10 64 -92 219 -50 93 -53 169 -12 254 38 77 62 109 69 90 3 -8 31 -31 63 -51
l58 -38 -34 -16 c-41 -20 -63 -60 -47 -85 5 -9 36 -24 67 -32 l56 -15 -30 -18
c-37 -22 -39 -53 -5 -69 27 -12 30 -24 16 -61 -13 -35 -2 -45 72 -66 55 -15
78 -28 122 -70 82 -78 97 -66 44 35 -17 32 -46 80 -64 105 l-33 47 53 7 c33 4
60 13 70 25 16 18 16 21 -2 52 -10 18 -42 51 -70 73 -28 22 -52 43 -52 48 -1
4 17 7 38 7 35 0 71 19 71 37 0 19 -53 83 -124 150 l-84 78 24 35 c31 44 30
81 -2 166 -37 96 -36 165 6 272 17 45 33 82 35 82 2 0 3 -36 2 -81z m-2137
-1153 c83 -13 79 -7 66 -100 -10 -69 3 -122 38 -155 28 -26 87 -42 128 -34 37
7 46 55 26 140 -14 58 -14 66 1 84 l16 20 81 -22 81 -23 12 -60 c13 -61 22
-73 118 -158 26 -24 33 -25 49 -14 17 13 17 20 6 104 -7 49 -10 96 -7 104 4
10 28 12 103 10 53 -2 102 -5 109 -7 6 -2 17 -30 23 -62 15 -71 36 -124 55
-139 11 -8 28 -8 62 1 l48 12 0 81 c0 44 3 83 7 87 5 6 138 35 158 35 3 0 11
-21 18 -47 13 -48 76 -123 104 -123 36 0 52 26 49 80 -4 83 38 111 112 74 67
-34 92 -69 111 -155 l6 -26 -143 -7 c-78 -4 -252 -20 -387 -36 -358 -42 -503
-53 -616 -46 -142 9 -298 41 -369 76 -113 55 -275 215 -275 270 0 21 60 49
105 49 17 0 64 -6 105 -13z m4004 -2126 c33 -5 110 -33 175 -63 64 -30 129
-58 145 -61 l28 -7 -6 -62 c-17 -152 -101 -402 -176 -522 -25 -40 -25 -43 -24
-255 0 -198 2 -222 26 -311 30 -111 60 -175 131 -280 60 -88 101 -124 234
-201 54 -31 107 -68 117 -82 18 -24 18 -27 2 -70 l-18 -46 -32 35 c-29 30 -40
35 -77 34 l-44 0 40 -18 c114 -52 119 -156 9 -218 -57 -33 -70 -30 -109 31
-41 64 -78 96 -112 96 l-25 0 31 -37 c97 -117 105 -138 56 -162 -25 -12 -41
-12 -100 -3 -86 15 -239 87 -294 140 -34 32 -41 48 -56 117 -29 138 -53 210
-136 398 -157 356 -355 858 -367 933 -12 71 -12 72 22 145 19 41 58 151 86
244 28 94 53 172 55 173 5 5 190 41 260 51 85 12 93 12 159 1z"/>
<path d="M4592 11028 c-5 -7 -19 -35 -31 -62 -30 -69 -94 -155 -211 -281 -126
-136 -154 -171 -145 -185 35 -56 218 117 373 353 35 53 69 97 76 97 24 0 123
-67 270 -183 150 -119 192 -147 221 -147 22 0 19 6 -21 61 -69 94 -247 232
-402 312 -96 50 -114 55 -130 35z"/>
<path d="M6628 10804 c-94 -17 -144 -39 -172 -77 -18 -24 -21 -43 -21 -119 0
-77 3 -92 20 -104 33 -24 40 -11 37 64 -4 86 22 156 63 172 15 6 90 10 168 11
108 0 152 4 186 17 24 9 46 22 48 28 9 26 -200 32 -329 8z"/>
<path d="M4564 10662 c-65 -81 -133 -167 -153 -192 l-35 -45 34 31 c19 18 80
62 135 99 55 37 114 83 132 102 31 34 33 35 70 23 21 -7 78 -33 127 -57 107
-53 139 -67 131 -53 -3 6 -12 10 -19 10 -19 0 -118 72 -218 156 l-86 74 -118
-148z"/>
<path d="M3956 10528 c4 -7 29 -44 54 -83 71 -106 82 -132 74 -168 -10 -47 -7
-93 10 -125 17 -32 229 -251 321 -332 36 -31 55 -54 48 -57 -23 -9 -14 -22 30
-44 51 -26 84 -55 103 -91 21 -40 18 -49 -10 -36 -53 24 -74 -15 -31 -57 29
-29 79 -33 107 -8 16 14 22 14 43 3 35 -19 41 -7 20 42 -34 82 -40 91 -97 136
-62 48 -64 52 -46 70 8 8 8 15 -1 26 -15 18 -163 106 -178 106 -6 0 -31 24
-54 53 -24 28 -76 89 -116 133 -67 75 -73 84 -63 106 14 30 -3 84 -51 164 -39
64 -138 174 -157 174 -8 0 -10 -5 -6 -12z"/>
<path d="M4171 9919 c11 -23 18 -50 16 -60 -4 -14 25 -47 107 -126 109 -104
159 -143 172 -130 3 3 -1 28 -10 55 -15 45 -22 53 -79 82 -100 53 -130 90 -71
90 13 0 24 4 24 9 0 11 -71 70 -120 100 -54 32 -64 27 -39 -20z"/>
<path d="M4664 9485 c-14 -21 -16 -39 -10 -100 14 -154 47 -215 143 -262 47
-22 74 -28 150 -31 78 -4 93 -2 93 11 0 8 7 20 15 27 9 7 13 20 10 29 -3 9 1
37 8 61 l13 45 18 -27 c10 -15 20 -45 23 -67 5 -33 2 -42 -16 -53 -12 -7 -21
-23 -21 -36 0 -20 4 -23 28 -20 59 7 92 139 54 220 -17 37 -125 128 -191 163
-19 10 -87 26 -150 35 -64 10 -124 21 -133 25 -11 4 -22 -1 -34 -20z m134 -92
c24 -6 24 -7 17 -97 -4 -50 -9 -93 -11 -95 -7 -7 -55 43 -71 73 -52 100 -28
144 65 119z m132 -68 c0 -16 -35 -21 -44 -6 -8 12 4 21 26 21 10 0 18 -7 18
-15z m30 -89 c18 -23 8 -61 -17 -64 -21 -3 -23 1 -23 37 0 43 17 54 40 27z"/>
</g>
</svg>
