<?xml version="1.0" standalone="no"?>
<!DOCTYPE svg PUBLIC "-//W3C//DTD SVG 20010904//EN"
 "http://www.w3.org/TR/2001/REC-SVG-20010904/DTD/svg10.dtd">
<svg version="1.0" xmlns="http://www.w3.org/2000/svg"
 width="1280.000000pt" height="960.000000pt" viewBox="0 0 1280.000000 960.000000"
 preserveAspectRatio="xMidYMid meet">
<metadata>
Created by potrace 1.15, written by Peter Selinger 2001-2017
</metadata>
<g transform="translate(0.000000,960.000000) scale(0.100000,-0.100000)"
fill="#000000" stroke="none">
<path d="M3720 8981 c-251 -69 -501 -250 -726 -526 -143 -174 -303 -476 -383
-720 -27 -82 -52 -167 -56 -187 -4 -21 -9 -38 -11 -38 -2 0 -54 29 -116 65
-234 135 -545 248 -807 295 -73 13 -81 8 -81 -52 0 -54 51 -239 120 -438 34
-96 70 -211 80 -255 10 -44 30 -110 44 -146 l25 -66 -20 -32 c-14 -24 -25 -31
-37 -26 -242 93 -490 151 -747 176 -217 21 -686 -3 -802 -42 -33 -11 -48 -35
-15 -25 42 13 271 37 423 45 272 15 546 -10 782 -70 115 -29 357 -110 357
-119 0 -5 -21 -52 -47 -105 -27 -57 -42 -99 -37 -105 5 -5 54 -26 109 -48 55
-22 208 -87 340 -145 132 -57 279 -119 327 -138 81 -31 114 -59 71 -59 -10 0
-106 41 -213 91 -316 147 -608 269 -644 269 -16 0 -58 -139 -82 -265 -24 -131
-15 -347 20 -469 47 -168 146 -342 263 -467 l63 -67 -267 -4 c-192 -3 -275 -8
-292 -17 -43 -24 -9 -31 94 -21 55 5 188 10 295 10 l196 0 111 -82 c62 -46
163 -111 225 -145 62 -35 110 -63 107 -63 -4 0 -75 -9 -158 -20 -365 -49 -663
-131 -896 -247 -170 -86 -352 -219 -330 -242 8 -8 25 2 60 31 243 202 633 349
1110 417 254 36 291 37 359 6 33 -14 86 -47 118 -72 l58 -46 -111 -59 c-186
-98 -395 -252 -587 -433 -81 -76 -101 -105 -73 -105 4 0 52 41 107 91 203 188
409 338 597 435 100 52 95 52 231 4 102 -36 215 -51 331 -43 69 5 92 2 169
-22 l88 -28 -6 -96 c-4 -53 -18 -341 -31 -641 -14 -300 -28 -605 -31 -677 l-7
-133 -1694 0 -1693 0 0 -25 0 -25 1653 0 c908 0 1669 -3 1690 -7 l39 -6 -4
-104 c-2 -79 -7 -106 -18 -113 -9 -6 -653 -10 -1687 -10 l-1673 0 0 -253 0
-254 902 -6 c496 -4 1183 -7 1527 -7 l626 0 -35 -27 c-105 -79 -192 -203 -236
-333 -25 -73 -26 -294 -2 -356 l16 -42 -80 -12 c-193 -28 -382 -92 -456 -155
-79 -66 -79 -129 -2 -198 270 -243 1340 -243 1610 0 62 55 72 94 40 151 l-22
39 34 54 c70 111 98 211 98 346 l0 93 51 -31 c63 -39 112 -45 236 -29 155 20
202 49 233 143 14 45 18 131 7 167 -7 24 -1 29 156 112 l164 88 3966 0 3967 0
0 255 0 255 -3497 2 -3497 3 85 95 c228 253 674 793 802 970 154 214 278 440
327 595 32 101 39 264 14 336 l-18 54 -8 -50 c-58 -339 -168 -584 -458 -1015
-151 -224 -716 -895 -827 -982 -113 -89 -209 -142 -660 -368 -252 -125 -485
-245 -517 -264 -59 -36 -59 -36 -80 -17 -37 34 -92 29 -79 -7 4 -9 28 -48 55
-86 54 -77 60 -112 28 -163 -27 -45 -60 -58 -182 -72 -113 -13 -151 -10 -209
20 -69 35 -124 125 -106 173 3 8 34 24 70 35 80 27 100 41 91 64 -12 32 -48
31 -83 -2 -24 -22 -43 -31 -68 -31 -46 0 -67 12 -133 79 -31 31 -88 86 -128
122 -91 84 -94 103 -23 173 39 38 62 52 112 66 62 16 63 17 39 30 -18 10 -70
14 -175 15 -158 1 -214 11 -259 46 -35 28 -33 51 10 99 113 125 390 158 567
69 23 -12 64 -39 91 -60 39 -31 57 -39 90 -39 85 0 155 47 397 267 303 275
518 420 732 491 l87 30 -44 11 c-42 10 -81 4 -149 -24 -12 -5 -2 24 38 104
144 287 204 594 205 1036 0 128 10 272 26 368 6 36 8 38 33 32 39 -10 200 -89
251 -124 48 -33 70 -39 70 -18 0 15 -70 62 -160 107 -152 77 -340 135 -542
167 -59 10 -108 20 -108 23 0 3 15 15 34 28 18 12 63 49 100 81 52 44 73 57
94 54 161 -18 369 -50 515 -79 126 -25 182 -33 189 -26 8 8 4 14 -13 21 -36
16 -382 79 -532 97 -73 9 -138 18 -145 20 -8 2 6 26 40 64 258 292 322 708
182 1188 -6 22 -6 22 108 22 197 0 416 -35 601 -96 56 -19 82 -23 90 -15 15
15 -63 47 -202 82 -144 37 -309 58 -481 63 l-135 3 -33 89 c-18 49 -64 154
-102 233 -39 79 -69 146 -67 148 3 2 74 11 158 19 105 11 228 14 384 12 147
-2 232 1 235 7 17 33 -529 33 -756 -1 -41 -6 -42 -5 -75 42 l-33 49 -3 272
c-2 162 1 282 7 297 24 64 78 57 358 -44 92 -33 250 -89 352 -126 532 -189
746 -313 992 -574 165 -174 414 -528 509 -723 54 -112 76 -176 219 -624 33
-106 77 -230 96 -275 20 -46 65 -153 101 -238 122 -293 210 -436 373 -600 147
-149 303 -249 470 -302 67 -20 92 -23 230 -21 180 3 185 0 195 -81 9 -69 -11
-409 -29 -513 -35 -194 -102 -430 -165 -575 l-20 -48 -1377 0 -1377 0 -33 -21
c-19 -11 -34 -23 -34 -25 0 -2 1523 -4 3385 -4 l3385 0 0 25 0 25 -1940 0
c-1338 0 -1940 3 -1940 10 0 6 16 57 36 113 42 122 80 276 129 532 101 526
197 750 415 958 250 241 668 451 1382 696 130 44 266 95 304 111 219 99 365
266 418 480 42 170 56 795 22 990 -49 281 -123 456 -243 576 -112 112 -309
176 -377 123 -50 -39 -70 -94 -74 -205 -5 -130 7 -173 109 -379 94 -191 109
-247 109 -415 -1 -268 -68 -459 -215 -605 -120 -120 -288 -195 -537 -240 -399
-72 -736 -225 -1048 -476 -123 -99 -273 -256 -335 -350 -26 -41 -51 -78 -55
-82 -4 -4 -56 54 -117 130 -204 256 -295 341 -558 523 -438 304 -605 482
-1030 1100 -172 251 -267 372 -385 490 -312 313 -740 521 -1566 760 l-182 53
-21 48 c-24 51 -71 99 -99 99 -9 0 -55 -11 -102 -25 -70 -20 -95 -24 -143 -17
l-59 7 -18 52 c-10 29 -47 101 -83 160 -36 59 -78 135 -95 168 -121 241 -294
419 -467 480 -87 31 -216 33 -315 6z m331 -88 c110 -52 229 -170 336 -332 55
-83 165 -300 201 -398 l19 -51 -21 -6 c-11 -3 -46 -6 -76 -6 -30 0 -84 -5
-120 -10 -36 -5 -126 -16 -200 -25 -354 -41 -761 -131 -809 -180 -14 -13 -11
-15 23 -15 22 0 106 16 187 35 338 81 572 114 857 122 122 3 222 3 222 0 0 -3
-46 -33 -102 -67 -131 -78 -270 -177 -370 -263 l-79 -68 -112 39 c-366 129
-727 130 -1089 2 -125 -44 -204 -86 -232 -124 -35 -46 -9 -49 82 -11 102 43
248 85 412 120 169 36 398 45 558 21 113 -17 263 -55 309 -80 l25 -13 -52 -59
c-158 -179 -254 -372 -235 -472 l7 -36 19 24 c11 14 60 106 110 205 143 283
188 340 344 449 312 216 466 307 627 371 93 37 125 32 153 -24 60 -119 82
-434 49 -693 -26 -205 -18 -188 -104 -210 -41 -10 -127 -37 -190 -60 -126 -45
-219 -57 -289 -38 -44 11 -81 41 -81 63 0 7 45 50 100 96 54 45 105 90 112 99
12 14 10 14 -12 2 -46 -24 -265 -142 -310 -167 l-45 -25 25 24 c14 14 79 74
145 133 192 173 207 187 203 190 -2 2 -73 -37 -158 -86 -85 -49 -161 -89 -169
-89 -22 0 -7 74 33 154 58 118 238 296 439 435 72 50 102 89 83 108 -10 10
-285 -180 -362 -251 -87 -79 -174 -191 -209 -268 -14 -32 -33 -92 -41 -135
-26 -137 -41 -178 -90 -232 l-46 -51 94 0 c71 0 111 -6 171 -25 42 -14 95 -28
117 -31 l41 -7 -73 -41 c-180 -103 -301 -198 -463 -365 -39 -40 -47 -53 -37
-63 10 -10 24 0 68 49 112 126 330 290 494 373 65 32 87 38 165 42 86 5 175
30 175 49 0 5 -26 9 -57 10 l-58 1 115 38 c63 20 130 41 148 45 l34 7 -8 -59
c-11 -84 -8 -120 10 -148 20 -31 37 -32 62 -4 15 16 19 37 20 93 1 75 11 136
22 136 8 0 101 -146 131 -206 26 -53 103 -246 99 -249 -2 -1 -56 -7 -120 -14
-385 -38 -790 -152 -1171 -330 -59 -28 -107 -54 -107 -60 0 -23 23 -20 88 13
272 137 663 263 977 315 159 27 336 44 346 34 17 -18 68 -257 80 -370 31 -315
-65 -619 -261 -822 l-65 -68 -140 7 c-255 14 -533 -14 -723 -71 -85 -26 -274
-99 -286 -110 -6 -6 -6 -13 0 -19 6 -6 54 8 136 40 246 96 379 120 698 127
129 3 245 1 258 -4 20 -8 10 -16 -95 -86 l-117 -77 -191 0 c-172 0 -347 -10
-447 -26 -25 -4 -38 -11 -38 -21 0 -13 10 -15 58 -9 131 15 315 26 427 25 110
0 118 -1 100 -15 -27 -21 -216 -116 -221 -111 -2 2 1 19 6 38 19 67 9 63 -74
-26 l-83 -89 -109 37 c-142 48 -243 67 -365 67 -81 0 -99 -3 -99 -15 0 -12 16
-15 84 -15 128 0 299 -35 421 -86 l38 -15 -54 -36 c-82 -55 -210 -112 -317
-139 -160 -42 -321 -23 -450 53 l-43 26 28 17 c71 43 118 128 111 200 l-3 35
-55 -1 c-30 -1 -84 -3 -120 -5 -36 -1 -111 1 -167 6 l-102 8 -12 -26 c-17 -37
1 -74 73 -153 33 -37 58 -73 56 -82 -5 -26 -82 -60 -156 -68 -92 -10 -247 10
-314 39 l-53 24 120 37 c66 21 128 40 138 42 19 6 22 19 7 29 -10 6 -126 -26
-243 -66 -66 -23 -61 -25 -166 55 -51 38 -53 41 -30 47 13 4 78 7 145 8 178 1
274 11 274 27 0 16 -61 16 -324 5 -140 -6 -151 -5 -168 13 -10 11 -18 23 -18
28 0 4 -7 8 -15 8 -10 0 -15 -10 -15 -30 0 -16 -5 -30 -10 -30 -19 0 -212 95
-284 139 -84 52 -179 121 -174 127 7 7 340 -34 502 -61 83 -14 223 -41 312
-60 183 -40 184 -40 184 -21 0 33 -649 151 -952 172 -88 6 -100 10 -134 37
-46 38 -164 176 -164 192 0 6 64 31 143 55 178 54 224 75 248 114 25 40 24 53
-5 90 -13 17 -49 83 -81 145 -70 140 -69 141 84 125 93 -10 73 -24 -24 -17
-75 5 -85 4 -85 -11 0 -30 26 -80 69 -131 24 -29 54 -83 72 -130 57 -151 118
-207 265 -246 70 -18 96 -20 230 -14 151 7 152 7 168 -16 9 -13 16 -36 16 -52
0 -28 46 -87 68 -87 13 0 22 61 22 156 0 58 -8 115 -29 195 -28 109 -32 116
-78 158 -73 67 -148 113 -204 125 -27 6 -50 16 -50 20 0 5 30 22 66 38 125 53
334 217 546 428 157 157 169 180 176 332 5 95 2 127 -16 198 -31 125 -83 223
-157 298 -84 84 -154 116 -251 117 -64 0 -76 -3 -116 -31 l-44 -32 -123 65
-122 65 6 40 c13 82 106 341 169 470 204 418 513 733 852 868 195 79 311 87
426 33z m-2233 -1183 c162 -65 522 -289 651 -407 73 -66 121 -134 121 -173 0
-33 -43 -75 -92 -88 -36 -10 -41 -8 -135 57 -54 36 -132 91 -173 122 -41 30
-79 58 -85 61 -5 3 47 -51 116 -120 123 -125 188 -202 158 -190 -89 37 -353
137 -355 135 -2 -2 25 -18 59 -36 81 -45 207 -133 207 -147 0 -15 -45 -34 -78
-34 -15 1 -38 7 -52 15 -42 24 -57 17 -106 -46 l-47 -62 -19 23 c-10 12 -18
28 -18 34 0 24 -47 57 -75 54 -33 -3 -28 -15 -186 448 -70 206 -89 273 -89
317 0 43 4 59 18 67 25 16 93 4 180 -30z m101 -930 c212 -96 731 -379 731
-397 0 -7 -3 -13 -7 -13 -5 0 -91 48 -193 106 -215 122 -442 239 -584 300 -56
24 -102 48 -105 55 -6 18 39 4 158 -51z m9574 -304 c27 -11 37 -25 61 -87 27
-71 28 -78 22 -191 -13 -226 -57 -342 -181 -465 -70 -69 -99 -89 -186 -132
-57 -27 -192 -80 -299 -116 -580 -198 -943 -359 -1209 -536 -273 -181 -418
-351 -527 -617 -26 -64 -51 -121 -56 -126 -4 -6 -8 17 -8 50 0 172 -42 428
-90 553 l-30 75 39 66 c175 292 545 575 971 743 143 56 227 78 452 116 204 35
302 65 407 124 105 59 184 141 269 279 72 115 141 210 171 236 50 41 134 54
194 28z m-9025 -503 l44 -5 -30 -32 c-88 -92 -91 -202 -8 -281 48 -47 99 -65
182 -65 94 0 136 36 168 144 l12 41 23 -60 c13 -33 25 -82 28 -110 l5 -50
-168 0 -169 0 -83 44 c-94 49 -135 92 -152 160 -20 78 -40 124 -76 172 -19 26
-34 50 -34 54 0 8 176 0 258 -12z m140 -125 c35 -38 37 -70 7 -106 -28 -33
-54 -39 -99 -22 -52 19 -56 77 -9 125 32 31 73 32 101 3z m114 -95 c36 -32 15
-113 -29 -113 -46 0 -70 74 -36 112 20 22 41 23 65 1z m2472 -642 c54 -11 132
-30 173 -42 67 -20 74 -24 68 -43 -44 -135 -47 -159 -51 -413 -2 -139 -8 -299
-13 -357 -24 -253 -99 -496 -221 -716 -23 -41 -46 -85 -51 -98 -15 -38 -38
-23 -119 73 -41 50 -104 119 -140 155 -58 58 -77 70 -185 115 -183 75 -438
206 -559 286 -61 40 -148 109 -194 153 -122 117 -302 361 -302 408 1 40 14 43
187 44 136 1 183 5 245 22 133 36 245 89 405 192 19 12 28 11 75 -10 156 -72
424 -239 593 -369 82 -63 90 -67 99 -52 18 28 -403 315 -625 426 -39 20 -68
40 -63 44 5 4 54 27 109 50 55 23 150 68 210 101 l110 60 75 -5 c41 -2 119
-13 174 -24z m-1708 -304 c11 -7 40 -28 63 -48 46 -40 41 -49 -27 -49 -41 0
-149 24 -160 35 -10 10 64 75 85 75 10 -1 27 -6 39 -13z m167 -372 c106 -141
118 -166 112 -231 -3 -27 -9 -110 -15 -184 -6 -74 -26 -268 -46 -430 -19 -162
-43 -382 -53 -489 -20 -203 -23 -210 -71 -211 -14 0 -51 -6 -82 -14 l-58 -13
0 41 c0 55 57 1442 66 1584 l6 114 25 -24 c14 -13 66 -77 116 -143z m187 -278
c42 -90 327 -250 752 -421 91 -38 180 -78 196 -89 17 -12 76 -77 130 -143
l100 -121 -91 -59 c-50 -32 -136 -93 -191 -136 l-100 -78 -463 0 c-444 0 -463
1 -463 18 0 18 30 325 82 845 12 119 24 217 27 217 3 0 13 -15 21 -33z m631
-1198 c-115 -110 -201 -172 -263 -191 -37 -11 -44 -10 -77 10 -131 82 -254
122 -370 122 l-74 0 6 70 c3 39 9 75 12 80 4 6 161 10 438 10 l432 -1 -104
-100z m-905 -399 c7 0 21 -11 29 -24 15 -22 15 -27 1 -55 -19 -36 -44 -51 -86
-51 -35 0 -69 15 -87 39 -16 20 -17 68 -1 77 21 13 73 23 102 18 16 -2 35 -4
42 -4z m-47 -235 c144 -34 290 -140 366 -266 103 -169 112 -375 23 -558 -45
-92 -169 -217 -259 -259 -170 -81 -352 -81 -517 0 -93 46 -216 169 -260 261
-107 223 -71 468 96 648 144 156 350 221 551 174z"/>
<path d="M4411 6120 c-82 -11 -186 -37 -276 -71 -101 -38 -166 -113 -225 -263
-58 -146 -86 -315 -60 -356 10 -16 9 -17 38 30 11 19 39 53 61 75 l41 39 164
-23 c181 -26 239 -25 327 8 98 37 150 106 222 298 23 60 49 108 85 152 63 79
65 96 15 105 -69 11 -317 15 -392 6z m279 -132 c0 -11 -23 -78 -51 -148 -60
-153 -96 -200 -173 -229 -87 -32 -139 -34 -283 -12 -72 12 -155 21 -184 21
l-52 0 6 45 c14 102 81 225 140 256 17 10 18 8 10 -13 -4 -12 -8 -51 -8 -85 0
-52 5 -68 30 -105 116 -165 389 -120 447 74 15 51 0 101 -53 167 l-41 51 106
0 c102 0 106 -1 106 -22z m-401 -134 c21 -26 27 -76 15 -109 -4 -8 -19 -22
-35 -31 -81 -41 -156 66 -98 140 16 20 29 26 59 26 30 0 43 -6 59 -26z m135
-96 c9 -12 16 -33 16 -45 0 -26 -32 -63 -55 -63 -23 0 -55 37 -55 63 0 33 28
67 55 67 13 0 31 -10 39 -22z"/>
<path d="M1005 6709 c-160 -21 -338 -88 -511 -190 -105 -63 -205 -141 -193
-153 3 -3 52 28 110 69 270 194 539 275 814 247 123 -13 250 -39 353 -73 60
-20 87 -20 66 0 -15 15 -193 68 -281 85 -106 20 -270 27 -358 15z"/>
<path d="M10055 2054 c-418 -93 -705 -492 -656 -911 13 -107 48 -222 91 -299
l29 -51 -102 -12 c-205 -25 -398 -75 -508 -133 -194 -102 -158 -228 93 -319
375 -137 1066 -155 1527 -38 220 55 341 133 341 220 0 33 -6 47 -34 75 l-33
33 39 43 c93 100 163 228 199 363 25 95 30 286 10 380 -56 259 -230 475 -474
590 -109 52 -177 67 -322 71 -93 3 -150 -1 -200 -12z m-185 -891 c69 -19 117
-43 208 -106 84 -58 120 -99 162 -188 44 -94 56 -157 42 -230 -29 -159 -133
-220 -293 -173 -57 17 -151 62 -184 88 -11 9 5 4 35 -11 39 -20 69 -28 108
-28 48 0 57 3 84 34 29 32 30 38 25 94 -8 90 -72 170 -148 186 -25 5 -34 13
-40 35 -11 39 -46 75 -94 97 -50 23 -87 24 -131 3 -47 -22 -75 -66 -83 -127
l-6 -52 -33 56 c-58 101 -40 232 40 292 73 55 180 65 308 30z m-126 -288 c31
-34 37 -59 19 -84 -17 -26 -69 -28 -102 -5 -19 14 -22 23 -18 51 4 19 11 41
18 49 18 22 58 17 83 -11z m185 -170 c60 -69 28 -122 -55 -90 -65 25 -81 63
-44 103 30 32 63 28 99 -13z m-283 0 c16 -8 41 -15 55 -15 22 0 28 -6 33 -34
4 -19 17 -47 29 -62 l22 -29 -34 24 c-40 29 -149 130 -140 131 4 0 20 -7 35
-15z"/>
</g>
</svg>
